<?xml version="1.0" encoding="iso-8859-1"?>
<!-- Generator: Adobe Illustrator 19.0.0, SVG Export Plug-In . SVG Version: 6.00 Build 0)  -->
<svg version="1.1" id="Layer_1" xmlns="http://www.w3.org/2000/svg" xmlns:xlink="http://www.w3.org/1999/xlink" x="0px" y="0px"
	 viewBox="0 0 274.891 274.891" style="enable-background:new 0 0 274.891 274.891;" xml:space="preserve">
<g>
	<rect x="7.5" y="15.779" style="fill:#FFDA79;" width="259.891" height="219.243"/>
	<path style="fill:#FF9392;" d="M39.986,106.619L39.986,106.619C22.045,106.619,7.5,92.074,7.5,74.133V15.779h64.973v58.354
		C72.473,92.074,57.928,106.619,39.986,106.619z"/>
	<path style="fill:#FFFFFF;" d="M104.959,106.619L104.959,106.619c-17.942,0-32.486-14.545-32.486-32.486V15.779h64.973v58.354
		C137.445,92.074,122.901,106.619,104.959,106.619z"/>
	<path style="fill:#FF9392;" d="M169.932,106.619L169.932,106.619c-17.942,0-32.486-14.545-32.486-32.486V15.779h64.973v58.354
		C202.418,92.074,187.873,106.619,169.932,106.619z"/>
	<path style="fill:#FFFFFF;" d="M234.904,106.619L234.904,106.619c-17.942,0-32.486-14.545-32.486-32.486V15.779h64.973v58.354
		C267.391,92.074,252.846,106.619,234.904,106.619z"/>
	<rect x="72.473" y="133.875" style="fill:#FFFFFF;" width="64.973" height="101.147"/>
	<rect x="72.472" y="133.875" style="fill:#C7E9F4;" width="64.973" height="50.848"/>
	<rect x="169.932" y="133.875" style="fill:#C7E9F4;" width="64.973" height="50.848"/>
	<g>
		<rect x="7.5" y="235.022" style="fill:#F59D00;" width="259.891" height="24.09"/>
		<g>
			<path style="fill:#13829B;" d="M267.391,8.279c-4.108,0-252.803,0-259.891,0c-4.142,0-7.5,3.358-7.5,7.5
				c0,23.435,0,235.632,0,243.333c0,4.142,3.358,7.5,7.5,7.5h259.891c4.143,0,7.5-3.358,7.5-7.5c0-8.771,0-220.506,0-243.333
				C274.891,11.637,271.533,8.279,267.391,8.279z M79.973,192.223h49.973v35.298H79.973V192.223z M129.945,177.223H79.973v-35.848
				h49.973V177.223z M144.945,133.875c0-4.142-3.357-7.5-7.5-7.5H72.473c-4.142,0-7.5,3.358-7.5,7.5c0,9.372,0,83.292,0,93.646H15
				V105.318c17.873,14.349,44.056,10.762,57.473-7.914c16.015,22.293,48.977,22.267,64.973,0c16.015,22.293,48.977,22.266,64.973,0
				c13.421,18.682,39.605,22.259,57.473,7.914v122.203H144.945C144.945,217.17,144.945,143.246,144.945,133.875z M259.891,74.133
				c0,13.777-11.209,24.986-24.986,24.986c-13.777,0-24.986-11.209-24.986-24.986V23.279h49.973V74.133z M194.918,74.133
				c0,13.777-11.209,24.986-24.986,24.986c-13.777,0-24.986-11.209-24.986-24.986V23.279h49.973V74.133z M129.945,74.133
				c0,13.777-11.209,24.986-24.986,24.986c-13.777,0-24.986-11.209-24.986-24.986V23.279h49.973V74.133z M15,23.279h49.973v50.854
				c0,13.777-11.209,24.986-24.986,24.986C26.209,99.119,15,87.91,15,74.133V23.279z M259.891,251.612H15v-9.09
				c9.648,0,234.885,0,244.891,0V251.612z"/>
			<path style="fill:#13829B;" d="M234.904,126.375h-64.973c-4.143,0-7.5,3.358-7.5,7.5v50.848c0,4.142,3.357,7.5,7.5,7.5h64.973
				c4.143,0,7.5-3.358,7.5-7.5v-50.848C242.404,129.733,239.047,126.375,234.904,126.375z M227.404,177.223h-49.973v-35.848h49.973
				V177.223z"/>
		</g>
	</g>
</g>
<g>
</g>
<g>
</g>
<g>
</g>
<g>
</g>
<g>
</g>
<g>
</g>
<g>
</g>
<g>
</g>
<g>
</g>
<g>
</g>
<g>
</g>
<g>
</g>
<g>
</g>
<g>
</g>
<g>
</g>
</svg>
