<svg width="100" height="100" viewBox="0 0 100 100" fill="none" xmlns="http://www.w3.org/2000/svg">
<path d="M94.427 79.2393C94.427 87.5864 87.6441 94.3859 79.2804 94.3859C70.9333 94.3859 64.1504 87.603 64.1504 79.2393V59.7628C64.1504 51.4157 70.9333 44.6162 79.2804 44.6162C87.6275 44.6162 94.427 51.3991 94.427 59.7628V79.2393Z" fill="white"/>
<path d="M54.3545 29.964C54.3545 16.4967 43.4062 5.56494 29.9554 5.56494C16.5047 5.56494 5.5564 16.5133 5.5564 29.964C5.5564 43.4147 16.5047 54.363 29.9554 54.363C43.4062 54.363 54.3545 43.431 54.3545 29.964Z" fill="#FFC10D"/>
<path d="M79.2804 44.6328C70.9333 44.6328 64.1504 51.4157 64.1504 59.7794V68.7851H73.1067C74.6377 68.7851 75.889 70.0197 75.889 71.5674C75.889 73.0984 74.6543 74.3496 73.1067 74.3496H64.1504V79.2722C64.1504 80.5399 64.3315 81.7252 64.5948 82.8941H70.2253C71.7564 82.8941 73.0076 84.1288 73.0076 85.6764C73.0076 87.2075 71.773 88.4587 70.2253 88.4587H67.2783C70.0605 92.0806 74.407 94.4185 79.2967 94.4185C87.6438 94.4185 94.4433 87.6356 94.4433 79.2719V59.7626C94.427 51.4157 87.6438 44.6328 79.2804 44.6328Z" fill="#56ACE0"/>
<path d="M30.0212 19.8061C32.0627 19.8061 33.7254 21.4525 33.7254 23.5103C33.7254 25.0414 34.9601 26.2926 36.5077 26.2926C38.0554 26.2926 39.29 25.0579 39.29 23.5103C39.29 19.378 36.5571 15.8546 32.8198 14.6694V13.0723C32.8198 11.5412 31.5852 10.29 30.0375 10.29C28.4899 10.29 27.2553 11.5247 27.2553 13.0723V14.6694C23.5017 15.8549 20.7851 19.3451 20.7851 23.5103C20.7851 28.6139 24.9339 32.7627 30.0375 32.7627C29.9553 32.7627 30.0375 32.7627 30.0541 32.7627C31.931 32.9438 33.742 34.508 33.742 36.4178C33.742 38.4592 32.0955 40.122 30.0378 40.122C27.9964 40.122 26.3336 38.4755 26.3336 36.4178C26.3336 34.8867 25.099 33.6355 23.5513 33.6355C22.0037 33.6355 20.769 34.8701 20.769 36.4178C20.769 40.5501 23.5019 44.0735 27.2392 45.2587V46.8392C27.2392 48.3703 28.4739 49.6215 30.0215 49.6215C31.5691 49.6215 32.8038 48.3868 32.8038 46.8392V45.2587C36.5574 44.0732 39.274 40.5829 39.274 36.4178C39.274 31.3142 34.763 27.1816 29.6757 27.1816C29.7579 27.1816 29.6757 27.1816 29.6591 27.1816C27.7822 27.0006 26.3171 25.4035 26.3171 23.4937C26.3168 21.4688 27.9633 19.8061 30.0212 19.8061Z" fill="black"/>
<path d="M79.2803 49.1934C77.7492 49.1934 76.498 50.428 76.498 51.9756V58.5118C76.498 60.0429 77.7327 61.2941 79.2803 61.2941C80.8114 61.2941 82.0626 60.0594 82.0626 58.5118V51.9756C82.0463 50.4446 80.8114 49.1934 79.2803 49.1934Z" fill="#194F82"/>
<path d="M82.1286 39.3314C82.4579 36.2362 85.0591 33.7997 88.2366 33.7997C94.7068 33.7997 99.9918 28.5313 99.9918 22.0446C99.9918 15.5579 94.7234 10.2895 88.2366 10.2895H52.5106C47.0283 4.01719 38.9445 0 29.9554 0C13.4425 0.0165536 0.00805664 13.4507 0.00805664 29.9639C0.00805664 46.477 13.4425 59.9112 29.9554 59.9112C46.4683 59.9112 59.9027 46.4767 59.9027 29.9639C59.9027 24.8602 58.6186 20.0857 56.363 15.8711H88.2201C91.6444 15.8711 94.4269 18.6534 94.4269 22.078C94.4269 25.5025 91.6446 28.2683 88.2201 28.2683C81.9804 28.2683 76.8768 33.1745 76.5309 39.3317C66.4223 40.6817 58.5855 49.3415 58.5855 59.8124V79.3052C58.5855 90.7144 67.8711 100 79.2804 100C90.6896 100 99.9915 90.7144 99.9915 79.3052V59.8124C99.9752 49.3744 92.1879 40.7309 82.1286 39.3314ZM29.9554 54.3629C16.4881 54.3629 5.55633 43.4146 5.55633 29.9639C5.55633 16.5131 16.5046 5.56482 29.9554 5.56482C43.4061 5.56482 54.3544 16.5131 54.3544 29.9639C54.3544 43.4146 43.4226 54.3629 29.9554 54.3629ZM94.4269 79.2392C94.4269 87.5863 87.644 94.3858 79.2804 94.3858C70.9332 94.3858 64.1503 87.6029 64.1503 79.2392V59.7627C64.1503 51.4156 70.9332 44.6161 79.2804 44.6161C87.6275 44.6161 94.4269 51.399 94.4269 59.7627V79.2392Z" fill="black"/>
</svg>
