<svg width="100" height="129" viewBox="0 0 100 129" fill="none" xmlns="http://www.w3.org/2000/svg">
<path d="M33.6305 51.0926L42.1335 52.0907L57.8681 53.9311V53.9343L66.371 54.9292L82.1056 56.7729L89.7154 57.6629L97.6144 87.7683L89.7185 86.2552L10.2831 71.0388L2.38403 69.5258L10.2831 48.3589L17.8801 49.2489L33.6305 51.0926Z" fill="#2BA5F7"/>
<path d="M89.7187 86.2581V125.89H10.2832V71.0418V71.0386L89.7187 86.255V86.2581Z" fill="#2BA5F7"/>
<path d="M82.1056 40.0718V56.7726L66.3711 54.929V40.0718H82.1056Z" fill="#995C0D"/>
<path d="M82.1024 9.49268H66.3679V32.3792H82.1024V9.49268Z" fill="#995C0D"/>
<path d="M57.8681 9.49268H42.1335V32.3792H57.8681V9.49268Z" fill="#995C0D"/>
<path d="M33.6305 9.49268H17.896V32.3792H33.6305V9.49268Z" fill="#995C0D"/>
<path d="M89.7187 53.2951V57.6627H89.7155L82.1057 56.7726V40.0718H66.3712V54.929L57.8682 53.9341V53.9309V40.0718H42.1337V52.0904L33.6307 51.0923V40.0718H17.8993V49.0897L17.8803 49.2487L10.2832 48.3586V2.38525H89.7187V53.2951ZM82.1025 32.3794V9.4928H66.368V32.3794H82.1025ZM57.8682 32.3794V9.4928H42.1337V32.3794H57.8682ZM33.6307 32.3794V9.4928H17.8962V32.3794H33.6307Z" fill="#B27214"/>
<path d="M57.8681 40.0718V53.9309L42.1335 52.0904V40.0718H57.8681Z" fill="#995C0D"/>
<path d="M33.6305 40.0718V51.0923L17.8801 49.2487L17.8992 49.0897V40.0718H33.6305Z" fill="#995C0D"/>
<path d="M90.4138 93.3053L9.83813 90.9213L10.2832 71.0386L89.7186 86.255L90.4138 93.3053Z" fill="#2197D8"/>
<path d="M87.5979 80.7896C86.5403 80.7896 85.5743 80.0807 85.2933 79.0098L82.017 66.523L80.9789 66.4016C79.6712 66.2487 78.735 65.0643 78.8882 63.7566C79.0415 62.4492 80.2249 61.5121 81.5332 61.6659L84.1871 61.9768C85.1617 62.0909 85.9669 62.7906 86.2158 63.7397L89.9049 77.8C90.239 79.0737 89.4777 80.3767 88.204 80.7111C88.0016 80.7641 87.7981 80.7896 87.5979 80.7896Z" fill="white"/>
<path d="M82.3088 121.435C80.9922 121.435 79.9248 120.368 79.9248 119.051V99.0261C79.9248 97.7092 80.9922 96.6421 82.3088 96.6421C83.6254 96.6421 84.6928 97.7092 84.6928 99.0261V119.051C84.6928 120.368 83.6254 121.435 82.3088 121.435Z" fill="white"/>
<path d="M76.5928 28.4513C75.2761 28.4513 74.2087 27.3842 74.2087 26.0673V16.0618C74.2087 14.7448 75.2761 13.6777 76.5928 13.6777C77.9094 13.6777 78.9768 14.7448 78.9768 16.0618V26.0673C78.9768 27.3839 77.9094 28.4513 76.5928 28.4513Z" fill="white"/>
<path d="M28.0647 28.4513C26.7481 28.4513 25.6807 27.3842 25.6807 26.0673V16.0618C25.6807 14.7448 26.7481 13.6777 28.0647 13.6777C29.3813 13.6777 30.4487 14.7448 30.4487 16.0618V26.0673C30.4487 27.3839 29.3813 28.4513 28.0647 28.4513Z" fill="white"/>
<path d="M52.3286 28.4513C51.012 28.4513 49.9446 27.3842 49.9446 26.0673V16.0618C49.9446 14.7448 51.012 13.6777 52.3286 13.6777C53.6452 13.6777 54.7126 14.7448 54.7126 16.0618V26.0673C54.7126 27.3839 53.6452 28.4513 52.3286 28.4513Z" fill="white"/>
<path d="M76.5928 51.1263C75.2761 51.1263 74.2087 50.0592 74.2087 48.7423V46.1535C74.2087 44.8366 75.2761 43.7695 76.5928 43.7695C77.9094 43.7695 78.9768 44.8366 78.9768 46.1535V48.7423C78.9768 50.0589 77.9094 51.1263 76.5928 51.1263Z" fill="white"/>
<path d="M52.3286 49.6428C51.012 49.6428 49.9446 48.5757 49.9446 47.2588V46.1535C49.9446 44.8366 51.012 43.7695 52.3286 43.7695C53.6452 43.7695 54.7126 44.8366 54.7126 46.1535V47.2588C54.7126 48.5754 53.6452 49.6428 52.3286 49.6428Z" fill="white"/>
<path d="M28.249 48.5376C29.5657 48.5376 30.633 47.4702 30.633 46.1535C30.633 44.8369 29.5657 43.7695 28.249 43.7695C26.9324 43.7695 25.865 44.8369 25.865 46.1535C25.865 47.4702 26.9324 48.5376 28.249 48.5376Z" fill="white"/>
<path d="M99.9219 87.1641L92.1013 57.3582V2.38402C92.1013 1.06709 91.0339 0 89.7173 0H10.2822C8.96558 0 7.89818 1.06709 7.89818 2.38402V47.9318L0.15044 68.6931C-0.0949544 69.3504 -0.0380552 70.0831 0.305879 70.695C0.649813 71.3069 1.24614 71.7357 1.93528 71.8679L7.89786 73.0104V125.889C7.89786 127.206 8.96526 128.273 10.2819 128.273H89.7173C91.0339 128.273 92.1013 127.206 92.1013 125.889V89.1403L97.1672 90.1108C97.3166 90.1394 97.4667 90.1534 97.6157 90.1534C98.2693 90.1534 98.9021 89.8841 99.3573 89.3975C99.9165 88.7989 100.13 87.9559 99.9219 87.1641ZM87.3333 4.76803V54.9834L84.4884 54.6503V40.0709C84.4884 38.7539 83.421 37.6869 82.1044 37.6869H66.3699C65.0532 37.6869 63.9858 38.7539 63.9858 40.0709V52.2491L60.2509 51.8117V40.0709C60.2509 38.7539 59.1835 37.6869 57.8669 37.6869H42.1323C40.8157 37.6869 39.7483 38.7539 39.7483 40.0709V49.4102L36.0134 48.9728V40.0709C36.0134 38.7539 34.946 37.6869 33.6294 37.6869H17.898C16.5814 37.6869 15.514 38.7539 15.514 40.0709V46.5716L12.6659 46.2379V4.76803H87.3333ZM79.7204 54.0918L68.7539 52.8072V42.4549H79.7204V54.0918ZM55.4828 51.2529L44.5164 49.9684V42.4546H55.4828V51.2529ZM31.2453 48.4143L20.282 47.1301V42.4549H31.2453V48.4143ZM87.3333 123.505H12.6662V73.9239L87.3336 88.2271V123.505H87.3333ZM5.60412 67.7163L11.863 50.9445L87.8235 59.8411L94.35 84.7159L5.60412 67.7163Z" fill="#333333"/>
<path d="M17.8967 34.7617H33.6306C34.9472 34.7617 36.0146 33.6946 36.0146 32.3777V9.49242C36.0146 8.17548 34.9472 7.1084 33.6306 7.1084H17.8967C16.5801 7.1084 15.5127 8.17548 15.5127 9.49242V32.3777C15.5127 33.6946 16.5801 34.7617 17.8967 34.7617ZM20.2807 11.8764H31.2466V29.9937H20.2807V11.8764Z" fill="#333333"/>
<path d="M42.133 34.7617H57.8669C59.1835 34.7617 60.2509 33.6946 60.2509 32.3777V9.49242C60.2509 8.17548 59.1835 7.1084 57.8669 7.1084H42.133C40.8164 7.1084 39.749 8.17548 39.749 9.49242V32.3777C39.749 33.6946 40.8164 34.7617 42.133 34.7617ZM44.5171 11.8764H55.4829V29.9937H44.5171V11.8764Z" fill="#333333"/>
<path d="M66.3691 34.7617H82.103C83.4196 34.7617 84.487 33.6946 84.487 32.3777V9.49242C84.487 8.17548 83.4196 7.1084 82.103 7.1084H66.3691C65.0525 7.1084 63.9851 8.17548 63.9851 9.49242V32.3777C63.9851 33.6946 65.0525 34.7617 66.3691 34.7617ZM68.7531 11.8764H79.719V29.9937H68.7531V11.8764Z" fill="#333333"/>
</svg>
