<svg width="226" height="216" viewBox="0 0 226 216" fill="none" xmlns="http://www.w3.org/2000/svg">
<path d="M165.644 180.615C165.619 180.336 165.57 180.056 165.397 179.814L165.347 179.735L165.224 179.59L165.15 179.496L165.002 179.362C164.433 178.91 163.668 178.801 162.976 179.177C162.432 179.468 161.889 179.762 161.37 180.069C160.703 180.429 160.308 181.348 160.53 182.082C160.802 182.87 161.444 183.322 162.259 183.389C163.544 183.495 164.779 182.749 165.421 181.655C165.57 181.415 165.619 181.136 165.644 180.854V180.748V180.615" fill="#6F3108"/>
<path d="M181.517 20.3893C125.699 -17.7851 60.6911 4.04226 30.3831 33.6954C7.79168 55.7766 -2.81856 99.2155 4.08578 130.044C14.4677 176.709 45.3596 195.27 55.97 200.562C114.175 229.697 177.354 211.883 204.565 178.324C222.08 156.681 250.18 67.3617 181.517 20.3893Z" fill="#C16D49"/>
<path d="M204.051 124.35C203.276 122.484 200.975 121.456 199.074 122.296C195.498 123.882 192.622 126.791 191.272 130.497C190.072 133.79 193.048 136.444 196.224 135.496C199.375 134.563 202.101 132.575 204.151 130.029C205.177 128.749 205.152 126.923 204.301 125.603C204.276 125.175 204.226 124.762 204.051 124.35Z" fill="#6F3108"/>
<path d="M93.6893 50.5079L93.5349 50.4598L93.6893 50.5079ZM102.688 49.901C103.413 49.5588 104.091 48.8237 104.626 48.1071C105.156 47.5149 105.626 46.904 105.918 46.1748C106.162 45.62 106.329 44.9782 106.479 44.2677L106.539 43.9709C106.592 43.6722 106.587 43.3551 106.587 43.0398L106.618 42.6075C106.624 42.3571 106.589 42.0311 106.583 41.714C106.362 38.4279 104.674 35.1897 101.308 34.0163C96.9029 32.5196 93.0606 32.2076 88.5573 33.2667C84.9748 34.1076 81.8955 36.2404 79.4332 38.8177C76.9233 41.4432 76.763 45.7463 78.4218 48.8488C80.2878 52.3943 83.6833 53.7031 87.5554 53.8986C92.9954 54.0772 98.0164 52.3586 102.688 49.901" fill="#6F3108"/>
<path d="M180.676 97.829L180.651 97.7222L180.676 97.829ZM184.094 102.892C184.54 103.2 185.196 103.346 185.794 103.415C186.317 103.523 186.831 103.59 187.353 103.512C187.757 103.466 188.186 103.344 188.648 103.189L188.84 103.123C189.032 103.053 189.213 102.941 189.396 102.834L189.657 102.704C189.804 102.622 189.98 102.49 190.162 102.379C191.989 101.127 193.288 99.0331 192.82 96.6611C192.185 93.5703 191.056 91.2134 188.908 88.9373C187.2 87.1262 184.915 86.0508 182.584 85.4885C180.208 84.9148 177.662 86.2899 176.432 88.3206C175.015 90.6239 175.415 93.0594 176.622 95.3939C178.373 98.6411 181.079 100.995 184.094 102.892" fill="#6F3108"/>
<path d="M126.976 15.5359L127.001 15.5483C126.431 15.6548 126.828 15.4814 126.976 15.5359ZM136.315 12.8037C135.646 10.7354 134.432 8.77607 132.351 7.92149C130.94 7.3493 129.305 7.38889 127.917 8.00319C125.787 7.61678 123.731 8.16172 122.691 10.6016C121.576 13.1752 123.286 15.8703 125.713 16.8289C127.744 17.6413 130.122 17.9634 132.302 18.0154C135.274 18.1095 137.256 15.7216 136.315 12.8037" fill="#483434"/>
<path d="M43.8555 161.88L43.8281 161.876C44.3301 161.587 44.0138 161.882 43.8555 161.88ZM35.954 167.558C37.2716 169.287 39.067 170.732 41.3134 170.847C42.8352 170.918 44.3642 170.338 45.4687 169.298C47.6064 168.955 49.3647 167.758 49.5359 165.111C49.7328 162.314 47.2258 160.339 44.6177 160.241C42.432 160.149 40.0821 160.635 38.0088 161.309C35.1737 162.207 34.0973 165.118 35.954 167.558" fill="#6F3108"/>
<path d="M57.1132 18.1072C53.8284 18.5246 50.4959 19.8887 47.6396 21.8025C44.1644 24.1642 41.356 28.8877 44.1171 33.1073C46.4974 36.6906 51.2579 37.5508 55.0663 37.0214C60.5884 36.2732 73.4414 30.3027 70.3947 22.3572C68.1096 16.4732 62.1593 16.0814 57.1132 18.1072" fill="#483434"/>
<path d="M185.726 43.4159C185.844 39.4422 182.094 35.6696 178.851 33.1272C176.313 28.751 169.852 30.6697 169.028 35.2946C168.279 39.5122 172.009 44.349 175.049 46.8589C176.872 48.3253 179.217 49.2191 181.529 48.5243C183.765 47.8444 185.663 45.8209 185.726 43.4159" fill="#483434"/>
<path d="M63.7998 182.531C60.8789 180.182 57.8346 178.219 54.6514 176.689C52.5692 175.685 50.4952 175.274 48.9307 177.199C47.27 179.285 47.6549 182.224 48.9263 184.913L48.9703 184.982C49.1597 185.43 49.3538 185.899 49.6298 186.37C53.3057 192.182 59.2832 194.863 64.1969 192.468C67.5557 190.803 67.0046 185.047 63.7998 182.531" fill="#483434"/>
<path d="M173.343 188.072C172.553 186.539 171.268 185.19 169.687 184.252C166.081 182.221 162.031 182.821 158.722 184.9C155.066 185.761 151.608 187.478 148.94 190.002C146.767 192.105 145.384 194.653 146.273 197.801C147.212 200.896 149.435 202.404 152.497 203.212C159.314 205.03 168.452 202.767 172.651 196.945C173.639 195.852 174.38 194.474 174.578 193.067C174.825 191.172 174.331 189.479 173.343 188.072Z" fill="#6F3108"/>
<path d="M46.5755 51.0454C44.4818 50.8819 41.9302 51.1388 40.0329 52.1668C37.8084 52.5874 36.0419 53.1657 34.1445 54.2872C29.761 56.9215 27.7987 62.2894 29.7615 66.6936C31.3972 70.1982 35.0606 72.447 39.1825 73.0253C43.566 73.6035 47.7533 71.5767 49.9778 68.3349C50.4357 68.0779 50.8939 67.7859 51.4173 67.4003C53.38 65.6013 54.8848 63.9599 55.3428 61.3256C55.6699 59.106 55.0159 56.3141 53.3149 54.5793C51.6138 52.7452 49.3234 51.2674 46.5755 51.0454Z" fill="#483434"/>
<path d="M142.547 60.923L142.315 60.865C141.944 60.6961 141.573 60.5271 141.248 60.3529C140.969 60.1259 140.691 59.9305 140.413 59.6718C137.536 57.0056 132.663 57.5705 130.482 61.0656C128.162 64.6979 128.579 69.5498 131.642 72.3902C134.241 74.8294 137.35 76.3077 140.645 76.9307C144.311 77.6118 148.302 74.2645 148.626 70.0038C148.998 65.5479 146.491 61.6621 142.547 60.923" fill="#483434"/>
<path d="M184.477 58.0176C182.443 57.8293 180.485 59.1499 180.209 61.2563C180.134 61.6981 180.083 62.1224 180.033 62.5643C179.757 64.5226 181.238 66.644 183.272 66.8298C185.331 67.0156 187.264 65.6975 187.54 63.5911C187.615 63.1493 187.665 62.7225 187.716 62.2831C187.992 60.3223 186.536 58.2034 184.477 58.0176Z" fill="#6F3108"/>
<path d="M176.158 152.252C175.708 155.637 169.263 157.546 161.743 156.517C154.249 155.492 148.553 151.917 149.028 148.545C149.477 145.157 155.948 143.251 163.442 144.278C170.937 145.305 176.632 148.877 176.158 152.252Z" fill="#F7AC9B"/>
<path d="M47.1699 130.249C46.7098 133.637 40.2446 135.542 32.7625 134.516C25.2803 133.491 19.5659 129.917 20.0259 126.544C20.486 123.157 26.927 121.251 34.4334 122.278C41.9397 123.302 47.63 126.876 47.1699 130.249Z" fill="#F7AC9B"/>
<path d="M105.412 161.618C105.755 161.672 106.075 161.832 106.32 162.112C106.836 162.726 106.762 163.647 106.173 164.165C106.025 164.285 102.759 167.045 98.7318 166.552C96.2514 166.26 94.0658 164.833 92.2731 162.298C91.8065 161.645 91.9538 160.739 92.5923 160.272C93.2554 159.806 94.164 159.953 94.6306 160.606C95.9321 162.446 97.4303 163.445 99.0757 163.671C101.802 164.005 104.233 161.979 104.257 161.967C104.601 161.687 105.019 161.567 105.412 161.618" fill="#231F20"/>
<path d="M126.763 123.277C125.429 132.941 132.199 141.856 141.866 143.177C151.533 144.502 160.451 137.729 161.753 128.065C163.088 118.405 156.317 109.489 146.65 108.165C136.983 106.843 128.065 113.617 126.763 123.277Z" fill="white"/>
<path d="M47.1678 109.277C45.8333 118.941 52.6033 127.856 62.2702 129.177C71.9371 130.502 80.8556 123.729 82.1576 114.065C83.4921 104.405 76.7218 95.4895 67.0549 94.1647C57.388 92.8433 48.4698 99.6166 47.1678 109.277Z" fill="white"/>
<circle cx="62" cy="115" r="9" fill="#070707"/>
<path d="M64.6781 116.152C63.9907 116.444 63.3584 116.928 62.8536 117.496C62.2378 118.188 61.9107 119.318 62.7589 119.995C63.481 120.569 64.5615 120.448 65.3532 120.101C66.4982 119.599 68.9218 117.587 67.7942 116.176C66.9525 115.132 65.6534 115.425 64.6781 116.152" fill="white"/>
<circle cx="140" cy="128" r="9" fill="#070707"/>
<path d="M142.678 129.152C141.991 129.444 141.358 129.928 140.854 130.496C140.238 131.188 139.911 132.318 140.759 132.995C141.481 133.569 142.562 133.448 143.353 133.101C144.498 132.599 146.922 130.587 145.794 129.176C144.953 128.132 143.653 128.425 142.678 129.152" fill="white"/>
<path d="M11.5 50.5C13.5 52.9 7.66664 56.8334 4.49997 58.5C-2.50003 58.5 0.49997 44 4.49997 43.5C8.49997 43 8.99997 47.5 11.5 50.5Z" fill="#C16D49"/>
<path d="M201.408 196.757C201.599 199.436 198.79 197.873 197.361 196.757C196.885 199.388 196.504 205.224 198.79 207.52C201.646 210.39 214.263 199.627 211.645 195.322C209.026 191.017 201.17 193.409 201.408 196.757Z" fill="#C16D49"/>
<path d="M219 182.143C218.955 181.616 218.864 181.089 218.545 180.632L218.454 180.483L218.227 180.208L218.09 180.031L217.817 179.779C216.771 178.926 215.361 178.72 214.087 179.429C213.086 179.979 212.085 180.534 211.13 181.113C209.901 181.794 209.173 183.528 209.583 184.913C210.083 186.401 211.266 187.254 212.767 187.38C215.133 187.58 217.408 186.172 218.59 184.106C218.863 183.654 218.955 183.127 219 182.596V182.395V182.143" fill="#C16D49"/>
</svg>
