<svg width="232" height="216" viewBox="0 0 232 216" fill="none" xmlns="http://www.w3.org/2000/svg">
    <path
        d="M229.902 214.099C221.103 215.731 151.585 214.779 117.925 214.099C102.928 213.822 110.426 205.942 158.916 205.067C207.406 204.193 240.899 212.06 229.902 214.099Z"
        fill="#39A2DB" fill-opacity="0.4" />
    <path fill-rule="evenodd" clip-rule="evenodd"
        d="M149.415 9.81828C148.547 8.45313 148.504 6.92112 148.964 5.3746C116.522 -4.96851 83.6542 0.708407 58.1616 13.132C58.7038 14.6482 59.0001 16.2882 59.0001 18C59.0001 19.5939 58.7432 21.1257 58.27 22.5532C63.8912 24.2451 68.0001 29.6249 68.0001 36C68.0001 42.1011 64.2368 47.2906 58.9861 49.2084C58.9954 49.4712 59.0001 49.7351 59.0001 50C59.0001 62.7025 48.2549 73 35.0001 73C28.7264 73 23.0149 70.6931 18.739 66.9162C16.589 71.6912 11.9171 75 6.50006 75C6.06046 75 5.62577 74.9782 5.19694 74.9356C-0.288603 93.4466 -1.60811 113.55 2.08584 130.044C12.4677 176.709 43.3597 195.27 53.97 200.562C112.175 229.697 175.354 211.883 202.565 178.323C215.194 162.719 233.326 111.929 216.72 67.1978C216.203 67.5839 215.691 67.86 215.185 68.0151C206.633 70.6349 202.916 62.5747 202.127 58.2172C200.728 59.5032 196.024 61.3496 188.399 58.4467C180.775 55.5438 179.755 47.5308 180.198 43.8872C175.181 45.5797 163.523 47.1709 157.022 39.995C150.521 32.8191 154.991 20.8947 158.039 15.8296C156.367 15.7179 152.303 14.3593 149.415 9.81828Z"
        fill="#C16D49" />
    <path
        d="M118.051 97.3497C117.276 95.484 114.975 94.4562 113.074 95.2965C109.498 96.882 106.622 99.7905 105.272 103.497C104.072 106.79 107.048 109.444 110.224 108.496C113.375 107.563 116.101 105.575 118.151 103.029C119.177 101.749 119.152 99.9231 118.301 98.6026C118.276 98.175 118.226 97.7623 118.051 97.3497Z"
        fill="#6F3108" />
    <path
        d="M88.6891 58.5079L88.5348 58.4598L88.6891 58.5079ZM97.6877 57.901C98.4128 57.5588 99.0909 56.8237 99.6264 56.1071C100.156 55.5149 100.626 54.904 100.918 54.1748C101.162 53.62 101.329 52.9782 101.479 52.2677L101.538 51.9709C101.592 51.6722 101.587 51.3551 101.587 51.0398L101.617 50.6075C101.624 50.3571 101.588 50.0311 101.583 49.714C101.362 46.4279 99.6735 43.1897 96.3076 42.0163C91.9028 40.5196 88.0605 40.2076 83.5571 41.2667C79.9747 42.1076 76.8953 44.2404 74.433 46.8177C71.9232 49.4432 71.7629 53.7463 73.4216 56.8488C75.2877 60.3943 78.6832 61.7031 82.5552 61.8986C87.9953 62.0772 93.0162 60.3586 97.6877 57.901"
        fill="#6F3108" />
    <path
        d="M176.382 87.5248L176.357 87.418L176.382 87.5248ZM179.801 92.588C180.246 92.8959 180.903 93.0421 181.5 93.1111C182.024 93.2189 182.538 93.2857 183.059 93.2078C183.464 93.1615 183.892 93.0402 184.355 92.8852L184.547 92.8189C184.738 92.7485 184.92 92.637 185.103 92.5296L185.363 92.3998C185.51 92.318 185.687 92.186 185.869 92.0745C187.696 90.8231 188.995 88.7289 188.527 86.3569C187.892 83.2661 186.763 80.9092 184.614 78.6331C182.906 76.822 180.622 75.7466 178.29 75.1843C175.915 74.6106 173.369 75.9857 172.138 78.0164C170.722 80.3197 171.121 82.7552 172.328 85.0897C174.079 88.3369 176.786 90.691 179.801 92.588"
        fill="#6F3108" />
    <path
        d="M169.633 188.02L169.658 188.032C169.088 188.139 169.485 187.965 169.633 188.02ZM178.972 185.288C178.303 183.219 177.089 181.26 175.009 180.405C173.597 179.833 171.962 179.873 170.575 180.487C168.444 180.101 166.389 180.646 165.348 183.085C164.234 185.659 165.943 188.354 168.37 189.313C170.401 190.125 172.779 190.447 174.959 190.499C177.932 190.593 179.913 188.206 178.972 185.288"
        fill="#483434" />
    <path
        d="M65.8556 181.88L65.8282 181.876C66.3303 181.587 66.0139 181.882 65.8556 181.88ZM57.9541 187.558C59.2717 189.287 61.0671 190.732 63.3135 190.847C64.8353 190.918 66.3644 190.338 67.4688 189.298C69.6065 188.955 71.3648 187.758 71.536 185.111C71.733 182.314 69.2259 180.339 66.6178 180.241C64.4321 180.149 62.0823 180.635 60.0089 181.309C57.1738 182.207 56.0974 185.118 57.9541 187.558"
        fill="#6F3108" />
    <path
        d="M125.928 13.0459C122.78 12.0205 119.184 11.8307 115.784 12.3414C111.633 12.9927 107.076 16.0643 107.771 21.059C108.393 25.3156 112.33 28.1265 116 29.2743C121.312 30.9561 135.484 31.0467 136.123 22.5611C136.569 16.2648 131.356 13.3693 125.928 13.0459"
        fill="#483434" />
    <path
        d="M213.081 81.5307C210.16 79.1821 207.116 77.2191 203.933 75.6892C201.851 74.685 199.777 74.2743 198.212 76.199C196.551 78.2848 196.936 81.2239 198.208 83.9127L198.252 83.982C198.441 84.4301 198.635 84.8988 198.911 85.3696C202.587 91.1816 208.565 93.8634 213.478 91.4678C216.837 89.8035 216.286 84.0467 213.081 81.5307"
        fill="#483434" />
    <path
        d="M192.523 157.398C191.537 155.983 190.085 154.816 188.395 154.095C184.552 152.558 180.616 153.688 177.611 156.186C174.101 157.522 170.9 159.681 168.589 162.535C166.713 164.908 165.679 167.616 166.976 170.619C168.316 173.562 170.718 174.764 173.861 175.16C180.858 176.061 189.617 172.61 193.01 166.285C193.845 165.071 194.397 163.607 194.407 162.186C194.402 160.274 193.688 158.662 192.523 157.398Z"
        fill="#6F3108" />
    <path
        d="M50.5755 84.0454C48.4818 83.8819 45.9302 84.1388 44.0329 85.1668C41.8084 85.5874 40.0419 86.1657 38.1445 87.2872C33.761 89.9215 31.7987 95.2894 33.7615 99.6936C35.3972 103.198 39.0606 105.447 43.1825 106.025C47.566 106.604 51.7533 104.577 53.9778 101.335C54.4357 101.078 54.8939 100.786 55.4173 100.4C57.38 98.6013 58.8848 96.9599 59.3428 94.3256C59.6699 92.106 59.0159 89.3141 57.3149 87.5793C55.6138 85.7452 53.3234 84.2674 50.5755 84.0454Z"
        fill="#483434" />
    <path
        d="M43.5471 167.923L43.315 167.865C42.9438 167.696 42.5727 167.527 42.2478 167.353C41.9694 167.126 41.6911 166.931 41.4126 166.672C38.5355 164.006 33.6629 164.57 31.4819 168.066C29.1616 171.698 29.5793 176.55 32.642 179.39C35.2406 181.829 38.3499 183.308 41.6447 183.931C45.3106 184.612 49.3015 181.264 49.6263 177.004C49.9976 172.548 47.4915 168.662 43.5471 167.923"
        fill="#483434" />
    <path
        d="M137.477 37.0179C135.443 36.8296 133.485 38.1501 133.209 40.2565C133.134 40.6984 133.083 41.1227 133.033 41.5645C132.757 43.5228 134.238 45.6442 136.272 45.83C138.331 46.0158 140.264 44.6977 140.54 42.5914C140.615 42.1495 140.665 41.7227 140.716 41.2834C140.992 39.3226 139.536 37.2037 137.477 37.0179Z"
        fill="#6F3108" />
    <path d="M184.5 115L132 123C137.5 139 149.563 150.016 166.5 145.5C181.5 141.5 184.333 124.833 184.5 115Z"
        fill="white" stroke="white" stroke-width="3" stroke-linejoin="round" />
    <path d="M25.5 54.5V60L9 47.5C9.4 40.7 14.1667 35.6667 16.5 34L25.5 54.5Z" fill="#C16D49" />
    <path
        d="M96.4085 184.957C97.5443 182.356 100.763 178.228 104.552 182.522C109.289 187.89 115.131 188.23 118.914 188.665"
        stroke="black" stroke-width="4" stroke-linecap="round" stroke-linejoin="round" />
    <path
        d="M200.532 45.1432C200.486 44.6163 200.395 44.0894 200.077 43.6324L199.986 43.4831L199.758 43.2081L199.622 43.0308L199.349 42.779C198.303 41.9256 196.893 41.7204 195.619 42.4292C194.618 42.9795 193.617 43.5345 192.662 44.1127C191.433 44.7935 190.705 46.5282 191.115 47.9131C191.615 49.4007 192.798 50.254 194.299 50.3799C196.665 50.5805 198.94 49.1722 200.122 47.1064C200.395 46.6541 200.486 46.1271 200.532 45.5955V45.3951V45.1432"
        fill="#C16D49" />
    <path
        d="M33 44.6341C33.0286 43.3543 33.0859 42.0745 33.2864 40.9646L33.3437 40.6021L33.4869 39.9341L33.5727 39.5036L33.7444 38.8919C34.4031 36.8193 35.2909 36.321 36.0927 38.0425C36.7227 39.3789 37.3527 40.7268 37.9541 42.1312C38.7273 43.7847 39.1856 47.9978 38.9279 51.3615C38.6129 54.9744 37.8683 57.047 36.9233 57.3528C35.4342 57.8398 34.0024 54.4195 33.2578 49.4022C33.086 48.3036 33.0286 47.0238 33 45.7327V45.2458V44.6341"
        fill="#C16D49" />
    <g style="mix-blend-mode:multiply">
        <path
            d="M190.057 59.0194C200.794 84.2971 205.261 112.125 194.931 138.154C177.073 183.149 133.01 203.944 97.6373 214.061C141.343 219.876 182.113 203.547 202.565 178.323C215.194 162.719 233.326 111.929 216.72 67.1978C216.203 67.5839 215.691 67.86 215.185 68.0151C206.633 70.6349 202.916 62.5747 202.127 58.2172C200.832 59.4072 196.708 61.0771 190.057 59.0194Z"
            fill="#D5BEB5" fill-opacity="0.6" />
    </g>
    <g style="mix-blend-mode:multiply">
        <path
            d="M58.5 147.5C58.0645 147.113 57.7883 146.548 57.6716 145.846C58.9879 146.522 60.427 147.081 61.9999 147.5C78.9366 152.016 90.9999 141 96.4999 125L87.9802 123.702C90.6435 123.564 93.4832 123.648 96.5 124C97.5458 124.196 98.6686 124.349 99.8057 124.505C107.367 125.538 115.562 126.657 106 141C95 157.5 63 151.5 58.5 147.5Z"
            fill="#D5BEB5" fill-opacity="0.6" />
    </g>
    <path d="M44 117L96.5 125C91 141 78.9367 152.016 62 147.5C47 143.5 44.1667 126.833 44 117Z" fill="white"
        stroke="white" stroke-width="3" stroke-linejoin="round" />
    <path fill-rule="evenodd" clip-rule="evenodd"
        d="M59 118C59.6194 125.715 66.0767 131.783 73.9513 131.783C80.2501 131.783 85.6421 127.901 87.8649 122.398L59 118Z"
        fill="black" />
    <path
        d="M79.5582 123.805C79.1686 123.166 78.0124 122.814 77.0574 123.102C75.2603 123.645 73.8153 124.641 73.1367 125.911C72.5335 127.039 74.0289 127.949 75.6248 127.624C77.2082 127.304 78.578 126.623 79.6085 125.751C80.1237 125.312 80.1111 124.687 79.6838 124.234C79.6713 124.088 79.6461 123.946 79.5582 123.805Z"
        fill="white" />
    <path fill-rule="evenodd" clip-rule="evenodd"
        d="M169.951 116.217C169.332 123.932 162.875 130 155 130C148.701 130 143.309 126.118 141.086 120.616L169.951 116.217Z"
        fill="black" />
    <path
        d="M162.558 122.805C162.169 122.166 161.012 121.814 160.057 122.102C158.26 122.645 156.815 123.641 156.137 124.911C155.533 126.039 157.029 126.949 158.625 126.624C160.208 126.304 161.578 125.623 162.608 124.751C163.124 124.312 163.111 123.687 162.684 123.234C162.671 123.088 162.646 122.946 162.558 122.805Z"
        fill="white" />
</svg>