<svg viewBox="0 0 224 216" fill="none" xmlns="http://www.w3.org/2000/svg">
<path fill-rule="evenodd" clip-rule="evenodd" d="M149.415 9.81831C148.547 8.45317 148.504 6.92116 148.964 5.37464C116.522 -4.96847 83.6542 0.708441 58.1615 13.1321C58.7038 14.6482 59 16.2882 59 18C59 19.594 58.7432 21.1257 58.27 22.5532C63.8911 24.2451 68 29.625 68 36C68 42.1011 64.2368 47.2908 58.9861 49.2085C58.9954 49.4712 59 49.7351 59 50C59 62.7026 48.2549 73 35 73C28.7263 73 23.0146 70.6931 18.7388 66.9163C16.5889 71.6912 11.917 75 6.5 75C6.0604 75 5.62571 74.9782 5.19688 74.9356C-0.288664 93.4467 -1.60817 113.55 2.08578 130.044C12.4677 176.709 43.3596 195.27 53.97 200.562C112.175 229.697 175.354 211.883 202.565 178.324C215.194 162.719 233.326 111.929 216.72 67.1978C216.203 67.5839 215.691 67.8601 215.185 68.0152C206.633 70.6349 202.916 62.5747 202.127 58.2172C200.728 59.5032 196.024 61.3496 188.399 58.4467C180.775 55.5438 179.755 47.5308 180.198 43.8872C175.181 45.5797 163.523 47.1709 157.022 39.995C150.521 32.8191 154.991 20.8948 158.039 15.8296C156.367 15.7179 152.303 14.3593 149.415 9.81831Z" fill="#C16D49"/>
<path d="M118.051 98.3497C117.276 96.484 114.975 95.4562 113.074 96.2965C109.498 97.882 106.622 100.791 105.272 104.497C104.072 107.79 107.048 110.444 110.224 109.496C113.375 108.563 116.101 106.575 118.151 104.029C119.177 102.749 119.152 100.923 118.301 99.6026C118.276 99.175 118.226 98.7623 118.051 98.3497Z" fill="#6F3108"/>
<path d="M88.6891 58.5079L88.5348 58.4598L88.6891 58.5079ZM97.6877 57.901C98.4128 57.5588 99.0909 56.8237 99.6264 56.1071C100.156 55.5149 100.626 54.904 100.918 54.1748C101.162 53.62 101.329 52.9782 101.479 52.2677L101.538 51.9709C101.592 51.6722 101.587 51.3551 101.587 51.0398L101.617 50.6075C101.624 50.3571 101.588 50.0311 101.583 49.714C101.362 46.4279 99.6735 43.1897 96.3076 42.0163C91.9028 40.5196 88.0605 40.2076 83.5571 41.2667C79.9747 42.1076 76.8953 44.2404 74.433 46.8177C71.9232 49.4432 71.7629 53.7463 73.4216 56.8488C75.2877 60.3943 78.6832 61.7031 82.5552 61.8986C87.9953 62.0772 93.0162 60.3586 97.6877 57.901" fill="#6F3108"/>
<path d="M176.382 88.5248L176.357 88.418L176.382 88.5248ZM179.801 93.588C180.246 93.8959 180.903 94.0421 181.5 94.1111C182.024 94.2189 182.538 94.2857 183.059 94.2078C183.464 94.1615 183.892 94.0402 184.355 93.8852L184.547 93.8189C184.738 93.7485 184.92 93.637 185.103 93.5296L185.363 93.3998C185.51 93.318 185.687 93.186 185.869 93.0745C187.696 91.8231 188.995 89.7289 188.527 87.3569C187.892 84.2661 186.763 81.9092 184.614 79.6331C182.906 77.822 180.622 76.7466 178.29 76.1843C175.915 75.6106 173.369 76.9857 172.138 79.0164C170.722 81.3197 171.121 83.7552 172.328 86.0897C174.079 89.3369 176.786 91.691 179.801 93.588" fill="#6F3108"/>
<path d="M169.633 189.02L169.658 189.032C169.088 189.139 169.485 188.965 169.633 189.02ZM178.972 186.288C178.303 184.219 177.089 182.26 175.009 181.405C173.597 180.833 171.962 180.873 170.575 181.487C168.444 181.101 166.389 181.646 165.348 184.085C164.234 186.659 165.943 189.354 168.37 190.313C170.401 191.125 172.779 191.447 174.959 191.499C177.932 191.593 179.913 189.206 178.972 186.288" fill="#483434"/>
<path d="M65.8556 182.88L65.8282 182.876C66.3303 182.587 66.0139 182.882 65.8556 182.88ZM57.9541 188.558C59.2717 190.287 61.0671 191.732 63.3135 191.847C64.8353 191.918 66.3644 191.338 67.4688 190.298C69.6065 189.955 71.3648 188.758 71.536 186.111C71.733 183.314 69.2259 181.339 66.6178 181.241C64.4321 181.149 62.0823 181.635 60.0089 182.309C57.1738 183.207 56.0974 186.118 57.9541 188.558" fill="#6F3108"/>
<path d="M125.928 14.0459C122.78 13.0205 119.184 12.8307 115.784 13.3414C111.633 13.9927 107.076 17.0643 107.771 22.059C108.393 26.3156 112.33 29.1265 116 30.2743C121.312 31.9561 135.484 32.0467 136.123 23.5611C136.569 17.2648 131.356 14.3693 125.928 14.0459" fill="#483434"/>
<path d="M213.081 82.5307C210.16 80.1821 207.116 78.2191 203.933 76.6892C201.851 75.685 199.777 75.2743 198.212 77.199C196.551 79.2848 196.936 82.2239 198.208 84.9127L198.252 84.982C198.441 85.4301 198.635 85.8988 198.911 86.3696C202.587 92.1816 208.565 94.8634 213.478 92.4678C216.837 90.8035 216.286 85.0467 213.081 82.5307" fill="#483434"/>
<path d="M192.523 158.398C191.537 156.983 190.085 155.816 188.395 155.095C184.552 153.558 180.616 154.688 177.611 157.186C174.101 158.522 170.9 160.681 168.589 163.535C166.713 165.908 165.679 168.616 166.976 171.619C168.316 174.562 170.718 175.764 173.861 176.16C180.858 177.061 189.617 173.61 193.01 167.285C193.845 166.071 194.397 164.607 194.407 163.186C194.402 161.274 193.688 159.662 192.523 158.398Z" fill="#6F3108"/>
<path d="M50.5755 85.0454C48.4818 84.8819 45.9302 85.1388 44.0329 86.1668C41.8084 86.5874 40.0419 87.1657 38.1445 88.2872C33.761 90.9215 31.7987 96.2894 33.7615 100.694C35.3972 104.198 39.0606 106.447 43.1825 107.025C47.566 107.604 51.7533 105.577 53.9778 102.335C54.4357 102.078 54.8939 101.786 55.4173 101.4C57.38 99.6013 58.8848 97.9599 59.3428 95.3256C59.6699 93.106 59.0159 90.3141 57.3149 88.5793C55.6138 86.7452 53.3234 85.2674 50.5755 85.0454Z" fill="#483434"/>
<path d="M43.5471 168.923L43.315 168.865C42.9438 168.696 42.5727 168.527 42.2478 168.353C41.9694 168.126 41.6911 167.931 41.4126 167.672C38.5355 165.006 33.6629 165.57 31.4819 169.066C29.1616 172.698 29.5793 177.55 32.642 180.39C35.2406 182.829 38.3499 184.308 41.6447 184.931C45.3106 185.612 49.3015 182.264 49.6263 178.004C49.9976 173.548 47.4915 169.662 43.5471 168.923" fill="#483434"/>
<path d="M137.477 38.0179C135.443 37.8296 133.485 39.1501 133.209 41.2565C133.134 41.6984 133.083 42.1227 133.033 42.5645C132.757 44.5228 134.238 46.6442 136.272 46.83C138.331 47.0158 140.264 45.6977 140.54 43.5914C140.615 43.1495 140.665 42.7227 140.716 42.2834C140.992 40.3226 139.536 38.2037 137.477 38.0179Z" fill="#6F3108"/>
<path d="M184.5 116L132 124C137.5 140 149.563 151.016 166.5 146.5C181.5 142.5 184.333 125.833 184.5 116Z" fill="white" stroke="white" stroke-width="3" stroke-linejoin="round"/>
<path fill-rule="evenodd" clip-rule="evenodd" d="M169.951 116.217C169.332 123.932 162.875 130 155 130C148.701 130 143.309 126.118 141.086 120.616L169.951 116.217Z" fill="black"/>
<path d="M44 118L96.5 126C91 142 78.9367 153.016 62 148.5C47 144.5 44.1667 127.833 44 118Z" fill="white" stroke="white" stroke-width="3" stroke-linejoin="round"/>
<path fill-rule="evenodd" clip-rule="evenodd" d="M58.5487 118.217C59.1681 125.932 65.6255 132 73.5 132C79.7988 132 85.1908 128.118 87.4136 122.616L58.5487 118.217Z" fill="black"/>
<path d="M25.5 54.5V60L9 47.5C9.4 40.7 14.1667 35.6667 16.5 34L25.5 54.5Z" fill="#C16D49"/>
<path d="M96.4085 185.957C97.5443 183.356 100.763 179.228 104.552 183.522C109.289 188.89 115.131 189.23 118.914 189.665" stroke="black" stroke-width="4" stroke-linecap="round" stroke-linejoin="round"/>
<path d="M200.532 46.1432C200.486 45.6163 200.395 45.0894 200.077 44.6324L199.986 44.4831L199.758 44.2081L199.622 44.0308L199.349 43.779C198.303 42.9256 196.893 42.7204 195.619 43.4292C194.618 43.9795 193.617 44.5345 192.662 45.1127C191.433 45.7935 190.705 47.5282 191.115 48.9131C191.615 50.4007 192.798 51.254 194.299 51.3799C196.665 51.5805 198.94 50.1722 200.122 48.1064C200.395 47.6541 200.486 47.1271 200.532 46.5955V46.3951V46.1432" fill="#C16D49"/>
<path d="M33 44.6341C33.0286 43.3543 33.0859 42.0745 33.2864 40.9646L33.3437 40.6021L33.4869 39.9341L33.5727 39.5036L33.7444 38.8919C34.4031 36.8193 35.2909 36.321 36.0927 38.0425C36.7227 39.3789 37.3527 40.7268 37.9541 42.1312C38.7273 43.7847 39.1856 47.9978 38.9279 51.3615C38.6129 54.9744 37.8683 57.047 36.9233 57.3528C35.4342 57.8398 34.0024 54.4195 33.2578 49.4022C33.086 48.3036 33.0286 47.0238 33 45.7327V45.2458V44.6341" fill="#C16D49"/>
<path d="M162.558 122.805C162.169 122.166 161.012 121.814 160.057 122.102C158.26 122.645 156.815 123.641 156.137 124.911C155.533 126.039 157.029 126.949 158.625 126.624C160.208 126.304 161.578 125.623 162.608 124.751C163.124 124.312 163.111 123.687 162.684 123.234C162.671 123.088 162.646 122.946 162.558 122.805Z" fill="white"/>
<path d="M79.5582 124.805C79.1686 124.166 78.0124 123.814 77.0574 124.102C75.2603 124.645 73.8153 125.641 73.1367 126.911C72.5335 128.039 74.0289 128.949 75.6248 128.624C77.2082 128.304 78.578 127.623 79.6085 126.751C80.1237 126.312 80.1111 125.687 79.6838 125.234C79.6713 125.088 79.6461 124.946 79.5582 124.805Z" fill="white"/>
</svg>
