<svg viewBox="0 0 243 215" fill="none" xmlns="http://www.w3.org/2000/svg">
    <path
        d="M239.151 24.8125C237.582 23.3553 232.089 21.0013 227.213 22.4585C218.806 24.3642 217.405 34.2286 218.189 36.1342C218.974 38.0398 219.142 37.1431 219.759 39.4971C220.375 41.8511 223.346 44.3732 226.092 45.8305C228.838 47.2877 232.482 46.2228 235.62 45.8305C238.759 45.4382 242.626 42.6918 242.963 36.1342C243.299 29.5766 241.281 30.081 240.496 28.848C239.712 27.6149 240.721 26.2698 239.151 24.8125Z"
        fill="#9F7665" />
    <path
        d="M236.334 40.741C236.167 40.3959 235.895 40.0922 235.561 39.881C234.799 39.4238 233.943 39.5588 233.243 40.0269C232.471 40.2206 231.74 40.6071 231.176 41.1753C230.717 41.6489 230.425 42.2226 230.612 42.9312C230.811 43.6279 231.281 43.9676 231.928 44.1494C233.369 44.5587 235.3 44.0492 236.187 42.7386C236.396 42.4925 236.553 42.1823 236.595 41.8655C236.647 41.4388 236.542 41.0578 236.334 40.741Z"
        fill="#97562C" />
    <path
        d="M236.334 40.741C236.167 40.3959 235.895 40.0922 235.561 39.881C234.799 39.4238 233.943 39.5588 233.243 40.0269C232.471 40.2206 231.74 40.6071 231.176 41.1753C230.717 41.6489 230.425 42.2226 230.612 42.9312C230.811 43.6279 231.281 43.9676 231.928 44.1494C233.369 44.5587 235.3 44.0492 236.187 42.7386C236.396 42.4925 236.553 42.1823 236.595 41.8655C236.647 41.4388 236.542 41.0578 236.334 40.741Z"
        fill="#97562C" />
    <path
        d="M236.334 40.741C236.167 40.3959 235.895 40.0922 235.561 39.881C234.799 39.4238 233.943 39.5588 233.243 40.0269C232.471 40.2206 231.74 40.6071 231.176 41.1753C230.717 41.6489 230.425 42.2226 230.612 42.9312C230.811 43.6279 231.281 43.9676 231.928 44.1494C233.369 44.5587 235.3 44.0492 236.187 42.7386C236.396 42.4925 236.553 42.1823 236.595 41.8655C236.647 41.4388 236.542 41.0578 236.334 40.741Z"
        fill="#97562C" />
    <path
        d="M239.222 34.0589C239.108 33.8361 238.922 33.64 238.693 33.5037C238.171 33.2085 237.584 33.2957 237.105 33.5979C236.576 33.7229 236.075 33.9724 235.689 34.3392C235.374 34.6449 235.174 35.0153 235.302 35.4728C235.438 35.9225 235.76 36.1418 236.204 36.2591C237.191 36.5234 238.514 36.1945 239.122 35.3484C239.265 35.1896 239.373 34.9893 239.401 34.7848C239.437 34.5093 239.365 34.2633 239.222 34.0589Z"
        fill="#97562C" />
    <path
        d="M222.224 33.6113C222.537 33.8068 222.89 33.9199 223.226 33.9297C223.977 33.9327 224.428 33.4199 224.579 32.7163C224.942 32.1963 225.163 31.5428 225.169 30.8237C225.168 30.2294 225.002 29.6346 224.456 29.1597C223.911 28.6993 223.413 28.6514 222.9 28.8133C221.756 29.1698 220.863 30.4896 221.105 31.9527C221.125 32.2473 221.215 32.5683 221.381 32.8401C221.607 33.2044 221.903 33.4581 222.224 33.6113Z"
        fill="#97562C" />
    <path
        d="M231.032 24.6982C230.588 24.67 230.047 24.7142 229.644 24.8913C229.172 24.9638 228.798 25.0634 228.395 25.2566C227.465 25.7104 227.049 26.6352 227.465 27.3939C227.812 27.9976 228.589 28.385 229.464 28.4847C230.393 28.5843 231.282 28.2351 231.753 27.6766C231.851 27.6324 231.948 27.5821 232.059 27.5156C232.475 27.2057 232.794 26.923 232.891 26.4691C232.961 26.0868 232.822 25.6058 232.461 25.3069C232.1 24.991 231.615 24.7364 231.032 24.6982Z"
        fill="#97562C" />
    <path
        d="M227.563 41.5083C227.439 41.495 227.287 41.516 227.175 41.6C227.042 41.6343 226.937 41.6816 226.825 41.7732C226.564 41.9884 226.448 42.4269 226.564 42.7867C226.662 43.073 226.879 43.2567 227.124 43.304C227.384 43.3512 227.633 43.1856 227.765 42.9208C227.792 42.8998 227.82 42.876 227.851 42.8445C227.967 42.6975 228.057 42.5634 228.084 42.3482C228.103 42.1669 228.064 41.9388 227.963 41.797C227.862 41.6472 227.726 41.5265 227.563 41.5083Z"
        fill="#97562C" />
    <path
        d="M238.039 29.3287C237.964 29.1405 237.82 28.9387 237.617 28.8395C237.468 28.6756 237.323 28.5603 237.108 28.4667C236.608 28.2533 235.9 28.4121 235.479 28.8466C235.147 29.1987 235.052 29.6473 235.169 30.0334C235.299 30.4419 235.721 30.6755 236.195 30.6681C236.245 30.6916 236.299 30.7128 236.367 30.734C236.663 30.792 236.92 30.8205 237.244 30.6996C237.515 30.5927 237.808 30.3675 237.933 30.1173C238.068 29.861 238.136 29.5762 238.039 29.3287Z"
        fill="#97562C" />
    <path
        d="M224.461 37.1364C224.292 37.1239 224.086 37.1436 223.934 37.2224C223.754 37.2546 223.612 37.2989 223.459 37.3849C223.106 37.5867 222.947 37.9981 223.106 38.3355C223.238 38.6041 223.533 38.7764 223.865 38.8207C224.218 38.865 224.556 38.7097 224.735 38.4613C224.772 38.4416 224.809 38.4192 224.851 38.3897C225.009 38.2518 225.131 38.1261 225.168 37.9242C225.194 37.7541 225.141 37.5402 225.004 37.4072C224.867 37.2667 224.682 37.1535 224.461 37.1364Z"
        fill="#97562C" />
    <path
        d="M230.66 31.649C230.314 31.6174 229.892 31.667 229.578 31.8656C229.21 31.9468 228.917 32.0586 228.603 32.2752C227.878 32.784 227.554 33.8209 227.878 34.6717C228.149 35.3486 228.755 35.783 229.437 35.8947C230.162 36.0064 230.855 35.6149 231.223 34.9887C231.299 34.9391 231.375 34.8826 231.461 34.8082C231.786 34.4607 232.035 34.1436 232.111 33.6348C232.165 33.206 232.056 32.6667 231.775 32.3316C231.494 31.9773 231.115 31.6919 230.66 31.649Z"
        fill="#97562C" />
    <path
        d="M18.6131 205.15C17.2321 206.433 12.3985 208.504 8.10753 207.222C0.709211 205.545 -0.523842 196.864 0.166668 195.187C0.857177 193.51 1.00514 194.3 1.54769 192.228C2.09023 190.157 4.7043 187.937 7.12108 186.655C9.53787 185.372 12.7438 186.309 15.5058 186.655C18.2679 187 21.6711 189.417 21.967 195.187C22.263 200.958 20.4874 200.514 19.7969 201.599C19.1064 202.684 19.9942 203.868 18.6131 205.15Z"
        fill="#9F7665" />
    <path
        d="M16.1336 191.133C15.9866 191.437 15.7477 191.704 15.4537 191.89C14.783 192.293 14.0297 192.174 13.4142 191.762C12.7343 191.591 12.0911 191.251 11.595 190.751C11.1908 190.334 10.9336 189.83 11.099 189.206C11.2735 188.593 11.6869 188.294 12.2565 188.134C13.5244 187.774 15.224 188.222 16.0049 189.375C16.1886 189.592 16.3265 189.865 16.3632 190.144C16.4092 190.519 16.3173 190.855 16.1336 191.133Z"
        fill="#97562C" />
    <path
        d="M16.1336 191.133C15.9866 191.437 15.7477 191.704 15.4537 191.89C14.783 192.293 14.0297 192.174 13.4142 191.762C12.7343 191.591 12.0911 191.251 11.595 190.751C11.1908 190.334 10.9336 189.83 11.099 189.206C11.2735 188.593 11.6869 188.294 12.2565 188.134C13.5244 187.774 15.224 188.222 16.0049 189.375C16.1886 189.592 16.3265 189.865 16.3632 190.144C16.4092 190.519 16.3173 190.855 16.1336 191.133Z"
        fill="#97562C" />
    <path
        d="M16.1336 191.133C15.9866 191.437 15.7477 191.704 15.4537 191.89C14.783 192.293 14.0297 192.174 13.4142 191.762C12.7343 191.591 12.0911 191.251 11.595 190.751C11.1908 190.334 10.9336 189.83 11.099 189.206C11.2735 188.593 11.6869 188.294 12.2565 188.134C13.5244 187.774 15.224 188.222 16.0049 189.375C16.1886 189.592 16.3265 189.865 16.3632 190.144C16.4092 190.519 16.3173 190.855 16.1336 191.133Z"
        fill="#97562C" />
    <path
        d="M18.6756 197.014C18.5749 197.21 18.4112 197.382 18.2098 197.502C17.7503 197.762 17.2341 197.685 16.8124 197.419C16.3465 197.309 15.9058 197.09 15.5659 196.767C15.2889 196.498 15.1127 196.172 15.226 195.769C15.3456 195.374 15.6289 195.181 16.0192 195.077C16.8879 194.845 18.0524 195.134 18.5875 195.879C18.7134 196.019 18.8078 196.195 18.833 196.375C18.8645 196.617 18.8015 196.834 18.6756 197.014Z"
        fill="#97562C" />
    <path
        d="M3.71753 197.408C3.9929 197.236 4.30339 197.136 4.59881 197.127C5.25965 197.125 5.6562 197.576 5.78952 198.195C6.10906 198.653 6.30309 199.228 6.30874 199.861C6.30774 200.384 6.16189 200.907 5.68128 201.325C5.20134 201.73 4.76318 201.772 4.31201 201.63C3.30529 201.316 2.51979 200.155 2.73275 198.867C2.74961 198.608 2.82926 198.325 2.97526 198.086C3.17416 197.766 3.43439 197.542 3.71753 197.408Z"
        fill="#97562C" />
    <path
        d="M11.468 205.251C11.0772 205.276 10.6009 205.237 10.2468 205.081C9.83159 205.017 9.50187 204.93 9.14772 204.76C8.32951 204.36 7.96325 203.546 8.32961 202.879C8.63491 202.348 9.31871 202.007 10.0881 201.919C10.9063 201.831 11.6878 202.139 12.1031 202.63C12.1885 202.669 12.274 202.713 12.3717 202.772C12.7381 203.044 13.019 203.293 13.1045 203.693C13.1655 204.029 13.0435 204.452 12.7259 204.715C12.4084 204.993 11.9809 205.217 11.468 205.251Z"
        fill="#97562C" />
    <path
        d="M8.41551 190.458C8.30609 190.47 8.17273 190.451 8.07357 190.378C7.95731 190.347 7.86499 190.306 7.76583 190.225C7.53673 190.036 7.43418 189.65 7.53676 189.333C7.62224 189.081 7.81371 188.92 8.02913 188.878C8.25823 188.836 8.47707 188.982 8.59332 189.215C8.61726 189.234 8.6412 189.255 8.66856 189.282C8.77114 189.412 8.84978 189.53 8.87372 189.719C8.89082 189.879 8.85664 190.079 8.76773 190.204C8.67883 190.336 8.55912 190.442 8.41551 190.458Z"
        fill="#97562C" />
    <path
        d="M17.6344 201.176C17.5685 201.342 17.4419 201.519 17.2626 201.607C17.1322 201.751 17.0039 201.852 16.8151 201.935C16.3747 202.123 15.7518 201.983 15.3815 201.6C15.0897 201.291 15.0055 200.896 15.1091 200.556C15.2231 200.197 15.5941 199.991 16.0112 199.997C16.0553 199.977 16.1031 199.958 16.1629 199.939C16.4231 199.888 16.6492 199.863 16.935 199.97C17.1734 200.064 17.4314 200.262 17.5407 200.482C17.6601 200.708 17.7201 200.958 17.6344 201.176Z"
        fill="#97562C" />
    <path
        d="M5.6856 194.305C5.5371 194.316 5.35612 194.299 5.22154 194.23C5.06376 194.201 4.93847 194.162 4.80389 194.087C4.49297 193.909 4.35379 193.547 4.49301 193.25C4.60902 193.014 4.86887 192.862 5.16122 192.823C5.47214 192.784 5.76914 192.921 5.92692 193.14C5.9594 193.157 5.99189 193.177 6.02902 193.203C6.16824 193.324 6.27497 193.435 6.30745 193.612C6.33066 193.762 6.28427 193.95 6.16361 194.067C6.04296 194.191 5.8805 194.29 5.6856 194.305Z"
        fill="#97562C" />
    <path
        d="M11.1409 199.134C10.836 199.162 10.4646 199.119 10.1883 198.944C9.86446 198.872 9.60727 198.774 9.33104 198.583C8.69284 198.136 8.40715 197.223 8.69291 196.474C8.93104 195.879 9.46441 195.496 10.0645 195.398C10.7027 195.3 11.3123 195.644 11.6362 196.195C11.7029 196.239 11.7696 196.289 11.8458 196.354C12.1315 196.66 12.3506 196.939 12.4173 197.387C12.4649 197.764 12.3697 198.239 12.122 198.534C11.8744 198.845 11.5409 199.097 11.1409 199.134Z"
        fill="#97562C" />
    <path
        d="M28.3425 204.84C27.6469 205.589 26.5233 208.211 27.2189 210.538C28.1285 214.551 32.1967 215.072 33.1063 214.698C34.0159 214.323 34.2283 214.391 35.352 214.097C36.4756 213.802 37.6795 212.384 38.3751 211.074C39.0707 209.763 38.5624 208.024 38.3751 206.525C38.1878 205.027 37.3709 203.207 33.7467 203.021C30.6166 202.86 30.4978 203.673 29.9092 204.047C29.3206 204.422 29.0381 204.091 28.3425 204.84Z"
        fill="#9F7665" />
    <path
        d="M34.5404 211.066C34.3676 211.006 34.1734 210.995 33.9894 211.037C33.5778 211.14 33.3345 211.474 33.2564 211.868C33.061 212.194 32.9448 212.571 32.9463 212.954C32.9511 213.268 33.046 213.561 33.3487 213.736C33.6508 213.905 33.924 213.861 34.2038 213.704C34.8282 213.356 35.3082 212.532 35.1653 211.79C35.1527 211.636 35.1009 211.479 35.0081 211.358C34.8817 211.196 34.7178 211.103 34.5404 211.066Z"
        fill="#97562C" />
    <path
        d="M37.9974 207.89C37.8756 207.826 37.7469 207.791 37.6323 207.792C37.3775 207.801 37.2659 207.985 37.2711 208.232C37.1898 208.417 37.1676 208.648 37.2232 208.898C37.2714 209.105 37.3754 209.31 37.5987 209.469C37.8207 209.622 37.9933 209.632 38.1541 209.569C38.5133 209.431 38.7098 208.96 38.5102 208.453C38.48 208.351 38.4235 208.24 38.3454 208.148C38.2395 208.024 38.1188 207.939 37.9974 207.89Z"
        fill="#97562C" />
    <path
        d="M32.1239 208.069C32.0401 208.232 32.002 208.423 32.0172 208.611C32.0612 209.033 32.3581 209.321 32.7373 209.454C33.0328 209.693 33.3898 209.861 33.7683 209.913C34.0807 209.953 34.3835 209.9 34.6001 209.625C34.8091 209.349 34.804 209.073 34.6878 208.774C34.4309 208.106 33.6828 207.515 32.9281 207.553C32.7744 207.543 32.6111 207.573 32.4782 207.647C32.3004 207.75 32.1849 207.899 32.1239 208.069Z"
        fill="#97562C" />
    <path
        d="M32.0304 204.122C31.871 204.263 31.7032 204.46 31.6272 204.656C31.4924 204.84 31.3995 205 31.3289 205.201C31.1683 205.668 31.3399 206.12 31.7365 206.236C32.0574 206.323 32.4504 206.191 32.7791 205.93C33.1266 205.649 33.3085 205.232 33.2792 204.884C33.2971 204.836 33.3129 204.787 33.328 204.727C33.3639 204.482 33.3762 204.278 33.2558 204.092C33.1501 203.94 32.941 203.824 32.7183 203.845C32.4899 203.86 32.24 203.938 32.0304 204.122Z"
        fill="#97562C" />
    <path
        d="M30.8046 212.232C30.7581 212.269 30.714 212.327 30.7043 212.394C30.6713 212.45 30.6519 212.501 30.6448 212.57C30.6295 212.731 30.7382 212.918 30.899 213C31.0284 213.064 31.1639 213.053 31.2624 212.986C31.3663 212.914 31.3943 212.774 31.3495 212.64C31.3516 212.624 31.3527 212.607 31.3526 212.586C31.3423 212.497 31.3272 212.421 31.2638 212.339C31.2091 212.272 31.119 212.208 31.0371 212.194C30.9524 212.178 30.8658 212.183 30.8046 212.232Z"
        fill="#97562C" />
    <path
        d="M35.1011 205.895C35.0259 205.955 34.9543 206.05 34.938 206.156C34.8842 206.247 34.8523 206.33 34.8401 206.441C34.8138 206.699 34.9864 207 35.2441 207.13C35.4516 207.231 35.6696 207.211 35.829 207.103C35.9968 206.986 36.0435 206.761 35.973 206.546C35.9766 206.519 35.9786 206.492 35.9786 206.458C35.9631 206.315 35.9397 206.193 35.8386 206.063C35.7514 205.954 35.6072 205.853 35.4756 205.831C35.3396 205.806 35.2001 205.815 35.1011 205.895Z"
        fill="#97562C" />
    <path
        d="M29.3297 210.106C29.2685 210.158 29.2057 210.235 29.1807 210.313C29.1311 210.384 29.098 210.447 29.0753 210.528C29.0242 210.715 29.1097 210.907 29.277 210.968C29.4121 211.014 29.57 210.973 29.697 210.875C29.8313 210.771 29.8927 210.605 29.8694 210.46C29.8752 210.441 29.8801 210.421 29.8844 210.397C29.8913 210.297 29.8898 210.214 29.8341 210.133C29.7856 210.067 29.6956 210.012 29.6044 210.014C29.5107 210.013 29.4102 210.037 29.3297 210.106Z"
        fill="#97562C" />
    <path
        d="M29.0624 206.749C28.9348 206.856 28.8091 207.015 28.7701 207.188C28.6733 207.339 28.6124 207.476 28.5796 207.655C28.5065 208.071 28.7469 208.531 29.1437 208.709C29.4635 208.846 29.8147 208.788 30.0826 208.595C30.3651 208.388 30.4667 208.022 30.3796 207.687C30.3884 207.644 30.395 207.6 30.3991 207.545C30.3914 207.318 30.3684 207.127 30.2222 206.93C30.0958 206.767 29.8772 206.622 29.6691 206.603C29.4545 206.579 29.2303 206.61 29.0624 206.749Z"
        fill="#97562C" />
    <path
        d="M211.238 3.06663C210.078 4.31513 208.205 8.68487 209.365 12.5641C210.881 19.2525 217.661 20.1204 219.177 19.4962C220.693 18.8719 221.047 18.985 222.92 18.4945C224.793 18.004 226.799 15.6408 227.959 13.4559C229.118 11.271 228.271 8.37275 227.959 5.87575C227.646 3.37875 226.285 0.344314 220.245 0.0345588C215.028 -0.232977 214.83 1.12091 213.849 1.74516C212.868 2.36941 212.397 1.81813 211.238 3.06663Z"
        fill="#9F7665" />
    <path
        d="M221.567 13.4437C221.279 13.3435 220.956 13.3254 220.649 13.3945C219.963 13.566 219.557 14.1235 219.427 14.7803C219.102 15.3239 218.908 15.9525 218.91 16.5893C218.918 17.1141 219.077 17.6012 219.581 17.8941C220.085 18.1745 220.54 18.1013 221.006 17.8394C222.047 17.2592 222.847 15.8861 222.609 14.6496C222.588 14.3938 222.501 14.1311 222.347 13.9294C222.136 13.66 221.863 13.5044 221.567 13.4437Z"
        fill="#97562C" />
    <path
        d="M227.329 8.15028C227.126 8.04349 226.912 7.98534 226.721 7.98676C226.296 8.00101 226.11 8.30812 226.119 8.71969C225.983 9.02916 225.946 9.41312 226.039 9.83055C226.119 10.1754 226.292 10.5171 226.665 10.7811C227.034 11.0367 227.322 11.0539 227.59 10.949C228.189 10.7179 228.516 9.93294 228.184 9.08905C228.133 8.91848 228.039 8.73411 227.909 8.57988C227.732 8.3733 227.531 8.23234 227.329 8.15028Z"
        fill="#97562C" />
    <path
        d="M217.54 8.44905C217.4 8.7202 217.337 9.03801 217.362 9.35142C217.435 10.0547 217.93 10.5346 218.562 10.7558C219.055 11.1546 219.65 11.4349 220.281 11.5219C220.801 11.5878 221.306 11.4996 221.667 11.0414C222.015 10.5823 222.007 10.1212 221.813 9.62263C221.385 8.51066 220.138 7.52564 218.88 7.58751C218.624 7.57226 218.352 7.62088 218.13 7.74569C217.834 7.9164 217.642 8.16487 217.54 8.44905Z"
        fill="#97562C" />
    <path
        d="M217.384 1.87048C217.118 2.10445 216.839 2.4338 216.712 2.75982C216.487 3.066 216.333 3.33283 216.215 3.6679C215.947 4.44623 216.233 5.20058 216.894 5.39319C217.429 5.53766 218.084 5.31846 218.632 4.88269C219.211 4.41569 219.514 3.71964 219.465 3.14005C219.495 3.0605 219.522 2.97754 219.547 2.87773C219.606 2.46918 219.627 2.13057 219.426 1.82063C219.25 1.56649 218.902 1.37396 218.531 1.40881C218.15 1.43404 217.733 1.56412 217.384 1.87048Z"
        fill="#97562C" />
    <path
        d="M215.341 15.3862C215.263 15.4486 215.19 15.5457 215.174 15.6563C215.119 15.75 215.086 15.8356 215.075 15.9505C215.049 16.218 215.23 16.5303 215.498 16.6671C215.714 16.7735 215.94 16.7545 216.104 16.6433C216.277 16.5235 216.324 16.2904 216.249 16.0671C216.253 16.04 216.255 16.0113 216.254 15.9761C216.237 15.8278 216.212 15.7021 216.106 15.5657C216.015 15.4528 215.865 15.3463 215.728 15.3235C215.587 15.296 215.443 15.3046 215.341 15.3862Z"
        fill="#97562C" />
    <path
        d="M222.502 4.82433C222.376 4.92565 222.257 5.08263 222.23 5.2608C222.14 5.41208 222.087 5.55015 222.067 5.73517C222.023 6.16581 222.311 6.66604 222.74 6.88306C223.086 7.05176 223.449 7.01852 223.715 6.83785C223.995 6.64301 224.073 6.26758 223.955 5.90922C223.961 5.86557 223.964 5.81934 223.964 5.76271C223.939 5.52441 223.899 5.32248 223.731 5.10433C223.586 4.9237 223.345 4.75417 223.126 4.71891C222.899 4.67637 222.667 4.69188 222.502 4.82433Z"
        fill="#97562C" />
    <path
        d="M212.883 11.8429C212.781 11.9308 212.676 12.0576 212.634 12.1879C212.552 12.3069 212.497 12.4119 212.459 12.5463C212.374 12.8586 212.516 13.179 212.795 13.2799C213.02 13.3568 213.283 13.2876 213.495 13.1256C213.719 12.9518 213.821 12.6746 213.782 12.434C213.792 12.4021 213.8 12.3688 213.807 12.3284C213.819 12.1619 213.816 12.0229 213.723 11.8886C213.643 11.7781 213.493 11.6874 213.341 11.6897C213.185 11.6878 213.017 11.7279 212.883 11.8429Z"
        fill="#97562C" />
    <path
        d="M212.437 6.24911C212.225 6.42619 212.015 6.69159 211.95 6.97989C211.789 7.23261 211.687 7.45987 211.633 7.75832C211.511 8.45254 211.912 9.21847 212.573 9.51436C213.106 9.74296 213.691 9.64636 214.138 9.32558C214.608 8.98045 214.778 8.3705 214.633 7.8112C214.647 7.74065 214.658 7.66628 214.665 7.57568C214.652 7.19751 214.614 6.87911 214.37 6.55023C214.16 6.27859 213.795 6.03608 213.449 6.00588C213.091 5.9649 212.717 6.01749 212.437 6.24911Z"
        fill="#97562C" />
    <path
        d="M19.3563 6.6C17.6173 8.47275 14.8082 15.0274 16.5472 20.8463C18.8212 30.8788 28.9917 32.1807 31.2657 31.2443C33.5398 30.308 34.0708 30.4775 36.8799 29.7418C39.689 29.0061 42.6988 25.4613 44.4378 22.1839C46.1767 18.9066 44.9059 14.5592 44.4378 10.8137C43.9696 7.06819 41.9272 2.51653 32.8669 2.0519C25.0414 1.65059 24.7445 3.68143 23.273 4.6178C21.8016 5.55418 21.0953 4.72725 19.3563 6.6Z"
        fill="#9F7665" />
    <path
        d="M34.8511 22.1654C34.4189 22.0152 33.9335 21.988 33.4734 22.0917C32.4446 22.349 31.8361 23.1852 31.6409 24.1704C31.1525 24.9858 30.8619 25.9286 30.8657 26.8838C30.8776 27.671 31.1151 28.4017 31.8717 28.8411C32.6269 29.2617 33.3099 29.1519 34.0095 28.7591C35.5706 27.8888 36.7704 25.8291 36.4133 23.9744C36.3819 23.5906 36.2522 23.1966 36.0202 22.8941C35.7041 22.4899 35.2945 22.2565 34.8511 22.1654Z"
        fill="#97562C" />
    <path
        d="M43.4936 14.2253C43.1891 14.0651 42.8673 13.9779 42.5808 13.98C41.9437 14.0014 41.6648 14.4621 41.6778 15.0794C41.4746 15.5436 41.419 16.1196 41.5581 16.7457C41.6785 17.263 41.9385 17.7755 42.4969 18.1715C43.0517 18.5549 43.4833 18.5807 43.8853 18.4234C44.7833 18.0767 45.2746 16.8993 44.7754 15.6335C44.7 15.3776 44.5588 15.101 44.3635 14.8697C44.0987 14.5598 43.7971 14.3484 43.4936 14.2253Z"
        fill="#97562C" />
    <path
        d="M28.8097 14.6736C28.6002 15.0804 28.505 15.5571 28.543 16.0272C28.653 17.082 29.3954 17.802 30.3433 18.1338C31.082 18.732 31.9746 19.1524 32.9208 19.2829C33.7019 19.3818 34.4587 19.2494 35.0001 18.5621C35.5227 17.8735 35.51 17.1819 35.2195 16.434C34.5774 14.766 32.7069 13.2885 30.8204 13.3813C30.436 13.3584 30.0277 13.4314 29.6955 13.6186C29.251 13.8747 28.9623 14.2474 28.8097 14.6736Z"
        fill="#97562C" />
    <path
        d="M28.5759 4.8056C28.1774 5.15655 27.7581 5.65058 27.5679 6.13961C27.2309 6.59888 26.9988 6.99912 26.8222 7.50173C26.4206 8.66923 26.8497 9.80074 27.8412 10.0897C28.6434 10.3064 29.626 9.97757 30.4478 9.32391C31.3164 8.62341 31.7712 7.57934 31.6981 6.70996C31.7427 6.59063 31.7823 6.46619 31.8199 6.31647C31.9097 5.70365 31.9404 5.19573 31.6394 4.73082C31.3753 4.34962 30.8524 4.06082 30.2958 4.11309C29.7247 4.15094 29.1 4.34605 28.5759 4.8056Z"
        fill="#97562C" />
    <path
        d="M25.5114 25.0794C25.3952 25.1731 25.285 25.3187 25.2608 25.4846C25.1783 25.6251 25.1297 25.7535 25.1119 25.9259C25.0738 26.3271 25.3455 26.7955 25.7475 27.0008C26.0711 27.1604 26.4097 27.1318 26.6561 26.9651C26.9156 26.7853 26.9857 26.4357 26.8738 26.1008C26.879 26.0601 26.8818 26.017 26.8815 25.9642C26.8558 25.7418 26.8181 25.5533 26.6594 25.3487C26.5228 25.1793 26.2976 25.0196 26.0927 24.9853C25.8811 24.9441 25.6644 24.957 25.5114 25.0794Z"
        fill="#97562C" />
    <path
        d="M36.2527 9.23637C36.0647 9.38836 35.8858 9.62383 35.8449 9.89107C35.7106 10.118 35.6308 10.3251 35.6003 10.6026C35.5344 11.2486 35.9661 11.9989 36.6103 12.3245C37.129 12.5775 37.674 12.5277 38.0724 12.2567C38.492 11.9644 38.6088 11.4013 38.4325 10.8637C38.4414 10.7982 38.4464 10.7289 38.4465 10.6439C38.4078 10.2865 38.3492 9.9836 38.0964 9.65637C37.8786 9.38543 37.5181 9.13113 37.1889 9.07825C36.8489 9.01443 36.5002 9.0377 36.2527 9.23637Z"
        fill="#97562C" />
    <path
        d="M21.8242 19.7645C21.6712 19.8964 21.5143 20.0865 21.4517 20.282C21.3276 20.4605 21.2449 20.618 21.1884 20.8196C21.0606 21.2881 21.2742 21.7686 21.6925 21.9199C22.0303 22.0353 22.4249 21.9315 22.7426 21.6886C23.0781 21.4278 23.2319 21.012 23.1735 20.6511C23.1881 20.6033 23.2003 20.5533 23.211 20.4927C23.2282 20.2429 23.2244 20.0345 23.0852 19.833C22.9639 19.6672 22.7389 19.5312 22.5111 19.5347C22.2768 19.5318 22.0254 19.592 21.8242 19.7645Z"
        fill="#97562C" />
    <path
        d="M21.1559 11.3735C20.837 11.6392 20.5227 12.0373 20.4253 12.4697C20.1833 12.8488 20.031 13.1897 19.9489 13.6374C19.7663 14.6787 20.3673 15.8276 21.3592 16.2714C22.1588 16.6143 23.0368 16.4694 23.7064 15.9883C24.4127 15.4705 24.6669 14.5556 24.449 13.7167C24.471 13.6109 24.4874 13.4993 24.4976 13.3634C24.4784 12.7961 24.421 12.3185 24.0555 11.8252C23.7394 11.4178 23.193 11.054 22.6728 11.0087C22.1363 10.9472 21.5757 11.0261 21.1559 11.3735Z"
        fill="#97562C" />
    <path
        d="M19.3563 6.6C17.6173 8.47275 14.8082 15.0274 16.5472 20.8463C18.8212 30.8788 28.9917 32.1807 31.2657 31.2443C33.5398 30.308 34.0708 30.4775 36.8799 29.7418C39.689 29.0061 42.6988 25.4613 44.4378 22.1839C46.1767 18.9066 44.9059 14.5592 44.4378 10.8137C43.9696 7.06819 41.9272 2.51653 32.8669 2.0519C25.0414 1.65059 24.7445 3.68143 23.273 4.6178C21.8016 5.55418 21.0953 4.72725 19.3563 6.6Z"
        fill="#9F7665" />
    <path
        d="M34.8511 22.1654C34.4189 22.0152 33.9335 21.988 33.4734 22.0917C32.4446 22.349 31.8361 23.1852 31.6409 24.1704C31.1525 24.9858 30.8619 25.9286 30.8657 26.8838C30.8776 27.671 31.1151 28.4017 31.8717 28.8411C32.6269 29.2617 33.3099 29.1519 34.0095 28.7591C35.5706 27.8888 36.7704 25.8291 36.4133 23.9744C36.3819 23.5906 36.2522 23.1966 36.0202 22.8941C35.7041 22.4899 35.2945 22.2565 34.8511 22.1654Z"
        fill="#97562C" />
    <path
        d="M43.4936 14.2253C43.1891 14.0651 42.8673 13.9779 42.5808 13.98C41.9437 14.0014 41.6648 14.4621 41.6778 15.0794C41.4746 15.5436 41.419 16.1196 41.5581 16.7457C41.6785 17.263 41.9385 17.7755 42.4969 18.1715C43.0517 18.5549 43.4833 18.5807 43.8853 18.4234C44.7833 18.0767 45.2746 16.8993 44.7754 15.6335C44.7 15.3776 44.5588 15.101 44.3635 14.8697C44.0987 14.5598 43.7971 14.3484 43.4936 14.2253Z"
        fill="#97562C" />
    <path
        d="M28.8097 14.6736C28.6002 15.0804 28.505 15.5571 28.543 16.0272C28.653 17.082 29.3954 17.802 30.3433 18.1338C31.082 18.732 31.9746 19.1524 32.9208 19.2829C33.7019 19.3818 34.4587 19.2494 35.0001 18.5621C35.5227 17.8735 35.51 17.1819 35.2195 16.434C34.5774 14.766 32.7069 13.2885 30.8204 13.3813C30.436 13.3584 30.0277 13.4314 29.6955 13.6186C29.251 13.8747 28.9623 14.2474 28.8097 14.6736Z"
        fill="#97562C" />
    <path
        d="M28.5759 4.8056C28.1774 5.15655 27.7581 5.65058 27.5679 6.13961C27.2309 6.59888 26.9988 6.99912 26.8222 7.50173C26.4206 8.66923 26.8497 9.80074 27.8412 10.0897C28.6434 10.3064 29.626 9.97757 30.4478 9.32391C31.3164 8.62341 31.7712 7.57934 31.6981 6.70996C31.7427 6.59063 31.7823 6.46619 31.8199 6.31647C31.9097 5.70365 31.9404 5.19573 31.6394 4.73082C31.3753 4.34962 30.8524 4.06082 30.2958 4.11309C29.7247 4.15094 29.1 4.34605 28.5759 4.8056Z"
        fill="#97562C" />
    <path
        d="M25.5114 25.0794C25.3952 25.1731 25.285 25.3187 25.2608 25.4846C25.1783 25.6251 25.1297 25.7535 25.1119 25.9259C25.0738 26.3271 25.3455 26.7955 25.7475 27.0008C26.0711 27.1604 26.4097 27.1318 26.6561 26.9651C26.9156 26.7853 26.9857 26.4357 26.8738 26.1008C26.879 26.0601 26.8818 26.017 26.8815 25.9642C26.8558 25.7418 26.8181 25.5533 26.6594 25.3487C26.5228 25.1793 26.2976 25.0196 26.0927 24.9853C25.8811 24.9441 25.6644 24.957 25.5114 25.0794Z"
        fill="#97562C" />
    <path
        d="M36.2527 9.23637C36.0647 9.38836 35.8858 9.62383 35.8449 9.89107C35.7106 10.118 35.6308 10.3251 35.6003 10.6026C35.5344 11.2486 35.9661 11.9989 36.6103 12.3245C37.129 12.5775 37.674 12.5277 38.0724 12.2567C38.492 11.9644 38.6088 11.4013 38.4325 10.8637C38.4414 10.7982 38.4464 10.7289 38.4465 10.6439C38.4078 10.2865 38.3492 9.9836 38.0964 9.65637C37.8786 9.38543 37.5181 9.13113 37.1889 9.07825C36.8489 9.01443 36.5002 9.0377 36.2527 9.23637Z"
        fill="#97562C" />
    <path
        d="M21.8242 19.7645C21.6712 19.8964 21.5143 20.0865 21.4517 20.282C21.3276 20.4605 21.2449 20.618 21.1884 20.8196C21.0606 21.2881 21.2742 21.7686 21.6925 21.9199C22.0303 22.0353 22.4249 21.9315 22.7426 21.6886C23.0781 21.4278 23.2319 21.012 23.1735 20.6511C23.1881 20.6033 23.2003 20.5533 23.211 20.4927C23.2282 20.2429 23.2244 20.0345 23.0852 19.833C22.9639 19.6672 22.7389 19.5312 22.5111 19.5347C22.2768 19.5318 22.0254 19.592 21.8242 19.7645Z"
        fill="#97562C" />
    <path
        d="M21.1559 11.3735C20.837 11.6392 20.5227 12.0373 20.4253 12.4697C20.1833 12.8488 20.031 13.1897 19.9489 13.6374C19.7663 14.6787 20.3673 15.8276 21.3592 16.2714C22.1588 16.6143 23.0368 16.4694 23.7064 15.9883C24.4127 15.4705 24.6669 14.5556 24.449 13.7167C24.471 13.6109 24.4874 13.4993 24.4976 13.3634C24.4784 12.7961 24.421 12.3185 24.0555 11.8252C23.7394 11.4178 23.193 11.054 22.6728 11.0087C22.1363 10.9472 21.5757 11.0261 21.1559 11.3735Z"
        fill="#97562C" />
    <path
        d="M19.3563 6.6C17.6173 8.47275 14.8082 15.0274 16.5472 20.8463C18.8212 30.8788 28.9917 32.1807 31.2657 31.2443C33.5398 30.308 34.0708 30.4775 36.8799 29.7418C39.689 29.0061 42.6988 25.4613 44.4378 22.1839C46.1767 18.9066 44.9059 14.5592 44.4378 10.8137C43.9696 7.06819 41.9272 2.51653 32.8669 2.0519C25.0414 1.65059 24.7445 3.68143 23.273 4.6178C21.8016 5.55418 21.0953 4.72725 19.3563 6.6Z"
        fill="#9F7665" />
    <path
        d="M34.8511 22.1654C34.4189 22.0152 33.9335 21.988 33.4734 22.0917C32.4446 22.349 31.8361 23.1852 31.6409 24.1704C31.1525 24.9858 30.8619 25.9286 30.8657 26.8838C30.8776 27.671 31.1151 28.4017 31.8717 28.8411C32.6269 29.2617 33.3099 29.1519 34.0095 28.7591C35.5706 27.8888 36.7704 25.8291 36.4133 23.9744C36.3819 23.5906 36.2522 23.1966 36.0202 22.8941C35.7041 22.4899 35.2945 22.2565 34.8511 22.1654Z"
        fill="#97562C" />
    <path
        d="M43.4936 14.2253C43.1891 14.0651 42.8673 13.9779 42.5808 13.98C41.9437 14.0014 41.6648 14.4621 41.6778 15.0794C41.4746 15.5436 41.419 16.1196 41.5581 16.7457C41.6785 17.263 41.9385 17.7755 42.4969 18.1715C43.0517 18.5549 43.4833 18.5807 43.8853 18.4234C44.7833 18.0767 45.2746 16.8993 44.7754 15.6335C44.7 15.3776 44.5588 15.101 44.3635 14.8697C44.0987 14.5598 43.7971 14.3484 43.4936 14.2253Z"
        fill="#97562C" />
    <path
        d="M28.8097 14.6736C28.6002 15.0804 28.505 15.5571 28.543 16.0272C28.653 17.082 29.3954 17.802 30.3433 18.1338C31.082 18.732 31.9746 19.1524 32.9208 19.2829C33.7019 19.3818 34.4587 19.2494 35.0001 18.5621C35.5227 17.8735 35.51 17.1819 35.2195 16.434C34.5774 14.766 32.7069 13.2885 30.8204 13.3813C30.436 13.3584 30.0277 13.4314 29.6955 13.6186C29.251 13.8747 28.9623 14.2474 28.8097 14.6736Z"
        fill="#97562C" />
    <path
        d="M28.5759 4.8056C28.1774 5.15655 27.7581 5.65058 27.5679 6.13961C27.2309 6.59888 26.9988 6.99912 26.8222 7.50173C26.4206 8.66923 26.8497 9.80074 27.8412 10.0897C28.6434 10.3064 29.626 9.97757 30.4478 9.32391C31.3164 8.62341 31.7712 7.57934 31.6981 6.70996C31.7427 6.59063 31.7823 6.46619 31.8199 6.31647C31.9097 5.70365 31.9404 5.19573 31.6394 4.73082C31.3753 4.34962 30.8524 4.06082 30.2958 4.11309C29.7247 4.15094 29.1 4.34605 28.5759 4.8056Z"
        fill="#97562C" />
    <path
        d="M25.5114 25.0794C25.3952 25.1731 25.285 25.3187 25.2608 25.4846C25.1783 25.6251 25.1297 25.7535 25.1119 25.9259C25.0738 26.3271 25.3455 26.7955 25.7475 27.0008C26.0711 27.1604 26.4097 27.1318 26.6561 26.9651C26.9156 26.7853 26.9857 26.4357 26.8738 26.1008C26.879 26.0601 26.8818 26.017 26.8815 25.9642C26.8558 25.7418 26.8181 25.5533 26.6594 25.3487C26.5228 25.1793 26.2976 25.0196 26.0927 24.9853C25.8811 24.9441 25.6644 24.957 25.5114 25.0794Z"
        fill="#97562C" />
    <path
        d="M36.2527 9.23637C36.0647 9.38836 35.8858 9.62383 35.8449 9.89107C35.7106 10.118 35.6308 10.3251 35.6003 10.6026C35.5344 11.2486 35.9661 11.9989 36.6103 12.3245C37.129 12.5775 37.674 12.5277 38.0724 12.2567C38.492 11.9644 38.6088 11.4013 38.4325 10.8637C38.4414 10.7982 38.4464 10.7289 38.4465 10.6439C38.4078 10.2865 38.3492 9.9836 38.0964 9.65637C37.8786 9.38543 37.5181 9.13113 37.1889 9.07825C36.8489 9.01443 36.5002 9.0377 36.2527 9.23637Z"
        fill="#97562C" />
    <path
        d="M21.8242 19.7645C21.6712 19.8964 21.5143 20.0865 21.4517 20.282C21.3276 20.4605 21.2449 20.618 21.1884 20.8196C21.0606 21.2881 21.2742 21.7686 21.6925 21.9199C22.0303 22.0353 22.4249 21.9315 22.7426 21.6886C23.0781 21.4278 23.2319 21.012 23.1735 20.6511C23.1881 20.6033 23.2003 20.5533 23.211 20.4927C23.2282 20.2429 23.2244 20.0345 23.0852 19.833C22.9639 19.6672 22.7389 19.5312 22.5111 19.5347C22.2768 19.5318 22.0254 19.592 21.8242 19.7645Z"
        fill="#97562C" />
    <path
        d="M21.1559 11.3735C20.837 11.6392 20.5227 12.0373 20.4253 12.4697C20.1833 12.8488 20.031 13.1897 19.9489 13.6374C19.7663 14.6787 20.3673 15.8276 21.3592 16.2714C22.1588 16.6143 23.0368 16.4694 23.7064 15.9883C24.4127 15.4705 24.6669 14.5556 24.449 13.7167C24.471 13.6109 24.4874 13.4993 24.4976 13.3634C24.4784 12.7961 24.421 12.3185 24.0555 11.8252C23.7394 11.4178 23.193 11.054 22.6728 11.0087C22.1363 10.9472 21.5757 11.0261 21.1559 11.3735Z"
        fill="#97562C" />
    <path
        d="M221.821 142.495C220.877 143.511 219.354 147.067 220.297 150.223C221.53 155.665 227.047 156.371 228.281 155.864C229.514 155.356 229.802 155.448 231.326 155.048C232.85 154.649 234.483 152.726 235.426 150.949C236.369 149.171 235.68 146.813 235.426 144.781C235.172 142.749 234.064 140.28 229.149 140.028C224.905 139.81 224.743 140.912 223.945 141.42C223.147 141.928 222.764 141.479 221.821 142.495Z"
        fill="#9F7665" />
    <path
        d="M230.226 150.939C229.991 150.857 229.728 150.842 229.478 150.899C228.92 151.038 228.59 151.492 228.484 152.026C228.219 152.469 228.062 152.98 228.064 153.498C228.07 153.925 228.199 154.322 228.61 154.56C229.019 154.788 229.39 154.728 229.769 154.515C230.616 154.043 231.267 152.926 231.073 151.92C231.056 151.712 230.986 151.498 230.86 151.334C230.688 151.115 230.466 150.988 230.226 150.939Z"
        fill="#97562C" />
    <path
        d="M234.914 146.632C234.749 146.545 234.574 146.497 234.419 146.499C234.073 146.51 233.922 146.76 233.929 147.095C233.819 147.347 233.788 147.659 233.864 147.999C233.929 148.279 234.07 148.557 234.373 148.772C234.674 148.98 234.908 148.994 235.126 148.909C235.613 148.721 235.88 148.082 235.609 147.395C235.568 147.257 235.492 147.107 235.386 146.981C235.242 146.813 235.078 146.698 234.914 146.632Z"
        fill="#97562C" />
    <path
        d="M226.949 146.875C226.835 147.095 226.783 147.354 226.804 147.609C226.864 148.181 227.266 148.572 227.781 148.752C228.181 149.076 228.665 149.304 229.179 149.375C229.602 149.429 230.013 149.357 230.307 148.984C230.59 148.611 230.583 148.235 230.426 147.83C230.077 146.925 229.063 146.123 228.039 146.174C227.831 146.161 227.609 146.201 227.429 146.303C227.188 146.441 227.031 146.644 226.949 146.875Z"
        fill="#97562C" />
    <path
        d="M226.822 141.522C226.606 141.712 226.378 141.98 226.275 142.246C226.092 142.495 225.966 142.712 225.87 142.984C225.653 143.618 225.885 144.232 226.423 144.388C226.858 144.506 227.391 144.327 227.837 143.973C228.308 143.593 228.555 143.027 228.515 142.555C228.54 142.49 228.561 142.423 228.581 142.342C228.63 142.009 228.647 141.734 228.484 141.481C228.34 141.275 228.057 141.118 227.755 141.146C227.445 141.167 227.106 141.273 226.822 141.522Z"
        fill="#97562C" />
    <path
        d="M225.159 152.519C225.096 152.57 225.037 152.649 225.024 152.739C224.979 152.815 224.952 152.885 224.943 152.979C224.922 153.196 225.069 153.45 225.287 153.562C225.463 153.648 225.647 153.633 225.78 153.542C225.921 153.445 225.959 153.255 225.898 153.073C225.901 153.051 225.903 153.028 225.903 152.999C225.889 152.879 225.868 152.776 225.782 152.665C225.708 152.574 225.586 152.487 225.475 152.468C225.36 152.446 225.242 152.453 225.159 152.519Z"
        fill="#97562C" />
    <path
        d="M230.986 143.925C230.884 144.008 230.787 144.136 230.765 144.281C230.692 144.404 230.649 144.516 230.632 144.667C230.596 145.017 230.831 145.424 231.18 145.601C231.461 145.738 231.757 145.711 231.973 145.564C232.201 145.405 232.264 145.1 232.168 144.808C232.173 144.773 232.176 144.735 232.176 144.689C232.155 144.495 232.123 144.331 231.986 144.153C231.868 144.006 231.672 143.868 231.494 143.84C231.309 143.805 231.12 143.818 230.986 143.925Z"
        fill="#97562C" />
    <path
        d="M223.159 149.636C223.076 149.708 222.991 149.811 222.957 149.917C222.89 150.014 222.845 150.099 222.814 150.209C222.745 150.463 222.861 150.723 223.088 150.805C223.271 150.868 223.485 150.812 223.658 150.68C223.84 150.539 223.923 150.313 223.891 150.117C223.899 150.091 223.906 150.064 223.912 150.031C223.921 149.896 223.919 149.783 223.843 149.673C223.778 149.583 223.656 149.51 223.532 149.512C223.405 149.51 223.268 149.543 223.159 149.636Z"
        fill="#97562C" />
    <path
        d="M222.797 145.085C222.624 145.229 222.453 145.445 222.401 145.679C222.269 145.885 222.187 146.07 222.142 146.313C222.043 146.878 222.369 147.501 222.907 147.741C223.341 147.927 223.817 147.849 224.18 147.588C224.563 147.307 224.701 146.811 224.583 146.356C224.595 146.298 224.604 146.238 224.61 146.164C224.599 145.856 224.568 145.597 224.37 145.33C224.198 145.109 223.902 144.911 223.62 144.887C223.329 144.853 223.025 144.896 222.797 145.085Z"
        fill="#97562C" />
    <path
        d="M221.821 142.495C220.877 143.511 219.354 147.067 220.297 150.223C221.53 155.665 227.047 156.371 228.281 155.864C229.514 155.356 229.802 155.448 231.326 155.048C232.85 154.649 234.483 152.726 235.426 150.949C236.369 149.171 235.68 146.813 235.426 144.781C235.172 142.749 234.064 140.28 229.149 140.028C224.905 139.81 224.743 140.912 223.945 141.42C223.147 141.928 222.764 141.479 221.821 142.495Z"
        fill="#9F7665" />
    <path
        d="M230.226 150.939C229.991 150.857 229.728 150.842 229.478 150.899C228.92 151.038 228.59 151.492 228.484 152.026C228.219 152.469 228.062 152.98 228.064 153.498C228.07 153.925 228.199 154.322 228.61 154.56C229.019 154.788 229.39 154.728 229.769 154.515C230.616 154.043 231.267 152.926 231.073 151.92C231.056 151.712 230.986 151.498 230.86 151.334C230.688 151.115 230.466 150.988 230.226 150.939Z"
        fill="#97562C" />
    <path
        d="M234.914 146.632C234.749 146.545 234.574 146.497 234.419 146.499C234.073 146.51 233.922 146.76 233.929 147.095C233.819 147.347 233.788 147.659 233.864 147.999C233.929 148.279 234.07 148.557 234.373 148.772C234.674 148.98 234.908 148.994 235.126 148.909C235.613 148.721 235.88 148.082 235.609 147.395C235.568 147.257 235.492 147.107 235.386 146.981C235.242 146.813 235.078 146.698 234.914 146.632Z"
        fill="#97562C" />
    <path
        d="M226.949 146.875C226.835 147.095 226.783 147.354 226.804 147.609C226.864 148.181 227.266 148.572 227.781 148.752C228.181 149.076 228.665 149.304 229.179 149.375C229.602 149.429 230.013 149.357 230.307 148.984C230.59 148.611 230.583 148.235 230.426 147.83C230.077 146.925 229.063 146.123 228.039 146.174C227.831 146.161 227.609 146.201 227.429 146.303C227.188 146.441 227.031 146.644 226.949 146.875Z"
        fill="#97562C" />
    <path
        d="M226.822 141.522C226.606 141.712 226.378 141.98 226.275 142.246C226.092 142.495 225.966 142.712 225.87 142.984C225.653 143.618 225.885 144.232 226.423 144.388C226.858 144.506 227.391 144.327 227.837 143.973C228.308 143.593 228.555 143.027 228.515 142.555C228.54 142.49 228.561 142.423 228.581 142.342C228.63 142.009 228.647 141.734 228.484 141.481C228.34 141.275 228.057 141.118 227.755 141.146C227.445 141.167 227.106 141.273 226.822 141.522Z"
        fill="#97562C" />
    <path
        d="M225.159 152.519C225.096 152.57 225.037 152.649 225.024 152.739C224.979 152.815 224.952 152.885 224.943 152.979C224.922 153.196 225.069 153.45 225.287 153.562C225.463 153.648 225.647 153.633 225.78 153.542C225.921 153.445 225.959 153.255 225.898 153.073C225.901 153.051 225.903 153.028 225.903 152.999C225.889 152.879 225.868 152.776 225.782 152.665C225.708 152.574 225.586 152.487 225.475 152.468C225.36 152.446 225.242 152.453 225.159 152.519Z"
        fill="#97562C" />
    <path
        d="M230.986 143.925C230.884 144.008 230.787 144.136 230.765 144.281C230.692 144.404 230.649 144.516 230.632 144.667C230.596 145.017 230.831 145.424 231.18 145.601C231.461 145.738 231.757 145.711 231.973 145.564C232.201 145.405 232.264 145.1 232.168 144.808C232.173 144.773 232.176 144.735 232.176 144.689C232.155 144.495 232.123 144.331 231.986 144.153C231.868 144.006 231.672 143.868 231.494 143.84C231.309 143.805 231.12 143.818 230.986 143.925Z"
        fill="#97562C" />
    <path
        d="M223.159 149.636C223.076 149.708 222.991 149.811 222.957 149.917C222.89 150.014 222.845 150.099 222.814 150.209C222.745 150.463 222.861 150.723 223.088 150.805C223.271 150.868 223.485 150.812 223.658 150.68C223.84 150.539 223.923 150.313 223.891 150.117C223.899 150.091 223.906 150.064 223.912 150.031C223.921 149.896 223.919 149.783 223.843 149.673C223.778 149.583 223.656 149.51 223.532 149.512C223.405 149.51 223.268 149.543 223.159 149.636Z"
        fill="#97562C" />
    <path
        d="M222.797 145.085C222.624 145.229 222.453 145.445 222.401 145.679C222.269 145.885 222.187 146.07 222.142 146.313C222.043 146.878 222.369 147.501 222.907 147.741C223.341 147.927 223.817 147.849 224.18 147.588C224.563 147.307 224.701 146.811 224.583 146.356C224.595 146.298 224.604 146.238 224.61 146.164C224.599 145.856 224.568 145.597 224.37 145.33C224.198 145.109 223.902 144.911 223.62 144.887C223.329 144.853 223.025 144.896 222.797 145.085Z"
        fill="#97562C" />
    <path
        d="M221.821 142.495C220.877 143.511 219.354 147.067 220.297 150.223C221.53 155.665 227.047 156.371 228.281 155.864C229.514 155.356 229.802 155.448 231.326 155.048C232.85 154.649 234.483 152.726 235.426 150.949C236.369 149.171 235.68 146.813 235.426 144.781C235.172 142.749 234.064 140.28 229.149 140.028C224.905 139.81 224.743 140.912 223.945 141.42C223.147 141.928 222.764 141.479 221.821 142.495Z"
        fill="#9F7665" />
    <path
        d="M230.226 150.939C229.991 150.857 229.728 150.842 229.478 150.899C228.92 151.038 228.59 151.492 228.484 152.026C228.219 152.469 228.062 152.98 228.064 153.498C228.07 153.925 228.199 154.322 228.61 154.56C229.019 154.788 229.39 154.728 229.769 154.515C230.616 154.043 231.267 152.926 231.073 151.92C231.056 151.712 230.986 151.498 230.86 151.334C230.688 151.115 230.466 150.988 230.226 150.939Z"
        fill="#97562C" />
    <path
        d="M234.914 146.632C234.749 146.545 234.574 146.497 234.419 146.499C234.073 146.51 233.922 146.76 233.929 147.095C233.819 147.347 233.788 147.659 233.864 147.999C233.929 148.279 234.07 148.557 234.373 148.772C234.674 148.98 234.908 148.994 235.126 148.909C235.613 148.721 235.88 148.082 235.609 147.395C235.568 147.257 235.492 147.107 235.386 146.981C235.242 146.813 235.078 146.698 234.914 146.632Z"
        fill="#97562C" />
    <path
        d="M226.949 146.875C226.835 147.095 226.783 147.354 226.804 147.609C226.864 148.181 227.266 148.572 227.781 148.752C228.181 149.076 228.665 149.304 229.179 149.375C229.602 149.429 230.013 149.357 230.307 148.984C230.59 148.611 230.583 148.235 230.426 147.83C230.077 146.925 229.063 146.123 228.039 146.174C227.831 146.161 227.609 146.201 227.429 146.303C227.188 146.441 227.031 146.644 226.949 146.875Z"
        fill="#97562C" />
    <path
        d="M226.822 141.522C226.606 141.712 226.378 141.98 226.275 142.246C226.092 142.495 225.966 142.712 225.87 142.984C225.653 143.618 225.885 144.232 226.423 144.388C226.858 144.506 227.391 144.327 227.837 143.973C228.308 143.593 228.555 143.027 228.515 142.555C228.54 142.49 228.561 142.423 228.581 142.342C228.63 142.009 228.647 141.734 228.484 141.481C228.34 141.275 228.057 141.118 227.755 141.146C227.445 141.167 227.106 141.273 226.822 141.522Z"
        fill="#97562C" />
    <path
        d="M225.159 152.519C225.096 152.57 225.037 152.649 225.024 152.739C224.979 152.815 224.952 152.885 224.943 152.979C224.922 153.196 225.069 153.45 225.287 153.562C225.463 153.648 225.647 153.633 225.78 153.542C225.921 153.445 225.959 153.255 225.898 153.073C225.901 153.051 225.903 153.028 225.903 152.999C225.889 152.879 225.868 152.776 225.782 152.665C225.708 152.574 225.586 152.487 225.475 152.468C225.36 152.446 225.242 152.453 225.159 152.519Z"
        fill="#97562C" />
    <path
        d="M230.986 143.925C230.884 144.008 230.787 144.136 230.765 144.281C230.692 144.404 230.649 144.516 230.632 144.667C230.596 145.017 230.831 145.424 231.18 145.601C231.461 145.738 231.757 145.711 231.973 145.564C232.201 145.405 232.264 145.1 232.168 144.808C232.173 144.773 232.176 144.735 232.176 144.689C232.155 144.495 232.123 144.331 231.986 144.153C231.868 144.006 231.672 143.868 231.494 143.84C231.309 143.805 231.12 143.818 230.986 143.925Z"
        fill="#97562C" />
    <path
        d="M223.159 149.636C223.076 149.708 222.991 149.811 222.957 149.917C222.89 150.014 222.845 150.099 222.814 150.209C222.745 150.463 222.861 150.723 223.088 150.805C223.271 150.868 223.485 150.812 223.658 150.68C223.84 150.539 223.923 150.313 223.891 150.117C223.899 150.091 223.906 150.064 223.912 150.031C223.921 149.896 223.919 149.783 223.843 149.673C223.778 149.583 223.656 149.51 223.532 149.512C223.405 149.51 223.268 149.543 223.159 149.636Z"
        fill="#97562C" />
    <path
        d="M222.797 145.085C222.624 145.229 222.453 145.445 222.401 145.679C222.269 145.885 222.187 146.07 222.142 146.313C222.043 146.878 222.369 147.501 222.907 147.741C223.341 147.927 223.817 147.849 224.18 147.588C224.563 147.307 224.701 146.811 224.583 146.356C224.595 146.298 224.604 146.238 224.61 146.164C224.599 145.856 224.568 145.597 224.37 145.33C224.198 145.109 223.902 144.911 223.62 144.887C223.329 144.853 223.025 144.896 222.797 145.085Z"
        fill="#97562C" />
</svg>