<svg viewBox="0 0 234 219" fill="none" xmlns="http://www.w3.org/2000/svg">
<path opacity="0.4" d="M231.902 217.099C223.103 218.731 153.585 217.779 119.925 217.099C104.928 216.822 112.426 208.942 160.916 208.067C209.406 207.193 242.899 215.06 231.902 217.099Z" fill="#39A2DB"/>
<path fill-rule="evenodd" clip-rule="evenodd" d="M148.964 8.76709C148.504 10.3136 148.547 11.8456 149.415 13.2108C152.303 17.7518 156.367 19.1104 158.039 19.222C154.991 24.2872 150.521 36.2116 157.022 43.3875C163.523 50.5633 175.181 48.9722 180.198 47.2796C179.755 50.9233 180.775 58.9363 188.399 61.8392C196.024 64.7421 200.728 62.8957 202.127 61.6096C202.916 65.9672 206.633 74.0274 215.185 71.4076C215.691 71.2525 216.203 70.9764 216.72 70.5903C233.326 115.321 215.194 166.111 202.565 181.716C175.354 215.276 112.175 233.09 53.97 203.955C43.3596 198.662 12.4677 180.102 2.08578 133.436C-4.81856 102.608 5.79168 59.169 28.3831 37.0878C53.2752 12.7336 101.573 -6.34181 148.964 8.76709Z" fill="#C16D49"/>
<path d="M98.4177 173.17C92.3623 169.681 93.8639 159.145 108.735 154.465C123.605 149.786 130.369 158.532 127.888 163.896C126.473 166.969 121.092 167.349 113.537 169.726C105.982 172.104 101.433 174.905 98.4177 173.17Z" fill="black"/>
<path d="M163.644 183.007C163.619 182.728 163.57 182.449 163.397 182.207L163.347 182.128L163.224 181.982L163.15 181.888L163.002 181.755C162.433 181.302 161.668 181.194 160.976 181.569C160.432 181.861 159.889 182.155 159.37 182.461C158.703 182.822 158.308 183.741 158.53 184.474C158.802 185.262 159.444 185.715 160.259 185.781C161.544 185.887 162.779 185.141 163.421 184.047C163.57 183.807 163.619 183.528 163.644 183.247V183.14V183.007" fill="#6F3108"/>
<path d="M202.051 126.742C201.276 124.876 198.975 123.849 197.074 124.689C193.498 126.274 190.622 129.183 189.272 132.889C188.072 136.183 191.048 138.836 194.224 137.888C197.375 136.955 200.101 134.967 202.151 132.421C203.177 131.141 203.152 129.315 202.301 127.995C202.276 127.567 202.226 127.155 202.051 126.742Z" fill="#6F3108"/>
<path d="M41.2394 81.0052L41.0921 81.0717L41.2394 81.0052ZM47.5691 74.5804C47.8845 73.8433 47.9041 72.8434 47.8293 71.952C47.8323 71.1576 47.7787 70.3887 47.5133 69.6494C47.3279 69.0722 47.0271 68.4812 46.6675 67.8504L46.5152 67.5887C46.3574 67.3295 46.1429 67.0959 45.934 66.8597L45.6698 66.5163C45.5084 66.3248 45.2656 66.1043 45.0511 65.8707C42.7052 63.559 39.2935 62.2564 35.9967 63.6119C31.7081 65.4148 28.6264 67.7309 25.96 71.5113C23.8377 74.5174 22.949 78.1563 22.8169 81.7183C22.6812 85.348 25.4165 88.6738 28.7161 89.8943C32.4647 91.3087 35.8735 90.0349 38.9001 87.612C43.0886 84.136 45.7048 79.5187 47.5691 74.5804" fill="#6F3108"/>
<path d="M79.683 191.917L79.6582 191.81L79.683 191.917ZM83.1019 196.98C83.5471 197.288 84.2039 197.434 84.8013 197.503C85.3246 197.611 85.8385 197.678 86.3603 197.6C86.7647 197.554 87.1933 197.433 87.6556 197.278L87.8478 197.211C88.039 197.141 88.2208 197.029 88.4035 196.922L88.664 196.792C88.8111 196.71 88.9879 196.578 89.1696 196.467C90.9966 195.215 92.2959 193.121 91.8279 190.749C91.1928 187.658 90.0636 185.301 87.9153 183.025C86.2073 181.214 83.9228 180.139 81.5913 179.577C79.2156 179.003 76.6697 180.378 75.439 182.409C74.0224 184.712 74.4222 187.148 75.629 189.482C77.38 192.729 80.0866 195.083 83.1019 196.98" fill="#6F3108"/>
<path d="M124.976 17.9282L125.001 17.9406C124.431 18.0471 124.828 17.8737 124.976 17.9282ZM134.315 15.196C133.646 13.1277 132.432 11.1684 130.351 10.3138C128.94 9.74163 127.305 9.78122 125.917 10.3955C123.787 10.0091 121.731 10.5541 120.691 12.9939C119.576 15.5676 121.286 18.2626 123.713 19.2212C125.744 20.0337 128.122 20.3557 130.302 20.4077C133.274 20.5018 135.256 18.114 134.315 15.196" fill="#483434"/>
<path d="M98.1564 78.2722L98.129 78.2687C98.631 77.979 98.3147 78.2742 98.1564 78.2722ZM90.2549 83.9499C91.5725 85.6789 93.3679 87.124 95.6143 87.2393C97.1361 87.3102 98.6651 86.73 99.7696 85.69C101.907 85.3472 103.666 84.1506 103.837 81.5037C104.034 78.706 101.527 76.7313 98.9186 76.6331C96.7329 76.5411 94.383 77.0269 92.3097 77.7016C89.4746 78.5997 88.3982 81.5101 90.2549 83.9499" fill="#6F3108"/>
<path d="M55.1132 20.4995C51.8284 20.9169 48.4959 22.281 45.6396 24.1948C42.1644 26.5566 39.356 31.28 42.1171 35.4996C44.4974 39.083 49.2579 39.9431 53.0663 39.4138C58.5884 38.6656 71.4414 32.695 68.3947 24.7496C66.1096 18.8656 60.1593 18.4737 55.1132 20.4995" fill="#483434"/>
<path d="M26.0267 102.808C26.1451 98.8346 22.3946 95.0619 19.1522 92.5195C16.6142 88.1434 10.1526 90.062 9.3288 94.687C8.58034 98.9046 12.31 103.741 15.3494 106.251C17.173 107.718 19.5181 108.611 21.8297 107.917C24.0661 107.237 25.9642 105.213 26.0267 102.808" fill="#483434"/>
<path d="M190.382 86.923C187.461 84.5744 184.417 82.6115 181.234 81.0815C179.152 80.0773 177.078 79.6667 175.513 81.5913C173.852 83.6772 174.237 86.6163 175.509 89.305L175.553 89.3743C175.742 89.8224 175.936 90.2912 176.212 90.7619C179.888 96.5739 185.866 99.2557 190.779 96.8601C194.138 95.1958 193.587 89.4391 190.382 86.923" fill="#483434"/>
<path d="M158.644 188.465C157.854 186.932 156.569 185.583 154.988 184.645C151.382 182.614 147.332 183.213 144.022 185.293C140.367 186.153 136.909 187.87 134.241 190.394C132.068 192.497 130.685 195.046 131.574 198.193C132.513 201.288 134.735 202.797 137.798 203.604C144.615 205.422 153.753 203.159 157.952 197.337C158.94 196.245 159.681 194.867 159.879 193.46C160.126 191.564 159.632 189.872 158.644 188.465Z" fill="#6F3108"/>
<path d="M195.876 158.438C193.783 158.274 191.231 158.531 189.334 159.559C187.109 159.98 185.343 160.558 183.445 161.68C179.062 164.314 177.1 169.682 179.062 174.086C180.698 177.591 184.362 179.839 188.483 180.418C192.867 180.996 197.054 178.969 199.279 175.727C199.737 175.47 200.195 175.178 200.718 174.793C202.681 172.994 204.186 171.352 204.644 168.718C204.971 166.498 204.317 163.706 202.616 161.972C200.915 160.138 198.624 158.66 195.876 158.438Z" fill="#483434"/>
<path d="M112.776 45.7202L112.624 45.905C112.312 46.1679 112 46.4307 111.704 46.6494C111.379 46.8035 111.083 46.9712 110.73 47.1118C107.088 48.5673 105.508 53.2113 107.73 56.6805C110.016 60.3344 114.578 62.0381 118.458 60.4896C121.776 59.1883 124.445 57.0136 126.421 54.3044C128.608 51.2849 127.296 46.2441 123.587 44.1233C119.721 41.8768 115.135 42.4741 112.776 45.7202" fill="#483434"/>
<path d="M182.477 61.41C180.443 61.2217 178.485 62.5422 178.209 64.6486C178.134 65.0905 178.083 65.5148 178.033 65.9566C177.757 67.9149 179.238 70.0363 181.272 70.2221C183.331 70.4079 185.264 69.0898 185.54 66.9835C185.615 66.5416 185.665 66.1148 185.716 65.6754C185.992 63.7147 184.536 61.5957 182.477 61.41Z" fill="#6F3108"/>
<path d="M183.801 144.704C183.691 146.554 177.545 148.744 170.055 149.599C162.589 150.452 156.64 149.641 156.775 147.793C156.884 145.941 163.055 143.749 170.521 142.897C177.987 142.045 183.935 142.855 183.801 144.704Z" fill="#F7AC9B"/>
<path d="M55.8005 164.704C55.6915 166.554 49.5455 168.744 42.0548 169.599C34.5891 170.452 28.6401 169.641 28.775 167.793C28.8838 165.941 35.0548 163.749 42.5207 162.897C49.9866 162.045 55.9351 162.855 55.8005 164.704Z" fill="#F7AC9B"/>
<path d="M67.1213 158.411C85.6233 156.624 99.1643 140.144 97.3517 121.642C95.5451 103.138 79.0571 89.5922 60.5694 91.4396C42.0734 93.2252 28.5326 109.706 30.3392 128.21C32.1518 146.712 48.6397 160.257 67.1213 158.411Z" fill="white"/>
<circle cx="81.2981" cy="121.483" r="11.4325" transform="rotate(-103.379 81.2981 121.483)" fill="#070707"/>
<path d="M80.9726 118.863C81.8169 120.009 82.9926 120.967 84.2679 121.653C85.8227 122.489 88.0614 122.597 88.9417 120.726C89.6885 119.135 88.9875 117.185 87.9954 115.87C86.5592 113.969 81.7623 110.364 79.643 113.076C78.0791 115.097 79.1946 117.376 80.9726 118.863" fill="white"/>
<path d="M154.51 141.154C170.67 131.968 176.3 111.394 167.09 95.2454C157.884 79.0927 137.302 73.461 121.181 82.6971C105.026 91.8802 99.3962 112.454 108.602 128.606C117.812 144.755 138.394 150.387 154.51 141.154Z" fill="white"/>
<circle cx="152.371" cy="101.656" r="11.4325" transform="rotate(-127.482 152.371 101.656)" fill="#070707"/>
<path d="M151.004 99.3975C152.242 100.098 153.707 100.493 155.151 100.598C156.912 100.727 158.999 99.9112 159.039 97.8442C159.071 96.0861 157.635 94.5928 156.192 93.7979C154.105 92.6491 148.254 91.3166 147.427 94.6582C146.824 97.1412 148.773 98.766 151.004 99.3975" fill="white"/>
<path d="M17.9416 207.579C13.9527 207.081 11.2815 199.876 10.4444 196.336C13.4147 191.429 31.114 205.015 30.0709 208.215C29.0278 211.415 22.9277 208.202 17.9416 207.579Z" fill="#C16D49"/>
<path d="M173.897 10.7785C176.582 10.7323 174.871 13.4533 173.68 14.8196C176.281 15.4365 182.088 16.1305 184.504 13.9719C187.523 11.2736 177.454 -1.90375 173.015 0.479659C168.575 2.86307 170.541 10.8362 173.897 10.7785Z" fill="#C16D49"/>
<path d="M222.833 24.5356C222.787 24.0086 222.696 23.4817 222.378 23.0247L222.287 22.8755L222.059 22.6004L221.923 22.4231L221.65 22.1713C220.604 21.318 219.193 21.1128 217.92 21.8216C216.919 22.3718 215.918 22.9268 214.962 23.505C213.734 24.1858 213.006 25.9205 213.415 27.3055C213.916 28.793 215.099 29.6464 216.6 29.7723C218.966 29.9728 221.24 28.5645 222.423 26.4987C222.696 26.0464 222.787 25.5195 222.833 24.9879V24.7874V24.5356" fill="#C16D49"/>
<g style="mix-blend-mode:multiply">
<path d="M179.516 47.4963C179.716 47.8233 179.915 48.1511 180.114 48.4798C180.124 48.0431 180.154 47.64 180.198 47.2797C179.982 47.3523 179.755 47.4248 179.516 47.4963Z" fill="#D5BEB5" fill-opacity="0.6"/>
<path d="M187.221 61.3258C187.595 61.5108 187.988 61.6824 188.399 61.8392C196.024 64.7421 200.728 62.8957 202.127 61.6097C202.916 65.9672 206.633 74.0274 215.185 71.4076C215.691 71.2525 216.203 70.9764 216.72 70.5903C233.326 115.321 215.194 166.111 202.565 181.716C181.486 207.713 138.822 224.262 93.6071 216.856C127.49 209.05 177.375 190.736 196.077 143.636C206.899 116.379 200.098 86.9803 187.221 61.3258Z" fill="#D5BEB5" fill-opacity="0.6"/>
</g>
<g style="mix-blend-mode:multiply">
<path d="M114.5 175.5C117.7 174.3 127.167 171.333 131.5 170C124 172.5 123 179.5 117.5 181C112 182.5 110.5 177 114.5 175.5Z" fill="#D5BEB5" fill-opacity="0.6"/>
</g>
</svg>
