<svg viewBox="0 0 230 216" fill="none" xmlns="http://www.w3.org/2000/svg">
<path d="M227.902 214.099C219.103 215.731 149.585 214.779 115.925 214.099C100.928 213.822 108.426 205.942 156.916 205.067C205.406 204.193 238.899 212.06 227.902 214.099Z" fill="#39A2DB" fill-opacity="0.4"/>
<path d="M165.343 179.615C165.318 179.336 165.269 179.056 165.096 178.814L165.046 178.735L164.923 178.59L164.849 178.496L164.701 178.362C164.133 177.91 163.367 177.801 162.675 178.177C162.132 178.468 161.588 178.762 161.069 179.069C160.402 179.429 160.007 180.348 160.229 181.082C160.501 181.87 161.143 182.322 161.959 182.389C163.243 182.495 164.478 181.749 165.121 180.655C165.269 180.415 165.318 180.136 165.343 179.854V179.748V179.615" fill="#6F3108"/>
<path d="M181.216 20.3893C125.398 -17.7851 60.3902 4.04226 30.0822 33.6954C7.49078 55.7766 -3.11947 99.2155 3.78487 130.044C14.1668 176.709 45.0587 195.27 55.6691 200.562C113.874 229.697 177.053 211.883 204.265 178.324C221.779 156.681 249.879 67.3617 181.216 20.3893Z" fill="#C16D49"/>
<path d="M203.75 123.35C202.975 121.484 200.674 120.456 198.774 121.296C195.197 122.882 192.322 125.791 190.971 129.497C189.771 132.79 192.747 135.444 195.923 134.496C199.074 133.563 201.8 131.575 203.85 129.029C204.876 127.749 204.851 125.923 204 124.603C203.975 124.175 203.925 123.762 203.75 123.35Z" fill="#6F3108"/>
<path d="M93.3884 49.5079L93.234 49.4598L93.3884 49.5079ZM102.387 48.901C103.112 48.5588 103.79 47.8237 104.326 47.1071C104.855 46.5149 105.325 45.904 105.617 45.1748C105.861 44.62 106.028 43.9782 106.178 43.2677L106.238 42.9709C106.291 42.6722 106.286 42.3551 106.286 42.0398L106.317 41.6075C106.323 41.3571 106.288 41.0311 106.282 40.714C106.061 37.4279 104.373 34.1897 101.007 33.0163C96.602 31.5196 92.7597 31.2076 88.2564 32.2667C84.6739 33.1076 81.5946 35.2404 79.1323 37.8177C76.6224 40.4432 76.4621 44.7463 78.1209 47.8488C79.9869 51.3943 83.3824 52.7031 87.2544 52.8986C92.6945 53.0772 97.7155 51.3586 102.387 48.901" fill="#6F3108"/>
<path d="M180.375 96.829L180.35 96.7222L180.375 96.829ZM183.794 101.892C184.239 102.2 184.896 102.346 185.493 102.415C186.016 102.523 186.53 102.59 187.052 102.512C187.456 102.466 187.885 102.344 188.347 102.189L188.539 102.123C188.731 102.053 188.912 101.941 189.095 101.834L189.356 101.704C189.503 101.622 189.68 101.49 189.861 101.379C191.688 100.127 192.988 98.0331 192.52 95.6611C191.884 92.5703 190.755 90.2134 188.607 87.9373C186.899 86.1262 184.614 85.0508 182.283 84.4885C179.907 83.9148 177.361 85.2899 176.131 87.3206C174.714 89.6239 175.114 92.0594 176.321 94.3939C178.072 97.6411 180.778 99.9952 183.794 101.892" fill="#6F3108"/>
<path d="M126.675 14.5359L126.7 14.5483C126.13 14.6548 126.527 14.4814 126.675 14.5359ZM136.014 11.8037C135.345 9.73538 134.131 7.77607 132.051 6.92149C130.639 6.3493 129.004 6.38889 127.617 7.00319C125.486 6.61678 123.431 7.16172 122.39 9.60159C121.275 12.1752 122.985 14.8703 125.412 15.8289C127.443 16.6413 129.821 16.9634 132.001 17.0154C134.973 17.1095 136.955 14.7216 136.014 11.8037" fill="#483434"/>
<path d="M43.5546 160.88L43.5272 160.876C44.0292 160.587 43.7129 160.882 43.5546 160.88ZM35.6531 166.558C36.9707 168.287 38.7661 169.732 41.0125 169.847C42.5343 169.918 44.0633 169.338 45.1678 168.298C47.3055 167.955 49.0638 166.758 49.235 164.111C49.4319 161.314 46.9249 159.339 44.3168 159.241C42.1311 159.149 39.7812 159.635 37.7078 160.309C34.8728 161.207 33.7964 164.118 35.6531 166.558" fill="#6F3108"/>
<path d="M56.8123 17.1072C53.5275 17.5246 50.195 18.8887 47.3387 20.8025C43.8635 23.1642 41.0551 27.8877 43.8162 32.1073C46.1965 35.6906 50.957 36.5508 54.7654 36.0214C60.2875 35.2732 73.1405 29.3027 70.0938 21.3572C67.8087 15.4732 61.8584 15.0814 56.8123 17.1072" fill="#483434"/>
<path d="M185.425 42.4159C185.543 38.4422 181.793 34.6696 178.55 32.1272C176.012 27.751 169.551 29.6697 168.727 34.2946C167.979 38.5122 171.708 43.349 174.748 45.8589C176.571 47.3253 178.916 48.2191 181.228 47.5243C183.464 46.8444 185.362 44.8209 185.425 42.4159" fill="#483434"/>
<path d="M63.4989 181.531C60.578 179.182 57.5337 177.219 54.3505 175.689C52.2683 174.685 50.1943 174.274 48.6298 176.199C46.9691 178.285 47.354 181.224 48.6254 183.913L48.6694 183.982C48.8587 184.43 49.0529 184.899 49.3289 185.37C53.0048 191.182 58.9823 193.863 63.896 191.468C67.2548 189.803 66.7037 184.047 63.4989 181.531" fill="#483434"/>
<path d="M173.042 187.072C172.252 185.539 170.967 184.19 169.387 183.252C165.78 181.221 161.73 181.821 158.421 183.9C154.765 184.761 151.307 186.478 148.64 189.002C146.466 191.105 145.083 193.653 145.972 196.801C146.911 199.896 149.134 201.404 152.196 202.212C159.013 204.03 168.152 201.767 172.35 195.945C173.338 194.852 174.079 193.474 174.277 192.067C174.524 190.172 174.03 188.479 173.042 187.072Z" fill="#6F3108"/>
<path d="M46.2746 51.0454C44.1809 50.8819 41.6293 51.1388 39.732 52.1668C37.5075 52.5874 35.741 53.1657 33.8436 54.2872C29.4601 56.9215 27.4978 62.2894 29.4606 66.6936C31.0963 70.1982 34.7597 72.447 38.8816 73.0253C43.2651 73.6035 47.4524 71.5767 49.6769 68.3349C50.1348 68.0779 50.5929 67.7859 51.1164 67.4003C53.0791 65.6013 54.5839 63.9599 55.0419 61.3256C55.369 59.106 54.715 56.3141 53.014 54.5793C51.3129 52.7452 49.0225 51.2674 46.2746 51.0454Z" fill="#483434"/>
<path d="M142.246 60.923L142.014 60.865C141.643 60.6961 141.272 60.5271 140.947 60.3529C140.668 60.1259 140.39 59.9305 140.112 59.6718C137.235 57.0056 132.362 57.5705 130.181 61.0656C127.861 64.6979 128.278 69.5498 131.341 72.3902C133.94 74.8294 137.049 76.3077 140.344 76.9307C144.01 77.6118 148.001 74.2645 148.325 70.0038C148.697 65.5479 146.191 61.6621 142.246 60.923" fill="#483434"/>
<path d="M184.176 58.0176C182.142 57.8293 180.184 59.1499 179.908 61.2563C179.833 61.6981 179.782 62.1224 179.732 62.5643C179.456 64.5226 180.937 66.644 182.971 66.8298C185.03 67.0156 186.963 65.6975 187.239 63.5911C187.314 63.1493 187.365 62.7225 187.415 62.2831C187.691 60.3223 186.235 58.2034 184.176 58.0176Z" fill="#6F3108"/>
<path d="M175.857 151.252C175.407 154.637 168.962 156.546 161.443 155.517C153.948 154.492 148.252 150.917 148.727 147.545C149.176 144.157 155.647 142.251 163.141 143.278C170.636 144.305 176.331 147.877 175.857 151.252Z" fill="#F7AC9B"/>
<path d="M46.869 129.249C46.4089 132.637 39.9437 134.542 32.4616 133.516C24.9794 132.491 19.265 128.917 19.725 125.544C20.1851 122.157 26.6261 120.251 34.1324 121.278C41.6388 122.302 47.3291 125.876 46.869 129.249Z" fill="#F7AC9B"/>
<path d="M105.111 160.618C105.454 160.672 105.774 160.832 106.019 161.112C106.535 161.726 106.461 162.647 105.872 163.165C105.724 163.285 102.458 166.045 98.4309 165.552C95.9505 165.26 93.7649 163.833 91.9722 161.298C91.5056 160.645 91.6529 159.739 92.2914 159.272C92.9545 158.806 93.8631 158.953 94.3297 159.606C95.6312 161.446 97.1294 162.445 98.7748 162.671C101.501 163.005 103.932 160.979 103.956 160.967C104.3 160.687 104.718 160.567 105.111 160.618" fill="#231F20"/>
<path d="M46.8669 108.277C45.5324 117.941 52.3024 126.856 61.9693 128.177C71.6362 129.502 80.5547 122.729 81.8567 113.065C83.1912 103.405 76.4209 94.4895 66.754 93.1647C57.0871 91.8433 48.1689 98.6166 46.8669 108.277Z" fill="white"/>
<circle cx="61.6991" cy="114" r="9" fill="#070707"/>
<path d="M64.3772 115.152C63.6898 115.444 63.0575 115.928 62.5527 116.496C61.9369 117.188 61.6098 118.318 62.458 118.995C63.1801 119.569 64.2606 119.448 65.0523 119.101C66.1973 118.599 68.6209 116.587 67.4933 115.176C66.6516 114.132 65.3525 114.425 64.3772 115.152" fill="white"/>
<path d="M126.462 122.277C125.128 131.941 131.898 140.856 141.565 142.177C151.232 143.502 160.15 136.729 161.452 127.065C162.787 117.405 156.016 108.489 146.349 107.165C136.683 105.843 127.764 112.617 126.462 122.277Z" fill="white"/>
<circle cx="139.699" cy="127" r="9" fill="#070707"/>
<path d="M142.377 128.152C141.69 128.444 141.058 128.928 140.553 129.496C139.937 130.188 139.61 131.318 140.458 131.995C141.18 132.569 142.261 132.448 143.052 132.101C144.197 131.599 146.621 129.587 145.493 128.176C144.652 127.132 143.353 127.425 142.377 128.152" fill="white"/>
<path d="M11.1991 49.5C13.1991 51.9 7.36573 55.8334 4.19907 57.5C-2.80093 57.5 0.199067 43 4.19907 42.5C8.19907 42 8.69907 46.5 11.1991 49.5Z" fill="#C16D49"/>
<path d="M201.107 195.757C201.298 198.436 198.489 196.873 197.06 195.757C196.584 198.388 196.203 204.224 198.489 206.52C201.345 209.39 213.962 198.627 211.344 194.322C208.725 190.017 200.869 192.409 201.107 195.757Z" fill="#C16D49"/>
<path d="M218.699 181.143C218.654 180.616 218.563 180.089 218.244 179.632L218.153 179.483L217.926 179.208L217.789 179.031L217.516 178.779C216.47 177.926 215.06 177.72 213.786 178.429C212.785 178.979 211.784 179.534 210.829 180.113C209.6 180.794 208.872 182.528 209.282 183.913C209.782 185.401 210.965 186.254 212.466 186.38C214.832 186.58 217.107 185.172 218.289 183.106C218.562 182.654 218.654 182.127 218.699 181.596V181.395V181.143" fill="#C16D49"/>
<g style="mix-blend-mode:multiply">
<path d="M143.562 3.36414C171.005 31.6702 209.7 88.3843 190 138C171.001 185.85 119.816 203.99 85.9234 211.585C134.535 223.106 181.732 206.113 204.265 178.324C221.779 156.682 249.879 67.3617 181.216 20.3893C168.953 12.0027 156.247 6.51207 143.562 3.36414Z" fill="#D5BEB5" fill-opacity="0.6"/>
</g>
<g style="mix-blend-mode:multiply">
<path d="M130.5 90C140 87.5 153.5 92 163.5 101C147.5 91.0001 128.167 98.5 120.5 103.5C120.667 99.8333 122.9 92 130.5 90Z" fill="#D5BEB5" fill-opacity="0.6"/>
</g>
</svg>
