<svg viewBox="0 0 238 242" fill="none" xmlns="http://www.w3.org/2000/svg">
<path d="M235.902 214.099C227.103 215.731 157.585 214.779 123.925 214.099C108.928 213.822 116.426 205.942 164.916 205.067C213.406 204.193 246.899 212.06 235.902 214.099Z" fill="#39A2DB" fill-opacity="0.4"/>
<path d="M106.309 3.89631C104.969 2.98977 104.32 1.60153 104.126 0C70.131 3.44299 42.1669 21.8535 23.7318 43.498C24.9171 44.7144 25.9097 46.1691 26.6304 47.8293C27.2651 49.2914 27.6394 50.7988 27.7738 52.2966C33.6039 51.6102 39.5152 54.9088 42.0538 60.7566C44.4834 66.3531 43.0979 72.6121 39.0452 76.4621C39.1583 76.6995 39.2677 76.9396 39.3732 77.1826C44.4315 88.8346 38.6756 102.559 26.517 107.837C20.7622 110.336 14.6045 110.494 9.17821 108.732C9.10754 113.968 6.13966 118.864 1.17062 121.021C0.783879 121.189 0.393302 121.337 0 121.465C2.38553 140.49 9.15472 159.285 19.0407 172.847C47.1466 211.518 82.8746 216.242 94.7149 216.872C159.708 220.419 210.568 178.92 222.165 137.3C227.535 117.957 223.942 64.1471 190.897 29.7283C190.577 30.2883 190.217 30.7457 189.814 31.0896C183.013 36.8982 176.394 30.9846 173.935 27.3017C173.164 29.0385 169.584 32.6054 161.434 32.9787C153.284 33.3521 149.157 26.4081 148.113 22.8895C144.185 26.4396 134.125 32.5415 125.304 28.548C116.483 24.5545 115.835 11.8363 116.613 5.97645C115.036 6.53952 110.767 6.91179 106.309 3.89631Z" fill="#C16D49"/>
<g style="mix-blend-mode:multiply">
<path fill-rule="evenodd" clip-rule="evenodd" d="M168.844 31.4441C190.556 61.7117 208.943 103.195 194.077 140.636C175.077 188.486 123.893 206.626 90 214.221C95.4199 215.505 100.822 216.435 106.175 217.036C165.628 215.474 211.259 176.44 222.165 137.3C227.535 117.957 223.942 64.147 190.897 29.7283C190.577 30.2883 190.217 30.7457 189.814 31.0896C183.013 36.8982 176.394 30.9845 173.935 27.3016C173.457 28.3781 171.9 30.1577 168.844 31.4441Z" fill="#D5BEB5" fill-opacity="0.6"/>
</g>
<path d="M136.867 119.94C135.413 118.537 132.893 118.511 131.484 120.038C128.835 122.917 127.356 126.73 127.593 130.667C127.803 134.167 131.59 135.415 134.126 133.281C136.645 131.171 138.353 128.262 139.221 125.11C139.651 123.527 138.901 121.862 137.596 120.99C137.402 120.607 137.192 120.249 136.867 119.94Z" fill="#6F3108"/>
<path d="M66.1174 61.7303L65.9948 61.6249L66.1174 61.7303ZM74.6159 64.7498C75.4173 64.724 76.3317 64.3189 77.1078 63.8742C77.829 63.5411 78.5031 63.1674 79.0609 62.6143C79.5056 62.2022 79.914 61.6797 80.3335 61.0871L80.5063 60.8385C80.6744 60.5858 80.7954 60.2927 80.9211 60.0035L81.1207 59.6189C81.2259 59.3916 81.3231 59.0784 81.4441 58.7852C82.5471 55.6819 82.2849 52.0395 79.6626 49.6249C76.2154 46.5009 72.8136 44.6876 68.2603 43.8696C64.6387 43.2175 60.9654 43.9508 57.6816 45.3372C54.335 46.749 52.4777 50.6339 52.7668 54.1401C53.07 58.1352 55.6657 60.6857 59.1411 62.4039C64.0621 64.7299 69.3525 65.1484 74.6159 64.7498" fill="#6F3108"/>
<path d="M109.168 115.682L109.046 115.577L109.168 115.682ZM118.28 117.988C119.184 117.844 120.269 117.241 121.204 116.611C122.061 116.119 122.872 115.587 123.577 114.862C124.136 114.318 124.669 113.65 125.225 112.899L125.455 112.585C125.679 112.266 125.857 111.907 126.04 111.551L126.319 111.074C126.47 110.794 126.624 110.415 126.801 110.056C128.484 106.279 128.71 102.068 126.111 99.6274C122.686 96.4769 119.125 94.8486 114.129 94.5458C110.155 94.3031 105.925 95.6837 102.039 97.7701C98.0789 99.8952 95.4376 104.692 95.2608 108.739C95.0301 113.355 97.5802 115.959 101.237 117.465C106.431 119.474 112.312 119.206 118.28 117.988" fill="#6F3108"/>
<path d="M162.388 64.7781L162.323 64.69L162.388 64.7781ZM167.54 68.0611C168.071 68.1662 168.732 68.0388 169.308 67.8642C169.831 67.7547 170.329 67.6114 170.776 67.3321C171.129 67.1286 171.473 66.8467 171.836 66.5204L171.986 66.383C172.133 66.2423 172.255 66.0677 172.38 65.8964L172.568 65.6735C172.67 65.5399 172.779 65.3485 172.902 65.1739C174.079 63.2984 174.437 60.86 173.063 58.8706C171.25 56.2883 169.276 54.5759 166.399 53.3436C164.111 52.3625 161.587 52.2857 159.224 52.6983C156.817 53.1181 155.029 55.3933 154.709 57.7461C154.326 60.423 155.663 62.4979 157.7 64.1588C160.599 66.4401 164.019 67.5217 167.54 68.0611" fill="#6F3108"/>
<path d="M196.216 159.649L196.243 159.65C195.763 159.975 196.058 159.658 196.216 159.649ZM203.694 153.424C202.257 151.793 200.363 150.479 198.114 150.524C196.591 150.561 195.107 151.248 194.08 152.364C191.972 152.858 190.303 154.177 190.32 156.829C190.323 159.634 192.964 161.425 195.572 161.338C197.759 161.274 200.068 160.623 202.088 159.802C204.853 158.705 205.719 155.726 203.694 153.424" fill="#483434"/>
<path d="M98.5763 195.343L98.5497 195.35C98.8949 194.885 98.7223 195.281 98.5763 195.343ZM93.5892 203.697C95.4863 204.758 97.7087 205.369 99.8152 204.58C101.239 204.039 102.411 202.898 103.01 201.504C104.834 200.339 105.971 198.541 105.074 196.045C104.14 193.4 101.054 192.587 98.6227 193.536C96.5812 194.322 94.6191 195.703 92.9859 197.147C90.7429 199.1 90.9145 202.198 93.5892 203.697" fill="#6F3108"/>
<path d="M86.4487 16.5505C83.1524 16.8636 79.7783 18.1214 76.8628 19.9438C73.3145 22.1942 70.3579 26.8264 72.9839 31.1313C75.2494 34.7883 79.9802 35.7988 83.8035 35.3904C89.3466 34.8175 102.382 29.2572 99.5888 21.2192C97.4914 15.2658 91.5565 14.6856 86.4487 16.5505" fill="#483434"/>
<path d="M193.665 44.6656C190.05 43.6744 186.476 43.0861 182.947 42.9503C180.637 42.8583 178.571 43.3075 177.903 45.6959C177.21 48.2706 178.733 50.8134 180.97 52.7734L181.038 52.8195C181.39 53.1552 181.755 53.5078 182.196 53.8297C187.882 57.6972 194.433 57.7769 197.986 53.6227C200.405 50.7585 197.607 45.6974 193.665 44.6656" fill="#483434"/>
<path d="M205.018 122.445C203.55 121.54 201.754 121.047 199.916 121.059C195.779 121.18 192.619 123.783 190.857 127.272C188.17 129.895 186.093 133.15 185.11 136.688C184.333 139.611 184.464 142.508 186.849 144.745C189.25 146.912 191.933 147.058 194.973 146.169C201.75 144.21 208.411 137.556 209.004 130.403C209.286 128.957 209.21 127.394 208.653 126.087C207.887 124.335 206.591 123.141 205.018 122.445Z" fill="#6F3108"/>
<path d="M20.0998 112C18.1142 112.683 15.876 113.935 14.5449 115.634C12.6719 116.905 11.2818 118.139 9.98796 119.923C7.01599 124.085 7.35359 129.791 10.9078 133.049C13.8038 135.613 18.0598 136.216 22.071 135.106C26.3222 133.89 29.356 130.364 30.1056 126.504C30.4234 126.086 30.7273 125.636 31.0539 125.074C32.138 122.642 32.8647 120.537 32.2358 117.938C31.652 115.772 29.9403 113.471 27.6891 112.557C25.3983 111.552 22.7088 111.109 20.0998 112Z" fill="#483434"/>
<path d="M72.5549 191.424L72.319 191.463C71.9112 191.456 71.5035 191.448 71.1361 191.418C70.7903 191.321 70.4572 191.252 70.0988 191.126C66.398 189.826 62.1532 192.284 61.5444 196.359C60.8625 200.615 63.1777 204.899 67.1182 206.285C70.4732 207.488 73.914 207.605 77.1843 206.865C80.8183 206.03 83.1462 201.37 81.7475 197.333C80.3136 193.097 76.4674 190.531 72.5549 191.424" fill="#483434"/>
<path d="M106.588 33.9409C104.648 34.578 103.377 36.5692 103.963 38.6113C104.07 39.0466 104.192 39.4558 104.322 39.8811C104.849 41.7874 107.052 43.1435 108.992 42.5041C110.954 41.8548 112.203 39.8759 111.617 37.8338C111.51 37.3984 111.386 36.9869 111.258 36.5639C110.73 34.6554 108.55 33.2916 106.588 33.9409Z" fill="#6F3108"/>
<path d="M85.9598 140.434C79.5598 153.234 59.9598 152.434 50.9598 150.434V218.934C50.9598 229.434 30.9598 234.934 37.4598 240.434C42.6598 244.834 60.2931 236.601 68.4598 231.934C67.2931 233.934 66.1598 238.434 70.9598 240.434C75.7598 242.434 81.2931 237.601 83.4598 234.934C85.9598 240.934 93.4598 233.434 92.9598 221.934C92.5598 212.734 88.1265 163.768 85.9598 140.434Z" fill="#56ACE0"/>
<path d="M184.46 98.4343C180.06 108.834 162.293 108.768 153.96 107.434C153.96 139.934 153.36 207.734 150.96 218.934C147.96 232.934 140.46 234.934 145.96 240.434C150.36 244.834 165.46 236.601 172.46 231.934C173.626 234.768 177.66 240.434 184.46 240.434C191.26 240.434 187.293 229.768 184.46 224.434C192.46 226.934 197.46 224.434 195.46 218.934C193.46 213.434 186.96 212.934 186.96 204.934C186.96 198.534 185.293 131.268 184.46 98.4343Z" fill="#56ACE0"/>
<path d="M45.9598 147.384C55.5158 151.836 77.5205 155.879 89.0917 136.434" stroke="black" stroke-width="3" stroke-linecap="round"/>
<path d="M42.09 140.489C50.7427 146.511 71.7306 154.261 86.4595 137.084" stroke="black" stroke-width="4" stroke-linecap="round"/>
<path d="M145.96 103.384C155.516 107.836 177.521 111.879 189.092 92.4343" stroke="black" stroke-width="3" stroke-linecap="round"/>
<path d="M147.386 103.722C157.495 106.712 179.856 107.455 188.423 86.5115" stroke="black" stroke-width="3" stroke-linecap="round"/>
<path d="M162.303 187.439C169.563 173.846 147.629 156.33 117.2 164.54C86.7707 172.746 80.798 199.543 92.6401 206.226C99.4365 210.053 109.373 200.914 127.188 196.095C145.106 191.281 158.699 194.174 162.303 187.439" fill="#231F20"/>
<path d="M147.182 187.357C147.182 187.357 136.727 170.063 120.947 174.31C108.055 178.628 105.28 192.895 108.055 195.902C110.882 198.909 117.524 188.81 147.182 187.357Z" fill="#F7AC9B"/>
<path d="M206.645 212.934C198.245 214.534 197.478 198.601 198.145 190.434C200.645 198.434 206.645 199.434 209.645 201.434C212.645 203.434 217.145 210.934 206.645 212.934Z" fill="#56ACE0"/>
<g style="mix-blend-mode:multiply">
<path d="M186.598 225.001C193.324 226.446 197.275 223.926 195.46 218.934C194.652 216.712 193.109 215.306 191.557 213.892C189.268 211.806 186.96 209.702 186.96 204.934C186.96 198.534 185.293 131.268 184.46 98.4343C182.834 102.278 179.382 104.692 175.255 106.141C175.708 130.77 176.528 166.116 177.5 182C177.755 186.157 177.764 190.112 177.774 193.873C177.804 206.272 177.83 216.56 186.598 225.001Z" fill="#56ACE0" fill-opacity="0.4"/>
<path d="M68.8481 239.08C69.3697 239.597 70.0606 240.06 70.9598 240.434C75.7598 242.434 81.2932 237.601 83.4598 234.934C85.9598 240.934 93.4598 233.434 92.9598 221.934C92.5598 212.734 88.1265 163.768 85.9598 140.434C84.318 143.718 81.8073 146.107 78.8298 147.81C82.0617 172.318 86.3953 209.931 85 219C84.104 224.824 76.8932 232.384 68.8481 239.08Z" fill="#56ACE0" fill-opacity="0.4"/>
</g>
<g style="mix-blend-mode:multiply">
<path d="M175 94C173.8 86 161.5 74.3333 155.5 69.5C165.1 57.9 179.833 74.3333 186 84C183.6 90.4 177.667 93.3333 175 94Z" fill="#D5BEB5" fill-opacity="0.6"/>
</g>
<g style="mix-blend-mode:multiply">
<path d="M63.5 104C76.7 103.2 84.6667 121 87 130C82.2 136.4 74.3333 139.333 71 140C70.6 130.4 65.8333 112 63.5 104Z" fill="#D5BEB5" fill-opacity="0.6"/>
</g>
</svg>
