<svg width="292" height="287" viewBox="0 0 292 287" fill="none" xmlns="http://www.w3.org/2000/svg">
<path fill-rule="evenodd" clip-rule="evenodd" d="M141.35 38.8856C140.01 37.9791 139.36 36.5908 139.166 34.9893C105.288 38.4204 77.3998 56.7161 58.9629 78.2637C60.064 79.4385 60.9888 80.8249 61.6705 82.3951C62.3052 83.8573 62.6796 85.3646 62.814 86.8624C68.644 86.176 74.5553 89.4747 77.0939 95.3225C79.5235 100.919 78.138 107.178 74.0853 111.028C74.1984 111.265 74.3078 111.505 74.4133 111.748C79.4716 123.4 73.7157 137.125 61.5572 142.403C55.8024 144.902 49.6447 145.06 44.2183 143.298C44.1477 148.534 41.1798 153.43 36.2107 155.587C35.8075 155.762 35.4001 155.915 34.9898 156.047C37.3293 175.211 44.1243 194.178 54.0808 207.836C82.1867 246.508 117.915 251.231 129.755 251.861C194.748 255.409 245.608 213.909 257.205 172.289C262.575 152.946 258.982 99.1364 225.937 64.7177C225.617 65.2776 225.257 65.735 224.854 66.0789C218.053 71.8875 211.434 65.9739 208.975 62.291C208.204 64.0278 204.624 67.5947 196.474 67.9681C188.324 68.3414 184.197 61.3975 183.153 57.8788C179.225 61.4289 169.165 67.5308 160.344 63.5373C151.523 59.5438 150.875 46.8256 151.654 40.9658C150.076 41.5288 145.807 41.9011 141.35 38.8856Z" fill="#C16D49"/>
<path d="M171.907 155.506C170.453 154.103 167.933 154.076 166.525 155.604C163.876 158.482 162.396 162.296 162.633 166.233C162.843 169.732 166.63 170.981 169.166 168.847C171.685 166.737 173.394 163.827 174.261 160.675C174.692 159.092 173.942 157.428 172.636 156.555C172.443 156.173 172.232 155.814 171.907 155.506Z" fill="#6F3108"/>
<path d="M101.157 97.296L101.035 97.1906L101.157 97.296ZM109.656 100.315C110.457 100.29 111.372 99.8845 112.148 99.4398C112.869 99.1067 113.543 98.733 114.101 98.1799C114.546 97.7679 114.954 97.2454 115.374 96.6528L115.546 96.4042C115.714 96.1515 115.836 95.8584 115.961 95.5692L116.161 95.1845C116.266 94.9573 116.363 94.6441 116.484 94.3509C117.587 91.2476 117.325 87.6051 114.703 85.1906C111.256 82.0666 107.854 80.2532 103.3 79.4353C99.6788 78.7832 96.0055 79.5165 92.7217 80.9029C89.3751 82.3146 87.5178 86.1996 87.8069 89.7058C88.1101 93.7009 90.7058 96.2513 94.1812 97.9696C99.1022 100.296 104.393 100.714 109.656 100.315Z" fill="#6F3108"/>
<path d="M144.208 151.248L144.086 151.143L144.208 151.248ZM153.32 153.554C154.224 153.409 155.309 152.806 156.244 152.177C157.102 151.685 157.912 151.153 158.618 150.428C159.176 149.884 159.709 149.216 160.265 148.465L160.495 148.15C160.72 147.832 160.897 147.472 161.08 147.117L161.359 146.64C161.51 146.36 161.664 145.981 161.841 145.621C163.524 141.844 163.75 137.634 161.151 135.193C157.726 132.043 154.165 130.414 149.169 130.111C145.195 129.869 140.965 131.249 137.079 133.336C133.119 135.461 130.478 140.257 130.301 144.305C130.07 148.921 132.62 151.524 136.278 153.031C141.471 155.04 147.353 154.772 153.32 153.554" fill="#6F3108"/>
<path d="M197.428 100.344L197.363 100.256L197.428 100.344ZM202.58 103.627C203.111 103.732 203.772 103.604 204.348 103.43C204.871 103.32 205.369 103.177 205.816 102.898C206.169 102.694 206.514 102.412 206.876 102.086L207.026 101.949C207.173 101.808 207.296 101.633 207.42 101.462L207.608 101.239C207.71 101.106 207.82 100.914 207.942 100.74C209.119 98.8641 209.477 96.4257 208.103 94.4362C206.29 91.8539 204.316 90.1416 201.439 88.9093C199.151 87.9281 196.627 87.8514 194.264 88.264C191.857 88.6838 190.069 90.959 189.749 93.3118C189.367 95.9887 190.703 98.0636 192.74 99.7245C195.639 102.006 199.059 103.087 202.58 103.627Z" fill="#6F3108"/>
<path d="M231.256 195.214L231.284 195.216C230.803 195.541 231.098 195.224 231.256 195.214ZM238.734 188.99C237.297 187.359 235.403 186.045 233.155 186.089C231.632 186.127 230.148 186.814 229.12 187.93C227.012 188.424 225.343 189.742 225.36 192.395C225.363 195.199 228.004 196.991 230.612 196.903C232.799 196.84 235.108 196.188 237.129 195.368C239.893 194.271 240.76 191.291 238.734 188.99Z" fill="#483434"/>
<path d="M133.616 230.908L133.59 230.916C133.935 230.45 133.762 230.847 133.616 230.908ZM128.629 239.263C130.526 240.324 132.749 240.935 134.855 240.146C136.28 239.605 137.451 238.464 138.05 237.07C139.874 235.904 141.011 234.107 140.114 231.61C139.18 228.966 136.094 228.153 133.663 229.101C131.621 229.887 129.659 231.269 128.026 232.713C125.783 234.666 125.955 237.764 128.629 239.263Z" fill="#6F3108"/>
<path d="M121.489 52.1162C118.193 52.4293 114.818 53.6871 111.903 55.5095C108.355 57.7599 105.398 62.392 108.024 66.697C110.29 70.3539 115.02 71.3645 118.844 70.9561C124.387 70.3832 137.422 64.8229 134.629 56.7849C132.532 50.8315 126.597 50.2513 121.489 52.1162Z" fill="#483434"/>
<path d="M228.705 80.2313C225.091 79.2401 221.516 78.6518 217.987 78.5159C215.677 78.424 213.611 78.8732 212.943 81.2616C212.25 83.8363 213.773 86.3791 216.01 88.3391L216.078 88.3852C216.43 88.7208 216.795 89.0735 217.236 89.3954C222.922 93.2629 229.473 93.3426 233.027 89.1884C235.445 86.3242 232.647 81.2631 228.705 80.2313Z" fill="#483434"/>
<path d="M240.059 158.011C238.591 157.105 236.794 156.613 234.956 156.625C230.819 156.745 227.659 159.349 225.897 162.837C223.21 165.461 221.133 168.715 220.15 172.254C219.374 175.177 219.504 178.073 221.89 180.311C224.29 182.478 226.973 182.623 230.013 181.735C236.79 179.775 243.451 173.122 244.044 165.968C244.326 164.522 244.25 162.96 243.694 161.652C242.927 159.901 241.631 158.706 240.059 158.011Z" fill="#6F3108"/>
<path d="M55.1399 147.565C53.1543 148.249 50.9161 149.501 49.585 151.199C47.712 152.471 46.3219 153.705 45.0281 155.489C42.0561 159.651 42.3937 165.356 45.9479 168.615C48.8439 171.178 53.0999 171.782 57.1111 170.671C61.3623 169.456 64.3961 165.929 65.1457 162.07C65.4635 161.652 65.7674 161.202 66.094 160.639C67.1781 158.208 67.9048 156.103 67.2759 153.504C66.6921 151.338 64.9804 149.037 62.7292 148.123C60.4384 147.118 57.7489 146.675 55.1399 147.565Z" fill="#483434"/>
<path d="M107.595 226.989L107.359 227.028C106.951 227.021 106.544 227.014 106.176 226.984C105.831 226.886 105.497 226.818 105.139 226.692C101.438 225.392 97.1934 227.85 96.5846 231.925C95.9027 236.18 98.2179 240.465 102.158 241.851C105.513 243.053 108.954 243.171 112.225 242.431C115.859 241.595 118.186 236.936 116.788 232.898C115.354 228.663 111.508 226.097 107.595 226.989Z" fill="#483434"/>
<path d="M141.628 69.5066C139.688 70.1437 138.417 72.1348 139.003 74.177C139.11 74.6123 139.233 75.0215 139.363 75.4468C139.889 77.3531 142.093 78.7092 144.032 78.0698C145.994 77.4204 147.243 75.4416 146.657 73.3994C146.55 72.9641 146.427 72.5526 146.298 72.1296C145.77 70.221 143.591 68.8572 141.628 69.5066Z" fill="#6F3108"/>
<path d="M121 176C114.6 188.8 95 188 86 186V254.5C86 265 66 270.5 72.5 276C77.7 280.4 95.3333 272.167 103.5 267.5C102.333 269.5 101.2 274 106 276C110.8 278 116.333 273.167 118.5 270.5C121 276.5 128.5 269 128 257.5C127.6 248.3 123.167 199.333 121 176Z" fill="#56ACE0"/>
<path d="M219.5 134C215.1 144.4 197.333 144.333 189 143C189 175.5 188.4 243.3 186 254.5C183 268.5 175.5 270.5 181 276C185.4 280.4 200.5 272.167 207.5 267.5C208.667 270.333 212.7 276 219.5 276C226.3 276 222.333 265.333 219.5 260C227.5 262.5 232.5 260 230.5 254.5C228.5 249 222 248.5 222 240.5C222 234.1 220.333 166.833 219.5 134Z" fill="#56ACE0"/>
<path d="M81 182.949C90.556 187.402 112.561 191.445 124.132 172" stroke="black" stroke-width="3" stroke-linecap="round"/>
<path d="M77.1301 176.054C85.7828 182.077 106.771 189.827 121.5 172.65" stroke="black" stroke-width="4" stroke-linecap="round"/>
<path d="M181 138.949C190.556 143.402 212.561 147.445 224.132 128" stroke="black" stroke-width="3" stroke-linecap="round"/>
<path d="M182.426 139.288C192.535 142.277 214.896 143.02 223.463 122.077" stroke="black" stroke-width="3" stroke-linecap="round"/>
<path d="M197.343 223.005C204.603 209.412 182.669 191.896 152.24 200.106C121.811 208.311 115.838 235.109 127.68 241.791C134.477 245.619 144.414 236.479 162.228 231.661C180.146 226.847 193.739 229.74 197.343 223.005Z" fill="#231F20"/>
<path d="M182.222 222.922C182.222 222.922 171.767 205.629 155.987 209.876C143.096 214.194 140.32 228.461 143.096 231.468C145.923 234.474 152.564 224.376 182.222 222.922Z" fill="#F7AC9B"/>
<path d="M241.685 248.5C233.285 250.1 232.519 234.167 233.185 226C235.685 234 241.685 235 244.685 237C247.685 239 252.185 246.5 241.685 248.5Z" fill="#56ACE0"/>
</svg>
