<svg width="88" height="87" viewBox="0 0 88 87" fill="none" xmlns="http://www.w3.org/2000/svg">
<path d="M23.4999 0.500007C28.6999 -1.89999 39.3333 11.8333 43.9999 19C53.3333 12.1667 74 -1.1 82 0.500007C90 2.10001 71.1667 22.3333 64.5 33.5C70.3333 40 89 56.2 87 59C85 61.8 61 52.3333 51.5 48.5C50.6667 59.5 51.6 84.4 43.9999 86C36.3999 87.6 30.5 61.6667 28.5 48.5C19.6667 51.1667 1.69997 55.4 0.499974 51C-0.700026 46.6 16.3333 37.5 24.9999 33.5C22.3333 23.5 18.2999 2.90001 23.4999 0.500007Z" fill="#FFC10D"/>
<path d="M16.5 29C13.3333 22.6667 6.20001 10.8 3.00001 14C-0.999995 18 9 29 16.5 29Z" fill="#FFC10D"/>
</svg>
