<svg width="55" height="55" viewBox="0 0 55 55" fill="none" xmlns="http://www.w3.org/2000/svg">
<path d="M54.061 0.939012C53.475 0.353012 52.526 0.353012 51.94 0.939012L34.41 18.469C32.319 19.164 27.921 20.666 23.121 22.546C19.793 23.85 16.278 25.332 13.209 26.856C10.135 28.388 7.519 29.93 5.903 31.492C2.296 35.007 0.367996 39.483 0.363996 43.652C0.359996 46.56 1.324 49.34 3.35 51.419C5.458 53.588 8.35699 54.622 11.4 54.619C15.464 54.615 19.834 52.815 23.339 49.408C24.957 47.822 26.527 45.203 28.082 42.106C31.861 34.547 35.37 24.164 36.542 20.579L54.061 3.06101C54.646 2.47501 54.646 1.52501 54.061 0.939012ZM17.063 42.958C14.749 45.211 12.384 47.056 10.314 48.317C9.28 48.949 8.319 49.434 7.489 49.754C6.66 50.075 5.959 50.222 5.491 50.219C5.272 50.219 5.108 50.19 4.999 50.152C4.888 50.113 4.831 50.072 4.784 50.025C4.74 49.979 4.703 49.924 4.668 49.823C4.634 49.722 4.607 49.574 4.607 49.377C4.604 48.927 4.755 48.235 5.091 47.415C6.091 44.936 8.666 41.354 12.18 37.943C13.58 36.579 15.826 34.74 18.382 32.778C22.218 29.833 26.767 26.592 30.352 24.092C31.05 23.605 31.697 23.157 32.31 22.734C30.81 24.954 28.858 27.799 26.786 30.703C25.053 33.133 23.237 35.6 21.545 37.762C19.854 39.92 18.277 41.777 17.063 42.958ZM7.298 32.926C8.597 31.652 11.113 30.124 14.098 28.648C18.582 26.42 24.147 24.24 28.577 22.624C28.851 22.524 29.106 22.433 29.371 22.337C28.126 23.205 26.763 24.163 25.347 25.171C22.64 27.099 19.75 29.206 17.163 31.192C14.575 33.179 12.299 35.038 10.785 36.509C8.346 38.884 6.333 41.322 4.91 43.532C4.199 44.638 3.635 45.688 3.238 46.661C3.156 46.864 3.085 47.062 3.017 47.26C2.585 46.154 2.366 44.938 2.364 43.653C2.359 40.107 4.041 36.091 7.298 32.926ZM25.729 42.313C24.416 44.82 23.076 46.881 21.944 47.974C18.787 51.05 14.867 52.622 11.399 52.619C10.002 52.617 8.69 52.36 7.509 51.863C7.737 51.791 7.968 51.711 8.205 51.62C11.124 50.489 14.831 47.91 18.456 44.391C19.981 42.905 21.861 40.634 23.86 38.036C26.873 34.118 30.136 29.465 32.637 25.806C31.77 28.238 30.72 31.056 29.568 33.882C28.363 36.841 27.048 39.804 25.729 42.313Z" fill="white"/>
</svg>
