<svg width="933" height="343" viewBox="0 0 933 343" fill="none" xmlns="http://www.w3.org/2000/svg">
<path d="M84.1086 197.2C69.3086 197.2 55.9753 194.133 44.1086 188C32.2419 181.733 22.9086 173.067 16.1086 162C9.44193 150.8 6.10859 138.133 6.10859 124C6.10859 109.867 9.44193 97.2667 16.1086 86.2C22.9086 75 32.2419 66.3333 44.1086 60.2C55.9753 53.9333 69.3086 50.8 84.1086 50.8C97.7086 50.8 109.842 53.2 120.509 58C131.175 62.8 139.975 69.7333 146.909 78.8L117.109 105.4C108.442 94.4667 98.2419 89 86.5086 89C76.6419 89 68.7086 92.2 62.7086 98.6C56.7086 104.867 53.7086 113.333 53.7086 124C53.7086 134.667 56.7086 143.2 62.7086 149.6C68.7086 155.867 76.6419 159 86.5086 159C98.2419 159 108.442 153.533 117.109 142.6L146.909 169.2C139.975 178.267 131.175 185.2 120.509 190C109.842 194.8 97.7086 197.2 84.1086 197.2ZM246.007 197.2C230.94 197.2 217.407 194.067 205.407 187.8C193.407 181.533 184.007 172.867 177.207 161.8C170.407 150.6 167.007 138 167.007 124C167.007 110 170.407 97.4667 177.207 86.4C184.007 75.2 193.407 66.4667 205.407 60.2C217.407 53.9333 230.94 50.8 246.007 50.8C261.074 50.8 274.607 53.9333 286.607 60.2C298.607 66.4667 308.007 75.2 314.807 86.4C321.607 97.4667 325.007 110 325.007 124C325.007 138 321.607 150.6 314.807 161.8C308.007 172.867 298.607 181.533 286.607 187.8C274.607 194.067 261.074 197.2 246.007 197.2ZM246.007 159C251.874 159 257.14 157.6 261.807 154.8C266.607 151.867 270.407 147.8 273.207 142.6C276.007 137.267 277.407 131.067 277.407 124C277.407 116.933 276.007 110.8 273.207 105.6C270.407 100.267 266.607 96.2 261.807 93.4C257.14 90.4667 251.874 89 246.007 89C240.14 89 234.807 90.4667 230.007 93.4C225.34 96.2 221.607 100.267 218.807 105.6C216.007 110.8 214.607 116.933 214.607 124C214.607 131.067 216.007 137.267 218.807 142.6C221.607 147.8 225.34 151.867 230.007 154.8C234.807 157.6 240.14 159 246.007 159ZM430.538 197.2C415.472 197.2 401.938 194.067 389.938 187.8C377.938 181.533 368.538 172.867 361.738 161.8C354.938 150.6 351.538 138 351.538 124C351.538 110 354.938 97.4667 361.738 86.4C368.538 75.2 377.938 66.4667 389.938 60.2C401.938 53.9333 415.472 50.8 430.538 50.8C445.605 50.8 459.138 53.9333 471.138 60.2C483.138 66.4667 492.538 75.2 499.338 86.4C506.138 97.4667 509.538 110 509.538 124C509.538 138 506.138 150.6 499.338 161.8C492.538 172.867 483.138 181.533 471.138 187.8C459.138 194.067 445.605 197.2 430.538 197.2ZM430.538 159C436.405 159 441.672 157.6 446.338 154.8C451.138 151.867 454.938 147.8 457.738 142.6C460.538 137.267 461.938 131.067 461.938 124C461.938 116.933 460.538 110.8 457.738 105.6C454.938 100.267 451.138 96.2 446.338 93.4C441.672 90.4667 436.405 89 430.538 89C424.672 89 419.338 90.4667 414.538 93.4C409.872 96.2 406.138 100.267 403.338 105.6C400.538 110.8 399.138 116.933 399.138 124C399.138 131.067 400.538 137.267 403.338 142.6C406.138 147.8 409.872 151.867 414.538 154.8C419.338 157.6 424.672 159 430.538 159ZM598.67 147.6L588.07 159.4V194H541.67V54H588.07V104.8L634.07 54H685.47L629.47 115.6L688.27 194H633.67L598.67 147.6ZM709.599 54H756.799V194H709.599V54ZM910.921 158.4V194H794.521V54H908.321V89.6H840.921V106H900.121V140H840.921V158.4H910.921Z" fill="#C16D49"/>
<path d="M306.482 190.536C306.463 190.311 306.423 190.086 306.283 189.891L306.244 189.828L306.144 189.71L306.084 189.635L305.965 189.527C305.507 189.163 304.89 189.075 304.333 189.378C303.895 189.613 303.457 189.85 303.039 190.096C302.501 190.387 302.183 191.127 302.362 191.719C302.581 192.354 303.099 192.718 303.755 192.772C304.79 192.857 305.786 192.256 306.303 191.374C306.423 191.181 306.463 190.956 306.482 190.729V190.644V190.536" fill="#6F3108"/>
<path d="M310.652 61.4296C265.674 30.6693 213.292 48.2574 188.871 72.1514C170.667 89.944 162.117 124.946 167.681 149.787C176.046 187.389 200.938 202.345 209.488 206.61C256.388 230.086 307.297 215.732 329.224 188.69C343.337 171.251 365.979 99.2791 310.652 61.4296Z" fill="#C16D49"/>
<path d="M337.431 145.199C336.806 143.695 334.952 142.867 333.42 143.544C330.539 144.822 328.222 147.166 327.133 150.152C326.166 152.806 328.564 154.944 331.123 154.18C333.662 153.429 335.859 151.827 337.511 149.775C338.338 148.743 338.317 147.272 337.632 146.208C337.612 145.864 337.572 145.531 337.431 145.199Z" fill="#6F3108"/>
<path d="M271.91 109.962L271.806 109.839L271.91 109.962ZM279.797 114.293C280.591 114.396 281.556 114.143 282.391 113.829C283.155 113.616 283.878 113.356 284.516 112.9C285.02 112.566 285.505 112.116 286.013 111.6L286.223 111.382C286.429 111.16 286.595 110.891 286.765 110.626L287.023 110.279C287.163 110.072 287.309 109.779 287.475 109.51C289.057 106.63 289.38 103.001 287.183 100.204C284.288 96.5768 281.227 94.2475 276.873 92.7146C273.411 91.4939 269.676 91.6293 266.221 92.4701C262.699 93.3259 260.25 96.8552 259.974 100.354C259.635 104.337 261.784 107.264 264.932 109.511C269.407 112.588 274.55 113.845 279.797 114.293" fill="#6F3108"/>
<path d="M214.861 85.3173L214.834 85.4013L214.861 85.3173ZM214.612 80.4008C214.433 80.003 214.041 79.6286 213.658 79.3321C213.342 79.0397 213.015 78.7796 212.623 78.6161C212.324 78.4795 211.978 78.3847 211.595 78.2991L211.435 78.2647C211.273 78.2336 211.102 78.2348 210.931 78.2328L210.697 78.2138C210.562 78.209 210.385 78.2264 210.213 78.2276C208.431 78.3298 206.663 79.2332 205.998 81.0643C205.148 83.4608 204.946 85.5568 205.479 88.0216C205.903 89.9823 207.031 91.6757 208.405 93.0347C209.805 94.4199 212.134 94.5319 213.828 93.6438C215.765 92.6451 216.504 90.7986 216.644 88.6856C216.788 85.7164 215.902 82.9653 214.612 80.4008" fill="#6F3108"/>
<path d="M275.325 57.5184L275.345 57.5284C274.886 57.6143 275.205 57.4745 275.325 57.5184ZM282.85 55.3169C282.311 53.6503 281.333 52.0715 279.656 51.3829C278.519 50.9218 277.201 50.9537 276.083 51.4487C274.367 51.1374 272.71 51.5765 271.872 53.5425C270.974 55.6163 272.351 57.7879 274.307 58.5603C275.944 59.215 277.86 59.4745 279.616 59.5164C282.011 59.5922 283.608 57.6681 282.85 55.3169" fill="#483434"/>
<path d="M206.256 151.887L206.202 151.875C207.147 151.27 206.569 151.916 206.256 151.887ZM191.541 164.032C194.402 168.298 198.163 171.969 202.61 172.582C205.621 172.981 208.548 171.85 210.567 169.573C214.73 169.093 218.015 166.547 217.949 160.35C217.911 153.803 212.667 148.778 207.509 148.15C203.186 147.6 198.626 148.384 194.64 149.655C189.187 151.334 187.508 158.013 191.541 164.032" fill="#6F3108"/>
<path d="M235.512 67.3991C231.711 67.882 227.855 69.4604 224.55 71.6749C220.529 74.4077 217.279 79.8731 220.474 84.7556C223.228 88.9018 228.737 89.8971 233.143 89.2846C239.533 88.4188 254.405 81.5104 250.88 72.3168C248.236 65.5085 241.351 65.055 235.512 67.3991" fill="#483434"/>
<path d="M326.13 91.2648C326.225 88.0629 323.203 85.023 320.59 82.9744C318.545 79.4482 313.339 80.9942 312.675 84.7209C312.072 88.1193 315.077 92.0168 317.526 94.0392C318.996 95.2208 320.885 95.941 322.748 95.3812C324.55 94.8333 326.079 93.2027 326.13 91.2648" fill="#483434"/>
<path d="M224.419 192.08C222.065 190.188 219.612 188.606 217.047 187.373C215.369 186.564 213.698 186.233 212.437 187.784C211.099 189.465 211.409 191.833 212.434 193.999L212.469 194.055C212.622 194.416 212.778 194.794 213.001 195.173C215.963 199.857 220.779 202.018 224.739 200.087C227.445 198.746 227.001 194.107 224.419 192.08" fill="#483434"/>
<path d="M299.231 185.264C298.594 184.029 297.559 182.942 296.285 182.186C293.379 180.55 290.116 181.033 287.449 182.708C284.503 183.402 281.717 184.785 279.567 186.819C277.816 188.514 276.702 190.567 277.418 193.103C278.174 195.597 279.965 196.813 282.433 197.463C287.926 198.928 295.29 197.105 298.673 192.414C299.469 191.533 300.066 190.423 300.226 189.289C300.425 187.762 300.027 186.398 299.231 185.264Z" fill="#6F3108"/>
<path d="M230.926 121.596C229.239 121.428 227.183 121.692 225.655 122.745C223.862 123.175 222.439 123.768 220.91 124.917C217.378 127.615 215.796 133.113 217.378 137.625C218.696 141.215 221.648 143.518 224.969 144.11C228.501 144.703 231.875 142.626 233.668 139.306C234.037 139.043 234.406 138.743 234.828 138.349C236.409 136.506 237.622 134.825 237.991 132.126C238.255 129.853 237.728 126.993 236.357 125.216C234.986 123.337 233.141 121.823 230.926 121.596Z" fill="#483434"/>
<path d="M285.494 142.436L285.809 142.357C286.312 142.128 286.816 141.899 287.257 141.662C287.634 141.354 288.012 141.089 288.39 140.739C292.293 137.122 298.903 137.888 301.861 142.629C305.009 147.557 304.442 154.139 300.287 157.992C296.762 161.301 292.544 163.306 288.075 164.151C283.102 165.075 277.688 160.534 277.247 154.754C276.744 148.71 280.143 143.439 285.494 142.436" fill="#483434"/>
<path d="M242.934 195.695C241.295 195.544 239.717 196.608 239.495 198.305C239.434 198.661 239.393 199.003 239.353 199.359C239.13 200.937 240.324 202.646 241.963 202.796C243.621 202.946 245.179 201.884 245.402 200.186C245.462 199.83 245.503 199.486 245.543 199.132C245.766 197.552 244.592 195.845 242.934 195.695Z" fill="#6F3108"/>
<g style="mix-blend-mode:overlay" opacity="0.5">
<path d="M302.732 70.2541C264.476 44.091 219.923 59.0506 199.151 79.3736C183.668 94.5071 176.396 124.278 181.128 145.407C188.243 177.389 209.415 190.11 216.687 193.737C256.578 213.705 299.879 201.496 318.528 178.496C330.532 163.663 349.79 102.447 302.732 70.2541Z" fill="#BDA79E"/>
</g>
<path d="M566.078 284.6C558.238 284.6 552.118 282.4 547.718 278C543.398 273.52 541.238 267.64 541.238 260.36C541.238 253.88 542.518 248.2 545.078 243.32C547.638 238.44 550.958 234.68 555.038 232.04C559.118 229.4 563.398 228.08 567.878 228.08C572.278 228.08 575.678 229.4 578.078 232.04C580.558 234.6 581.798 237.92 581.798 242C581.798 245.36 581.038 248.2 579.518 250.52C578.078 252.84 576.158 254 573.758 254C572.238 254 570.998 253.64 570.038 252.92C569.158 252.2 568.718 251.2 568.718 249.92C568.718 249.36 568.798 248.72 568.958 248C569.118 247.28 569.238 246.76 569.318 246.44C569.718 245.24 569.918 244.12 569.918 243.08C569.918 242.04 569.638 241.24 569.078 240.68C568.598 240.12 567.878 239.84 566.918 239.84C565.078 239.84 563.358 240.68 561.758 242.36C560.158 243.96 558.878 246.16 557.918 248.96C556.958 251.76 556.478 254.84 556.478 258.2C556.478 267.48 560.518 272.12 568.598 272.12C571.878 272.12 575.398 271.04 579.158 268.88C582.998 266.64 586.758 263.32 590.438 258.92C591.398 257.8 592.478 257.24 593.678 257.24C594.718 257.24 595.518 257.72 596.078 258.68C596.718 259.64 597.038 260.96 597.038 262.64C597.038 265.68 596.278 268.16 594.758 270.08C590.998 274.72 586.478 278.32 581.198 280.88C575.998 283.36 570.958 284.6 566.078 284.6ZM641.818 257.24C642.858 257.24 643.658 257.72 644.218 258.68C644.858 259.64 645.178 260.96 645.178 262.64C645.178 265.84 644.418 268.32 642.898 270.08C639.458 274.32 635.698 277.8 631.618 280.52C627.618 283.24 623.058 284.6 617.938 284.6C610.898 284.6 605.658 281.4 602.218 275C598.858 268.6 597.178 260.32 597.178 250.16C597.178 240.4 598.418 229.28 600.898 216.8C603.458 204.32 607.178 193.6 612.058 184.64C617.018 175.68 622.898 171.2 629.698 171.2C633.538 171.2 636.538 173 638.698 176.6C640.938 180.12 642.058 185.2 642.058 191.84C642.058 201.36 639.418 212.4 634.138 224.96C628.858 237.52 621.698 249.96 612.658 262.28C613.218 265.56 614.138 267.92 615.418 269.36C616.698 270.72 618.378 271.4 620.458 271.4C623.738 271.4 626.618 270.48 629.098 268.64C631.578 266.72 634.738 263.48 638.578 258.92C639.538 257.8 640.618 257.24 641.818 257.24ZM627.058 183.08C625.218 183.08 623.138 186.4 620.818 193.04C618.498 199.68 616.458 207.92 614.698 217.76C612.938 227.6 611.978 237.04 611.818 246.08C617.498 236.72 622.018 227.36 625.378 218C628.738 208.56 630.418 199.96 630.418 192.2C630.418 186.12 629.298 183.08 627.058 183.08ZM660.199 220.16C656.839 220.16 654.319 219.4 652.639 217.88C650.959 216.28 650.119 214.08 650.119 211.28C650.119 208.48 651.199 206.16 653.359 204.32C655.599 202.4 658.359 201.44 661.639 201.44C664.599 201.44 666.999 202.16 668.839 203.6C670.679 205.04 671.599 207.08 671.599 209.72C671.599 212.92 670.559 215.48 668.479 217.4C666.399 219.24 663.639 220.16 660.199 220.16ZM659.239 284.6C654.039 284.6 650.239 282.76 647.839 279.08C645.519 275.4 644.359 270.52 644.359 264.44C644.359 260.84 644.799 256.24 645.679 250.64C646.639 244.96 647.839 239.68 649.279 234.8C649.999 232.24 650.959 230.48 652.159 229.52C653.359 228.56 655.279 228.08 657.919 228.08C661.999 228.08 664.039 229.44 664.039 232.16C664.039 234.16 663.279 238.8 661.759 246.08C659.839 254.88 658.879 260.84 658.879 263.96C658.879 266.36 659.199 268.2 659.839 269.48C660.479 270.76 661.559 271.4 663.079 271.4C664.519 271.4 666.319 270.4 668.479 268.4C670.639 266.4 673.519 263.24 677.119 258.92C678.079 257.8 679.159 257.24 680.359 257.24C681.399 257.24 682.199 257.72 682.759 258.68C683.399 259.64 683.719 260.96 683.719 262.64C683.719 265.84 682.959 268.32 681.439 270.08C673.519 279.76 666.119 284.6 659.239 284.6ZM705.93 284.6C698.09 284.6 691.97 282.4 687.57 278C683.25 273.52 681.09 267.64 681.09 260.36C681.09 253.88 682.37 248.2 684.93 243.32C687.49 238.44 690.81 234.68 694.89 232.04C698.97 229.4 703.25 228.08 707.73 228.08C712.13 228.08 715.53 229.4 717.93 232.04C720.41 234.6 721.65 237.92 721.65 242C721.65 245.36 720.89 248.2 719.37 250.52C717.93 252.84 716.01 254 713.61 254C712.09 254 710.85 253.64 709.89 252.92C709.01 252.2 708.57 251.2 708.57 249.92C708.57 249.36 708.65 248.72 708.81 248C708.97 247.28 709.09 246.76 709.17 246.44C709.57 245.24 709.77 244.12 709.77 243.08C709.77 242.04 709.49 241.24 708.93 240.68C708.45 240.12 707.73 239.84 706.77 239.84C704.93 239.84 703.21 240.68 701.61 242.36C700.01 243.96 698.73 246.16 697.77 248.96C696.81 251.76 696.33 254.84 696.33 258.2C696.33 267.48 700.37 272.12 708.45 272.12C711.73 272.12 715.25 271.04 719.01 268.88C722.85 266.64 726.61 263.32 730.29 258.92C731.25 257.8 732.33 257.24 733.53 257.24C734.57 257.24 735.37 257.72 735.93 258.68C736.57 259.64 736.89 260.96 736.89 262.64C736.89 265.68 736.13 268.16 734.61 270.08C730.85 274.72 726.33 278.32 721.05 280.88C715.85 283.36 710.81 284.6 705.93 284.6ZM805.55 257.24C806.59 257.24 807.39 257.72 807.95 258.68C808.59 259.64 808.91 260.96 808.91 262.64C808.91 265.84 808.15 268.32 806.63 270.08C803.03 274.48 799.39 278 795.71 280.64C792.03 283.28 787.67 284.6 782.63 284.6C776.47 284.6 771.51 282.84 767.75 279.32C763.99 275.8 762.11 271.12 762.11 265.28C762.11 262.16 763.71 259.92 766.91 258.56C770.43 257.04 772.95 255.44 774.47 253.76C775.99 252 776.75 249.88 776.75 247.4C776.75 245.96 776.43 244.88 775.79 244.16C775.23 243.44 774.51 243.08 773.63 243.08C771.47 243.08 769.07 244.64 766.43 247.76C763.87 250.88 761.47 254.92 759.23 259.88C756.99 264.76 755.23 269.8 753.95 275C753.07 278.76 752.03 281.32 750.83 282.68C749.71 283.96 747.91 284.6 745.43 284.6C742.95 284.6 741.11 283.72 739.91 281.96C738.79 280.12 738.03 277.32 737.63 273.56C737.23 269.8 737.03 264.28 737.03 257C737.03 244.68 738.27 231.84 740.75 218.48C743.31 205.12 747.03 193.92 751.91 184.88C756.87 175.76 762.79 171.2 769.67 171.2C773.35 171.2 776.31 172.8 778.55 176C780.87 179.12 782.03 183.2 782.03 188.24C782.03 196.32 779.67 204.72 774.95 213.44C770.23 222.08 762.55 232.2 751.91 243.8C751.67 247.96 751.55 252.24 751.55 256.64C755.39 246.64 759.79 239.4 764.75 234.92C769.71 230.36 774.35 228.08 778.67 228.08C782.67 228.08 785.87 229.44 788.27 232.16C790.75 234.88 791.99 238.24 791.99 242.24C791.99 246.64 790.87 250.68 788.63 254.36C786.39 258.04 782.55 261.32 777.11 264.2C777.43 266.36 778.39 268.12 779.99 269.48C781.67 270.76 783.67 271.4 785.99 271.4C788.47 271.4 790.87 270.44 793.19 268.52C795.51 266.6 798.55 263.4 802.31 258.92C803.27 257.8 804.35 257.24 805.55 257.24ZM767.15 183.08C765.71 183.08 764.11 185.16 762.35 189.32C760.59 193.4 758.87 198.96 757.19 206C755.59 212.96 754.27 220.56 753.23 228.8C758.19 222.96 762.27 216.6 765.47 209.72C768.75 202.84 770.39 196.6 770.39 191C770.39 188.44 770.11 186.48 769.55 185.12C768.99 183.76 768.19 183.08 767.15 183.08ZM861.757 257.24C862.797 257.24 863.597 257.72 864.157 258.68C864.797 259.64 865.117 260.96 865.117 262.64C865.117 265.84 864.357 268.32 862.837 270.08C859.877 273.68 855.677 277 850.237 280.04C844.877 283.08 839.117 284.6 832.957 284.6C824.557 284.6 818.037 282.32 813.397 277.76C808.757 273.2 806.437 266.96 806.437 259.04C806.437 253.52 807.597 248.4 809.917 243.68C812.237 238.88 815.437 235.08 819.517 232.28C823.677 229.48 828.357 228.08 833.557 228.08C838.197 228.08 841.917 229.48 844.717 232.28C847.517 235 848.917 238.72 848.917 243.44C848.917 248.96 846.917 253.72 842.917 257.72C838.997 261.64 832.317 264.76 822.877 267.08C824.877 270.76 828.677 272.6 834.277 272.6C837.877 272.6 841.957 271.36 846.517 268.88C851.157 266.32 855.157 263 858.517 258.92C859.477 257.8 860.557 257.24 861.757 257.24ZM831.517 239.84C828.557 239.84 826.037 241.56 823.957 245C821.957 248.44 820.957 252.6 820.957 257.48V257.72C825.677 256.6 829.397 254.92 832.117 252.68C834.837 250.44 836.197 247.84 836.197 244.88C836.197 243.36 835.757 242.16 834.877 241.28C834.077 240.32 832.957 239.84 831.517 239.84ZM912.826 244.52C914.586 244.52 916.066 245.16 917.266 246.44C918.546 247.64 919.186 249.16 919.186 251C919.186 252.04 918.946 253.16 918.466 254.36C917.186 257.32 915.386 259.8 913.066 261.8C910.746 263.8 908.186 264.8 905.386 264.8C903.146 264.8 901.226 264 899.626 262.4C898.106 260.8 897.346 258.64 897.346 255.92C897.346 254.4 897.426 252.76 897.586 251C897.746 249.72 897.826 248.84 897.826 248.36C897.826 247.72 897.666 247.24 897.346 246.92C897.106 246.6 896.786 246.44 896.386 246.44C895.266 246.44 893.746 247.8 891.826 250.52C889.906 253.16 887.986 256.68 886.066 261.08C884.146 265.48 882.586 270.12 881.386 275C880.506 278.84 879.506 281.4 878.386 282.68C877.266 283.96 875.426 284.6 872.866 284.6C869.826 284.6 867.666 283 866.386 279.8C865.186 276.6 864.586 271.48 864.586 264.44C864.586 254.04 866.066 244.16 869.026 234.8C869.746 232.48 870.906 230.8 872.506 229.76C874.186 228.64 876.506 228.08 879.466 228.08C881.066 228.08 882.186 228.28 882.826 228.68C883.466 229.08 883.786 229.84 883.786 230.96C883.786 232.24 883.186 235.12 881.986 239.6C881.186 242.8 880.546 245.6 880.066 248C879.586 250.4 879.186 253.36 878.866 256.88C881.506 250 884.466 244.4 887.746 240.08C891.026 235.76 894.226 232.68 897.346 230.84C900.466 229 903.306 228.08 905.866 228.08C908.186 228.08 909.946 228.76 911.146 230.12C912.426 231.4 913.066 233.32 913.066 235.88C913.066 237.4 912.626 240.28 911.746 244.52H912.826Z" fill="white"/>
<path d="M547.718 278L541.96 283.553L542.01 283.605L542.062 283.657L547.718 278ZM545.078 243.32L552.163 247.036L552.163 247.036L545.078 243.32ZM555.038 232.04L550.692 225.323L550.692 225.323L555.038 232.04ZM578.078 232.04L572.159 237.421L572.244 237.515L572.333 237.606L578.078 232.04ZM579.518 250.52L572.827 246.136L572.773 246.218L572.721 246.301L579.518 250.52ZM570.038 252.92L564.973 259.112L565.103 259.219L565.238 259.32L570.038 252.92ZM569.318 246.44L561.729 243.91L561.632 244.202L561.557 244.5L569.318 246.44ZM569.078 240.68L563.004 245.886L563.204 246.12L563.422 246.337L569.078 240.68ZM561.758 242.36L567.415 248.017L567.484 247.948L567.552 247.877L561.758 242.36ZM557.918 248.96L550.351 246.365L550.351 246.365L557.918 248.96ZM579.158 268.88L583.143 275.817L583.166 275.804L583.189 275.79L579.158 268.88ZM590.438 258.92L584.364 253.714L584.333 253.75L584.302 253.788L590.438 258.92ZM596.078 258.68L589.168 262.711L589.289 262.918L589.422 263.118L596.078 258.68ZM594.758 270.08L600.974 275.117L601.003 275.081L601.031 275.046L594.758 270.08ZM581.198 280.88L584.642 288.101L584.665 288.09L584.689 288.079L581.198 280.88ZM566.078 276.6C559.779 276.6 555.909 274.877 553.375 272.343L542.062 283.657C548.328 289.923 556.698 292.6 566.078 292.6V276.6ZM553.477 272.447C550.837 269.709 549.238 265.946 549.238 260.36H533.238C533.238 269.334 535.96 277.331 541.96 283.553L553.477 272.447ZM549.238 260.36C549.238 254.947 550.302 250.584 552.163 247.036L537.994 239.604C534.735 245.816 533.238 252.813 533.238 260.36H549.238ZM552.163 247.036C554.17 243.209 556.608 240.553 559.384 238.757L550.692 225.323C545.309 228.807 541.106 233.671 537.994 239.604L552.163 247.036ZM559.384 238.757C562.284 236.88 565.071 236.08 567.878 236.08V220.08C561.726 220.08 555.953 221.92 550.692 225.323L559.384 238.757ZM567.878 236.08C570.591 236.08 571.618 236.827 572.159 237.421L583.998 226.659C579.739 221.973 573.966 220.08 567.878 220.08V236.08ZM572.333 237.606C573.156 238.456 573.798 239.673 573.798 242H589.798C589.798 236.167 587.961 230.744 583.824 226.474L572.333 237.606ZM573.798 242C573.798 244.135 573.327 245.372 572.827 246.136L586.21 254.904C588.749 251.028 589.798 246.585 589.798 242H573.798ZM572.721 246.301C572.525 246.617 572.529 246.483 572.862 246.283C573.022 246.186 573.206 246.107 573.394 246.056C573.578 246.007 573.709 246 573.758 246V262C579.349 262 583.654 259.027 586.316 254.739L572.721 246.301ZM573.758 246C573.623 246 573.699 245.983 573.919 246.047C574.155 246.116 574.489 246.258 574.838 246.52L565.238 259.32C567.915 261.327 570.974 262 573.758 262V246ZM575.104 246.728C575.599 247.133 576.062 247.707 576.371 248.408C576.668 249.083 576.718 249.639 576.718 249.92H560.718C560.718 253.259 561.987 256.669 564.973 259.112L575.104 246.728ZM576.718 249.92C576.718 250.017 576.712 250.051 576.717 250.012C576.721 249.974 576.735 249.884 576.768 249.735L561.149 246.265C560.9 247.386 560.718 248.626 560.718 249.92H576.718ZM576.768 249.735C576.927 249.022 577.027 248.59 577.08 248.38L561.557 244.5C561.45 244.93 561.31 245.538 561.149 246.265L576.768 249.735ZM576.908 248.97C577.523 247.124 577.918 245.143 577.918 243.08H561.918C561.918 243.097 561.914 243.356 561.729 243.91L576.908 248.97ZM577.918 243.08C577.918 240.608 577.222 237.51 574.735 235.023L563.422 246.337C562.055 244.97 561.918 243.472 561.918 243.08H577.918ZM575.152 235.474C572.723 232.639 569.461 231.84 566.918 231.84V247.84C566.639 247.84 566.037 247.801 565.279 247.506C564.472 247.192 563.662 246.654 563.004 245.886L575.152 235.474ZM566.918 231.84C562.349 231.84 558.657 234.016 555.965 236.843L567.552 247.877C567.831 247.584 567.913 247.583 567.759 247.659C567.68 247.697 567.558 247.746 567.398 247.784C567.237 247.822 567.073 247.84 566.918 247.84V231.84ZM556.102 236.703C553.416 239.388 551.589 242.754 550.351 246.365L565.486 251.555C566.168 249.566 566.9 248.532 567.415 248.017L556.102 236.703ZM550.351 246.365C549.069 250.105 548.478 254.075 548.478 258.2H564.478C564.478 255.605 564.848 253.415 565.486 251.555L550.351 246.365ZM548.478 258.2C548.478 263.822 549.678 269.533 553.475 273.893C557.456 278.465 563.015 280.12 568.598 280.12V264.12C566.102 264.12 565.601 263.455 565.542 263.387C565.299 263.107 564.478 261.858 564.478 258.2H548.478ZM568.598 280.12C573.657 280.12 578.549 278.456 583.143 275.817L575.173 261.943C572.248 263.624 570.1 264.12 568.598 264.12V280.12ZM583.189 275.79C588.023 272.971 592.465 268.967 596.575 264.052L584.302 253.788C581.052 257.673 577.974 260.309 575.127 261.97L583.189 275.79ZM596.512 264.126C596.463 264.184 596.194 264.481 595.651 264.762C595.069 265.064 594.378 265.24 593.678 265.24V249.24C589.617 249.24 586.465 251.263 584.364 253.714L596.512 264.126ZM593.678 265.24C592.919 265.24 591.925 265.049 590.942 264.46C589.986 263.886 589.437 263.172 589.168 262.711L602.989 254.649C601.115 251.437 597.794 249.24 593.678 249.24V265.24ZM589.422 263.118C589.14 262.694 589.046 262.367 589.024 262.275C589.004 262.193 589.038 262.292 589.038 262.64H605.038C605.038 260.064 604.566 256.989 602.735 254.242L589.422 263.118ZM589.038 262.64C589.038 264.323 588.639 264.921 588.486 265.114L601.031 275.046C603.918 271.399 605.038 267.037 605.038 262.64H589.038ZM588.543 265.043C585.508 268.788 581.913 271.643 577.708 273.681L584.689 288.079C591.044 284.997 596.489 280.652 600.974 275.117L588.543 265.043ZM577.755 273.659C573.438 275.718 569.57 276.6 566.078 276.6V292.6C572.346 292.6 578.559 291.002 584.642 288.101L577.755 273.659ZM644.218 258.68L637.308 262.711L637.429 262.918L637.562 263.118L644.218 258.68ZM642.898 270.08L636.844 264.851L636.763 264.944L636.686 265.04L642.898 270.08ZM631.618 280.52L627.181 273.864L627.15 273.884L627.12 273.905L631.618 280.52ZM602.218 275L595.135 278.719L595.153 278.753L595.172 278.788L602.218 275ZM600.898 216.8L593.061 215.192L593.056 215.217L593.052 215.241L600.898 216.8ZM612.058 184.64L605.059 180.765L605.046 180.789L605.033 180.814L612.058 184.64ZM638.698 176.6L631.838 180.716L631.892 180.806L631.949 180.895L638.698 176.6ZM634.138 224.96L626.763 221.86L626.763 221.86L634.138 224.96ZM612.658 262.28L606.208 257.547L604.201 260.282L604.772 263.626L612.658 262.28ZM615.418 269.36L609.439 274.675L609.514 274.76L609.593 274.843L615.418 269.36ZM629.098 268.64L633.865 275.065L633.931 275.016L633.996 274.966L629.098 268.64ZM638.578 258.92L632.504 253.714L632.481 253.74L632.459 253.767L638.578 258.92ZM620.818 193.04L613.266 190.401L613.266 190.401L620.818 193.04ZM614.698 217.76L606.823 216.351L606.823 216.351L614.698 217.76ZM611.818 246.08L603.819 245.938L603.295 275.545L618.657 250.23L611.818 246.08ZM625.378 218L632.908 220.703L632.911 220.693L632.915 220.683L625.378 218ZM641.818 265.24C641.059 265.24 640.064 265.049 639.082 264.46C638.125 263.886 637.577 263.172 637.308 262.711L651.128 254.649C649.255 251.437 645.934 249.24 641.818 249.24V265.24ZM637.562 263.118C637.279 262.694 637.186 262.367 637.163 262.275C637.143 262.193 637.178 262.292 637.178 262.64H653.178C653.178 260.064 652.705 256.989 650.875 254.242L637.562 263.118ZM637.178 262.64C637.178 264.642 636.706 265.01 636.844 264.851L648.953 275.309C652.13 271.63 653.178 267.038 653.178 262.64H637.178ZM636.686 265.04C633.696 268.725 630.52 271.637 627.181 273.864L636.056 287.176C640.876 283.963 645.22 279.915 649.111 275.12L636.686 265.04ZM627.12 273.905C624.526 275.668 621.553 276.6 617.938 276.6V292.6C624.564 292.6 630.71 290.812 636.117 287.135L627.12 273.905ZM617.938 276.6C615.669 276.6 614.087 276.099 612.898 275.372C611.695 274.638 610.437 273.393 609.265 271.212L595.172 278.788C597.44 283.007 600.521 286.562 604.559 289.028C608.61 291.501 613.167 292.6 617.938 292.6V276.6ZM609.301 271.281C606.738 266.398 605.178 259.519 605.178 250.16H589.178C589.178 261.121 590.979 270.802 595.135 278.719L609.301 271.281ZM605.178 250.16C605.178 241.053 606.338 230.471 608.745 218.359L593.052 215.241C590.498 228.089 589.178 239.747 589.178 250.16H605.178ZM608.735 218.408C611.174 206.519 614.663 196.583 619.084 188.466L605.033 180.814C599.693 190.617 595.743 202.121 593.061 215.192L608.735 218.408ZM619.057 188.515C623.388 180.691 627.124 179.2 629.698 179.2V163.2C618.672 163.2 610.648 170.669 605.059 180.765L619.057 188.515ZM629.698 179.2C630.314 179.2 630.575 179.328 630.712 179.41C630.882 179.512 631.299 179.818 631.838 180.716L645.558 172.484C642.115 166.745 636.651 163.2 629.698 163.2V179.2ZM631.949 180.895C633.022 182.581 634.058 185.901 634.058 191.84H650.058C650.058 184.499 648.855 177.659 645.447 172.305L631.949 180.895ZM634.058 191.84C634.058 199.941 631.795 209.891 626.763 221.86L641.513 228.06C647.042 214.909 650.058 202.779 650.058 191.84H634.058ZM626.763 221.86C621.754 233.776 614.921 245.673 606.208 257.547L619.108 267.013C628.475 254.247 635.962 241.264 641.513 228.06L626.763 221.86ZM604.772 263.626C605.423 267.439 606.678 271.569 609.439 274.675L621.397 264.045C621.551 264.218 621.44 264.163 621.222 263.604C621.008 263.056 620.76 262.196 620.544 260.934L604.772 263.626ZM609.593 274.843C612.564 278.001 616.45 279.4 620.458 279.4V263.4C620.296 263.4 620.396 263.376 620.64 263.474C620.757 263.522 620.878 263.586 620.993 263.665C621.107 263.744 621.191 263.821 621.244 263.877L609.593 274.843ZM620.458 279.4C625.341 279.4 629.918 277.993 633.865 275.065L624.331 262.215C623.319 262.967 622.135 263.4 620.458 263.4V279.4ZM633.996 274.966C637.16 272.516 640.756 268.753 644.697 264.073L632.459 253.767C628.72 258.207 625.996 260.924 624.201 262.314L633.996 274.966ZM644.652 264.126C644.602 264.184 644.333 264.481 643.791 264.762C643.209 265.064 642.518 265.24 641.818 265.24V249.24C637.756 249.24 634.604 251.263 632.504 253.714L644.652 264.126ZM627.058 175.08C624.074 175.08 621.83 176.44 620.463 177.598C619.105 178.747 618.092 180.121 617.339 181.323C615.826 183.737 614.494 186.887 613.266 190.401L628.37 195.679C629.463 192.553 630.33 190.723 630.898 189.817C631.184 189.359 631.181 189.488 630.803 189.807C630.416 190.135 629.122 191.08 627.058 191.08V175.08ZM613.266 190.401C610.761 197.57 608.629 206.252 606.823 216.351L622.573 219.169C624.287 209.588 626.235 201.79 628.37 195.679L613.266 190.401ZM606.823 216.351C604.996 226.567 603.988 236.432 603.819 245.938L619.817 246.222C619.969 237.648 620.88 228.633 622.573 219.169L606.823 216.351ZM618.657 250.23C624.588 240.458 629.35 230.615 632.908 220.703L617.849 215.297C614.687 224.105 610.408 232.982 604.979 241.93L618.657 250.23ZM632.915 220.683C636.497 210.619 638.418 201.097 638.418 192.2H622.418C622.418 198.823 620.979 206.501 617.841 215.317L632.915 220.683ZM638.418 192.2C638.418 188.894 638.143 185.468 637.085 182.594C636.538 181.109 635.597 179.257 633.895 177.718C632.023 176.024 629.627 175.08 627.058 175.08V191.08C626.414 191.08 625.69 190.967 624.953 190.681C624.218 190.396 623.619 189.997 623.161 189.582C622.716 189.18 622.441 188.798 622.288 188.549C622.137 188.302 622.077 188.141 622.071 188.126C622.07 188.123 622.174 188.425 622.268 189.185C622.358 189.918 622.418 190.909 622.418 192.2H638.418ZM652.639 217.88L647.122 223.673L647.196 223.744L647.271 223.812L652.639 217.88ZM653.359 204.32L658.546 210.41L658.556 210.402L658.565 210.394L653.359 204.32ZM668.839 203.6L663.908 209.9L668.839 203.6ZM668.479 217.4L673.779 223.392L673.843 223.336L673.905 223.278L668.479 217.4ZM647.839 279.08L641.071 283.346L641.104 283.399L641.138 283.45L647.839 279.08ZM645.679 250.64L637.791 249.307L637.783 249.352L637.776 249.398L645.679 250.64ZM649.279 234.8L656.952 237.064L656.966 237.015L656.98 236.966L649.279 234.8ZM661.759 246.08L669.575 247.785L669.583 247.75L669.59 247.715L661.759 246.08ZM668.479 268.4L663.043 262.53L663.043 262.53L668.479 268.4ZM677.119 258.92L671.045 253.714L671.009 253.756L670.973 253.799L677.119 258.92ZM682.759 258.68L675.849 262.711L675.969 262.918L676.102 263.118L682.759 258.68ZM681.439 270.08L675.384 264.851L675.315 264.932L675.247 265.014L681.439 270.08ZM660.199 212.16C657.885 212.16 657.643 211.619 658.006 211.948L647.271 223.812C650.994 227.181 655.792 228.16 660.199 228.16V212.16ZM658.156 212.087C658.162 212.092 658.182 212.114 658.203 212.146C658.225 212.178 658.229 212.194 658.222 212.176C658.209 212.142 658.119 211.885 658.119 211.28H642.119C642.119 215.782 643.535 220.257 647.122 223.673L658.156 212.087ZM658.119 211.28C658.119 210.935 658.179 210.822 658.181 210.816C658.186 210.807 658.246 210.666 658.546 210.41L648.171 198.23C644.254 201.567 642.119 206.1 642.119 211.28H658.119ZM658.565 210.394C659.191 209.858 660.04 209.44 661.639 209.44V193.44C656.678 193.44 652.007 194.942 648.152 198.246L658.565 210.394ZM661.639 209.44C663.296 209.44 663.815 209.827 663.908 209.9L673.769 197.3C670.183 194.493 665.901 193.44 661.639 193.44V209.44ZM663.908 209.9C663.897 209.892 663.845 209.848 663.778 209.764C663.711 209.678 663.655 209.585 663.616 209.499C663.578 209.415 663.572 209.373 663.576 209.396C663.582 209.422 663.599 209.524 663.599 209.72H679.599C679.599 204.983 677.816 200.467 673.769 197.3L663.908 209.9ZM663.599 209.72C663.599 211.009 663.27 211.321 663.053 211.522L673.905 223.278C677.848 219.639 679.599 214.831 679.599 209.72H663.599ZM663.178 211.408C662.887 211.665 662.171 212.16 660.199 212.16V228.16C665.107 228.16 669.91 226.815 673.779 223.392L663.178 211.408ZM659.239 276.6C656.167 276.6 655.174 275.683 654.54 274.71L641.138 283.45C645.304 289.837 651.91 292.6 659.239 292.6V276.6ZM654.606 274.814C653.351 272.823 652.359 269.585 652.359 264.44H636.359C636.359 271.455 637.686 277.977 641.071 283.346L654.606 274.814ZM652.359 264.44C652.359 261.422 652.734 257.276 653.582 251.882L637.776 249.398C636.863 255.204 636.359 260.258 636.359 264.44H652.359ZM653.567 251.973C654.481 246.567 655.613 241.602 656.952 237.064L641.606 232.536C640.065 237.758 638.797 243.353 637.791 249.307L653.567 251.973ZM656.98 236.966C657.227 236.089 657.446 235.604 657.562 235.391C657.681 235.172 657.596 235.415 657.156 235.767L647.161 223.273C644.006 225.797 642.456 229.512 641.578 232.634L656.98 236.966ZM657.156 235.767C656.639 236.181 656.286 236.239 656.439 236.201C656.505 236.185 656.656 236.153 656.911 236.126C657.165 236.099 657.498 236.08 657.919 236.08V220.08C654.643 220.08 650.487 220.613 647.161 223.273L657.156 235.767ZM657.919 236.08C658.519 236.08 658.806 236.132 658.861 236.144C658.918 236.157 658.576 236.093 658.071 235.756C657.512 235.384 656.915 234.781 656.501 233.953C656.103 233.158 656.039 232.485 656.039 232.16H672.039C672.039 228.47 670.464 224.789 666.946 222.444C664.001 220.48 660.595 220.08 657.919 220.08V236.08ZM656.039 232.16C656.039 232.159 656.039 232.166 656.038 232.18C656.038 232.194 656.038 232.214 656.036 232.24C656.034 232.294 656.03 232.368 656.023 232.464C656.01 232.659 655.986 232.916 655.948 233.245C655.872 233.907 655.751 234.768 655.574 235.847C655.22 238.007 654.676 240.862 653.928 244.445L669.59 247.715C671.055 240.7 672.039 235.163 672.039 232.16H656.039ZM653.943 244.375C652.049 253.054 650.879 259.842 650.879 263.96H666.879C666.879 261.838 667.629 256.706 669.575 247.785L653.943 244.375ZM650.879 263.96C650.879 266.866 651.233 270.156 652.683 273.058L666.994 265.902C667.11 266.134 667.065 266.142 667 265.769C666.938 265.408 666.879 264.823 666.879 263.96H650.879ZM652.683 273.058C653.592 274.874 655.011 276.594 657.05 277.802C659.062 278.994 661.186 279.4 663.079 279.4V263.4C663.451 263.4 664.276 263.486 665.207 264.038C666.167 264.606 666.726 265.366 666.994 265.902L652.683 273.058ZM663.079 279.4C667.8 279.4 671.586 276.425 673.914 274.27L663.043 262.53C662.662 262.883 662.347 263.145 662.095 263.336C661.842 263.528 661.685 263.622 661.624 263.657C661.559 263.693 661.644 263.637 661.867 263.568C662.094 263.498 662.512 263.4 663.079 263.4V279.4ZM673.914 274.27C676.46 271.912 679.604 268.434 683.265 264.041L670.973 253.799C667.434 258.046 664.817 260.888 663.043 262.53L673.914 274.27ZM683.193 264.126C683.143 264.184 682.874 264.481 682.331 264.762C681.75 265.064 681.059 265.24 680.359 265.24V249.24C676.297 249.24 673.145 251.263 671.045 253.714L683.193 264.126ZM680.359 265.24C679.6 265.24 678.605 265.049 677.623 264.46C676.666 263.886 676.117 263.172 675.849 262.711L689.669 254.649C687.795 251.437 684.475 249.24 680.359 249.24V265.24ZM676.102 263.118C675.82 262.694 675.726 262.367 675.704 262.275C675.684 262.193 675.719 262.292 675.719 262.64H691.719C691.719 260.064 691.246 256.989 689.415 254.242L676.102 263.118ZM675.719 262.64C675.719 264.642 675.247 265.01 675.384 264.851L687.493 275.309C690.671 271.63 691.719 267.038 691.719 262.64H675.719ZM675.247 265.014C667.681 274.262 662.343 276.6 659.239 276.6V292.6C669.894 292.6 679.357 285.258 687.63 275.146L675.247 265.014ZM687.57 278L681.811 283.553L681.862 283.605L681.913 283.657L687.57 278ZM684.93 243.32L692.014 247.036L692.014 247.036L684.93 243.32ZM694.89 232.04L690.544 225.323L690.544 225.323L694.89 232.04ZM717.93 232.04L712.01 237.421L712.096 237.515L712.184 237.606L717.93 232.04ZM719.37 250.52L712.678 246.136L712.625 246.218L712.573 246.301L719.37 250.52ZM709.89 252.92L704.824 259.112L704.955 259.219L705.09 259.32L709.89 252.92ZM709.17 246.44L701.581 243.91L701.483 244.202L701.409 244.5L709.17 246.44ZM708.93 240.68L702.856 245.886L703.056 246.12L703.273 246.337L708.93 240.68ZM701.61 242.36L707.267 248.017L707.336 247.948L707.403 247.877L701.61 242.36ZM697.77 248.96L690.202 246.365L690.202 246.365L697.77 248.96ZM719.01 268.88L722.995 275.817L723.018 275.804L723.041 275.79L719.01 268.88ZM730.29 258.92L724.216 253.714L724.184 253.75L724.153 253.788L730.29 258.92ZM735.93 258.68L729.02 262.711L729.141 262.918L729.274 263.118L735.93 258.68ZM734.61 270.08L740.825 275.117L740.854 275.081L740.882 275.046L734.61 270.08ZM721.05 280.88L724.494 288.101L724.517 288.09L724.54 288.079L721.05 280.88ZM705.93 276.6C699.631 276.6 695.76 274.877 693.227 272.343L681.913 283.657C688.18 289.923 696.549 292.6 705.93 292.6V276.6ZM693.329 272.447C690.689 269.709 689.09 265.946 689.09 260.36H673.09C673.09 269.334 675.811 277.331 681.811 283.553L693.329 272.447ZM689.09 260.36C689.09 254.947 690.153 250.584 692.014 247.036L677.846 239.604C674.587 245.816 673.09 252.813 673.09 260.36H689.09ZM692.014 247.036C694.022 243.209 696.459 240.553 699.236 238.757L690.544 225.323C685.161 228.807 680.958 233.671 677.846 239.604L692.014 247.036ZM699.236 238.757C702.136 236.88 704.923 236.08 707.73 236.08V220.08C701.577 220.08 695.804 221.92 690.544 225.323L699.236 238.757ZM707.73 236.08C710.442 236.08 711.47 236.827 712.01 237.421L723.85 226.659C719.59 221.973 713.818 220.08 707.73 220.08V236.08ZM712.184 237.606C713.007 238.456 713.65 239.673 713.65 242H729.65C729.65 236.167 727.813 230.744 723.676 226.474L712.184 237.606ZM713.65 242C713.65 244.135 713.179 245.372 712.678 246.136L726.062 254.904C728.601 251.028 729.65 246.585 729.65 242H713.65ZM712.573 246.301C712.377 246.617 712.381 246.483 712.713 246.283C712.874 246.186 713.058 246.107 713.245 246.056C713.429 246.007 713.56 246 713.61 246V262C719.2 262 723.506 259.027 726.167 254.739L712.573 246.301ZM713.61 246C713.475 246 713.551 245.983 713.77 246.047C714.007 246.116 714.341 246.258 714.69 246.52L705.09 259.32C707.767 261.327 710.826 262 713.61 262V246ZM714.956 246.728C715.451 247.133 715.914 247.707 716.223 248.408C716.519 249.083 716.57 249.639 716.57 249.92H700.57C700.57 253.259 701.839 256.669 704.824 259.112L714.956 246.728ZM716.57 249.92C716.57 250.017 716.563 250.051 716.568 250.012C716.573 249.974 716.587 249.884 716.619 249.735L701.001 246.265C700.751 247.386 700.57 248.626 700.57 249.92H716.57ZM716.619 249.735C716.778 249.022 716.879 248.59 716.931 248.38L701.409 244.5C701.301 244.93 701.162 245.538 701.001 246.265L716.619 249.735ZM716.759 248.97C717.375 247.124 717.77 245.143 717.77 243.08H701.77C701.77 243.097 701.765 243.356 701.581 243.91L716.759 248.97ZM717.77 243.08C717.77 240.608 717.073 237.51 714.587 235.023L703.273 246.337C701.907 244.97 701.77 243.472 701.77 243.08H717.77ZM715.004 235.474C712.575 232.639 709.313 231.84 706.77 231.84V247.84C706.49 247.84 705.889 247.801 705.13 247.506C704.323 247.192 703.514 246.654 702.856 245.886L715.004 235.474ZM706.77 231.84C702.2 231.84 698.509 234.016 695.817 236.843L707.403 247.877C707.682 247.584 707.764 247.583 707.611 247.659C707.532 247.697 707.409 247.746 707.25 247.784C707.089 247.822 706.925 247.84 706.77 247.84V231.84ZM695.953 236.703C693.268 239.388 691.441 242.754 690.202 246.365L705.338 251.555C706.019 249.566 706.752 248.532 707.267 248.017L695.953 236.703ZM690.202 246.365C688.92 250.105 688.33 254.075 688.33 258.2H704.33C704.33 255.605 704.7 253.415 705.338 251.555L690.202 246.365ZM688.33 258.2C688.33 263.822 689.53 269.533 693.327 273.893C697.307 278.465 702.866 280.12 708.45 280.12V264.12C705.954 264.12 705.453 263.455 705.393 263.387C705.15 263.107 704.33 261.858 704.33 258.2H688.33ZM708.45 280.12C713.508 280.12 718.401 278.456 722.995 275.817L715.025 261.943C712.099 263.624 709.952 264.12 708.45 264.12V280.12ZM723.041 275.79C727.875 272.971 732.317 268.967 736.427 264.052L724.153 253.788C720.903 257.673 717.825 260.309 714.979 261.97L723.041 275.79ZM736.364 264.126C736.314 264.184 736.045 264.481 735.503 264.762C734.921 265.064 734.23 265.24 733.53 265.24V249.24C729.468 249.24 726.316 251.263 724.216 253.714L736.364 264.126ZM733.53 265.24C732.771 265.24 731.776 265.049 730.794 264.46C729.837 263.886 729.289 263.172 729.02 262.711L742.84 254.649C740.967 251.437 737.646 249.24 733.53 249.24V265.24ZM729.274 263.118C728.991 262.694 728.898 262.367 728.875 262.275C728.855 262.193 728.89 262.292 728.89 262.64H744.89C744.89 260.064 744.417 256.989 742.586 254.242L729.274 263.118ZM728.89 262.64C728.89 264.323 728.49 264.921 728.338 265.114L740.882 275.046C743.77 271.399 744.89 267.037 744.89 262.64H728.89ZM728.395 265.043C725.36 268.788 721.765 271.643 717.56 273.681L724.54 288.079C730.895 284.997 736.34 280.652 740.825 275.117L728.395 265.043ZM717.606 273.659C713.289 275.718 709.422 276.6 705.93 276.6V292.6C712.198 292.6 718.411 291.002 724.494 288.101L717.606 273.659ZM807.95 258.68L801.039 262.711L801.16 262.918L801.293 263.118L807.95 258.68ZM806.63 270.08L800.575 264.851L800.505 264.932L800.438 265.014L806.63 270.08ZM795.71 280.64L800.373 287.14L800.373 287.14L795.71 280.64ZM767.75 279.32L773.217 273.48L773.217 273.48L767.75 279.32ZM766.91 258.56L770.039 265.923L770.06 265.914L770.081 265.904L766.91 258.56ZM774.47 253.76L780.402 259.127L780.464 259.059L780.524 258.989L774.47 253.76ZM775.79 244.16L769.475 249.072L769.636 249.279L769.81 249.475L775.79 244.16ZM766.43 247.76L760.323 242.592L760.283 242.639L760.245 242.685L766.43 247.76ZM759.23 259.88L766.5 263.217L766.511 263.195L766.521 263.173L759.23 259.88ZM753.95 275L746.182 273.088L746.171 273.132L746.16 273.177L753.95 275ZM750.83 282.68L744.831 277.387L744.82 277.399L744.809 277.412L750.83 282.68ZM739.91 281.96L733.076 286.12L733.184 286.296L733.3 286.467L739.91 281.96ZM737.63 273.56L729.675 274.406L729.675 274.406L737.63 273.56ZM740.75 218.48L732.893 216.974L732.888 216.997L732.884 217.02L740.75 218.48ZM751.91 184.88L744.882 181.058L744.876 181.069L744.87 181.08L751.91 184.88ZM778.55 176L771.996 180.588L772.062 180.682L772.13 180.774L778.55 176ZM774.95 213.44L781.97 217.275L781.978 217.262L781.985 217.248L774.95 213.44ZM751.91 243.8L746.014 238.392L744.087 240.493L743.923 243.339L751.91 243.8ZM751.55 256.64H743.55L759.018 259.508L751.55 256.64ZM764.75 234.92L770.112 240.857L770.138 240.833L770.164 240.809L764.75 234.92ZM788.27 232.16L782.271 237.453L782.314 237.502L782.358 237.55L788.27 232.16ZM788.63 254.36L795.463 258.52L788.63 254.36ZM777.11 264.2L773.367 257.13L768.367 259.777L769.196 265.372L777.11 264.2ZM779.99 269.48L774.809 275.576L774.971 275.714L775.141 275.843L779.99 269.48ZM793.19 268.52L788.089 262.357L788.089 262.357L793.19 268.52ZM802.31 258.92L796.236 253.714L796.209 253.745L796.182 253.777L802.31 258.92ZM762.35 189.32L769.695 192.489L769.706 192.463L769.717 192.437L762.35 189.32ZM757.19 206L749.408 204.143L749.4 204.175L749.393 204.208L757.19 206ZM753.23 228.8L745.293 227.798L741.927 254.466L759.327 233.979L753.23 228.8ZM765.47 209.72L758.248 206.277L758.232 206.312L758.216 206.346L765.47 209.72ZM769.55 185.12L776.947 182.074L776.947 182.074L769.55 185.12ZM805.55 265.24C804.791 265.24 803.796 265.049 802.814 264.46C801.857 263.886 801.308 263.172 801.039 262.711L814.86 254.649C812.986 251.437 809.666 249.24 805.55 249.24V265.24ZM801.293 263.118C801.011 262.694 800.917 262.367 800.895 262.275C800.875 262.193 800.91 262.292 800.91 262.64H816.91C816.91 260.064 816.437 256.989 814.606 254.242L801.293 263.118ZM800.91 262.64C800.91 264.642 800.438 265.01 800.575 264.851L812.684 275.309C815.862 271.63 816.91 267.038 816.91 262.64H800.91ZM800.438 265.014C797.175 269.003 794.033 271.997 791.046 274.14L800.373 287.14C804.746 284.003 808.885 279.957 812.821 275.146L800.438 265.014ZM791.046 274.14C788.878 275.695 786.194 276.6 782.63 276.6V292.6C789.145 292.6 795.181 290.865 800.373 287.14L791.046 274.14ZM782.63 276.6C778.078 276.6 775.213 275.348 773.217 273.48L762.282 285.16C767.806 290.332 774.861 292.6 782.63 292.6V276.6ZM773.217 273.48C771.296 271.682 770.11 269.233 770.11 265.28H754.11C754.11 273.007 756.683 279.918 762.282 285.16L773.217 273.48ZM770.11 265.28C770.11 265.187 770.121 265.241 770.075 265.393C770.027 265.555 769.941 265.74 769.82 265.91C769.702 266.075 769.607 266.147 769.61 266.145C769.62 266.138 769.741 266.049 770.039 265.923L763.781 251.197C761.178 252.303 758.654 254.014 756.8 256.61C754.904 259.264 754.11 262.284 754.11 265.28H770.11ZM770.081 265.904C774.022 264.203 777.758 262.05 780.402 259.127L768.537 248.393C768.141 248.83 766.838 249.877 763.738 251.215L770.081 265.904ZM780.524 258.989C783.387 255.675 784.75 251.662 784.75 247.4H768.75C768.75 248.098 768.593 248.325 768.415 248.531L780.524 258.989ZM784.75 247.4C784.75 244.944 784.224 241.607 781.769 238.845L769.81 249.475C768.635 248.153 768.75 246.976 768.75 247.4H784.75ZM782.105 239.248C780.093 236.663 777.082 235.08 773.63 235.08V251.08C772.945 251.08 772.104 250.931 771.252 250.505C770.409 250.084 769.83 249.528 769.475 249.072L782.105 239.248ZM773.63 235.08C767.707 235.08 763.242 239.142 760.323 242.592L772.537 252.928C773.549 251.731 774.238 251.173 774.57 250.958C774.885 250.752 774.526 251.08 773.63 251.08V235.08ZM760.245 242.685C757.116 246.499 754.374 251.194 751.939 256.587L766.521 263.173C768.565 258.646 770.624 255.261 772.614 252.835L760.245 242.685ZM751.959 256.543C749.509 261.88 747.582 267.397 746.182 273.088L761.718 276.912C762.877 272.203 764.47 267.64 766.5 263.217L751.959 256.543ZM746.16 273.177C745.781 274.798 745.413 275.952 745.098 276.729C744.759 277.564 744.608 277.639 744.831 277.387L756.828 287.973C759.442 285.01 760.826 280.727 761.739 276.823L746.16 273.177ZM744.809 277.412C745.017 277.174 745.245 276.981 745.467 276.836C745.685 276.692 745.861 276.617 745.96 276.582C746.133 276.52 746.014 276.6 745.43 276.6V292.6C749.138 292.6 753.622 291.638 756.85 287.948L744.809 277.412ZM745.43 276.6C745.131 276.6 745.276 276.548 745.641 276.723C745.821 276.809 746.006 276.927 746.175 277.075C746.343 277.221 746.455 277.359 746.52 277.453L733.3 286.467C736.252 290.797 740.806 292.6 745.43 292.6V276.6ZM746.743 277.8C746.538 277.463 745.941 276.058 745.585 272.714L729.675 274.406C730.119 278.582 731.042 282.777 733.076 286.12L746.743 277.8ZM745.585 272.714C745.231 269.385 745.03 264.205 745.03 257H729.03C729.03 264.355 729.229 270.215 729.675 274.406L745.585 272.714ZM745.03 257C745.03 245.217 746.216 232.867 748.615 219.94L732.884 217.02C730.324 230.813 729.03 244.143 729.03 257H745.03ZM748.607 219.986C751.06 207.184 754.56 196.812 758.949 188.68L744.87 181.08C739.5 191.028 735.56 203.056 732.893 216.974L748.607 219.986ZM758.938 188.702C763.279 180.72 767.056 179.2 769.67 179.2V163.2C758.523 163.2 750.461 170.8 744.882 181.058L758.938 188.702ZM769.67 179.2C770.555 179.2 771.144 179.371 771.996 180.588L785.104 171.412C781.475 166.229 776.144 163.2 769.67 163.2V179.2ZM772.13 180.774C773.156 182.154 774.03 184.409 774.03 188.24H790.03C790.03 181.991 788.583 176.086 784.969 171.226L772.13 180.774ZM774.03 188.24C774.03 194.72 772.143 201.819 767.914 209.632L781.985 217.248C787.196 207.621 790.03 197.92 790.03 188.24H774.03ZM767.929 209.605C763.647 217.443 756.444 227.021 746.014 238.392L757.805 249.208C768.655 237.379 776.812 226.717 781.97 217.275L767.929 209.605ZM743.923 243.339C743.674 247.661 743.55 252.095 743.55 256.64H759.55C759.55 252.385 759.666 248.259 759.896 244.261L743.923 243.339ZM759.018 259.508C762.65 250.05 766.484 244.134 770.112 240.857L759.387 228.983C753.096 234.666 748.13 243.23 744.081 253.772L759.018 259.508ZM770.164 240.809C774.441 236.877 777.221 236.08 778.67 236.08V220.08C771.478 220.08 764.978 223.843 759.335 229.031L770.164 240.809ZM778.67 236.08C780.639 236.08 781.556 236.643 782.271 237.453L794.268 226.867C790.183 222.237 784.701 220.08 778.67 220.08V236.08ZM782.358 237.55C783.373 238.663 783.99 240.046 783.99 242.24H799.99C799.99 236.434 798.126 231.097 794.181 226.77L782.358 237.55ZM783.99 242.24C783.99 245.206 783.256 247.802 781.796 250.2L795.463 258.52C798.483 253.558 799.99 248.074 799.99 242.24H783.99ZM781.796 250.2C780.56 252.231 778.049 254.651 773.367 257.13L780.853 271.27C787.05 267.989 792.22 263.849 795.463 258.52L781.796 250.2ZM769.196 265.372C769.788 269.367 771.668 272.906 774.809 275.576L785.171 263.384C785.12 263.342 785.099 263.316 785.094 263.31C785.091 263.307 785.091 263.306 785.091 263.307C785.092 263.307 785.092 263.308 785.092 263.308C785.092 263.309 785.093 263.309 785.093 263.309C785.093 263.309 785.093 263.309 785.093 263.309C785.093 263.309 785.093 263.309 785.093 263.309C785.092 263.308 785.092 263.308 785.092 263.307C785.091 263.306 785.09 263.304 785.089 263.3C785.086 263.294 785.081 263.281 785.075 263.262C785.062 263.224 785.041 263.149 785.023 263.028L769.196 265.372ZM775.141 275.843C778.353 278.291 782.1 279.4 785.99 279.4V263.4C785.239 263.4 784.986 263.229 784.838 263.117L775.141 275.843ZM785.99 279.4C790.708 279.4 794.855 277.526 798.29 274.683L788.089 262.357C786.885 263.354 786.232 263.4 785.99 263.4V279.4ZM798.29 274.683C801.184 272.288 804.599 268.637 808.437 264.063L796.182 253.777C792.5 258.163 789.835 260.912 788.089 262.357L798.29 274.683ZM808.384 264.126C808.334 264.184 808.065 264.481 807.522 264.762C806.941 265.064 806.25 265.24 805.55 265.24V249.24C801.488 249.24 798.336 251.263 796.236 253.714L808.384 264.126ZM767.15 175.08C762.502 175.08 759.664 178.286 758.529 179.762C757.119 181.595 755.966 183.876 754.982 186.203L769.717 192.437C770.085 191.568 770.409 190.893 770.683 190.383C770.965 189.86 771.147 189.601 771.211 189.518C771.297 189.406 771.098 189.702 770.557 190.072C769.977 190.47 768.799 191.08 767.15 191.08V175.08ZM755.004 186.151C752.984 190.835 751.138 196.896 749.408 204.143L764.971 207.857C766.602 201.024 768.196 195.965 769.695 192.489L755.004 186.151ZM749.393 204.208C747.724 211.467 746.361 219.334 745.293 227.798L761.167 229.802C762.178 221.786 763.455 214.453 764.986 207.792L749.393 204.208ZM759.327 233.979C764.747 227.597 769.218 220.631 772.723 213.094L758.216 206.346C755.322 212.569 751.632 218.323 747.132 223.621L759.327 233.979ZM772.691 213.163C776.309 205.575 778.39 198.14 778.39 191H762.39C762.39 195.06 761.191 200.105 758.248 206.277L772.691 213.163ZM778.39 191C778.39 188.054 778.096 184.864 776.947 182.074L762.152 188.166C762.11 188.062 762.184 188.208 762.26 188.741C762.334 189.257 762.39 189.995 762.39 191H778.39ZM776.947 182.074C775.758 179.187 772.772 175.08 767.15 175.08V191.08C765.752 191.08 764.38 190.562 763.349 189.686C762.467 188.937 762.174 188.22 762.152 188.166L776.947 182.074ZM864.157 258.68L857.246 262.711L857.367 262.918L857.5 263.118L864.157 258.68ZM862.837 270.08L856.782 264.851L856.719 264.924L856.657 264.999L862.837 270.08ZM850.237 280.04L846.334 273.056L846.312 273.069L846.29 273.081L850.237 280.04ZM813.397 277.76L819.004 272.054L819.004 272.054L813.397 277.76ZM809.917 243.68L817.096 247.209L817.108 247.185L817.119 247.161L809.917 243.68ZM819.517 232.28L815.05 225.643L815.02 225.663L814.99 225.684L819.517 232.28ZM844.717 232.28L839.06 237.937L839.101 237.978L839.142 238.018L844.717 232.28ZM842.917 257.72L837.26 252.063L837.26 252.063L842.917 257.72ZM822.877 267.08L820.967 259.311L810.895 261.787L815.848 270.9L822.877 267.08ZM846.517 268.88L850.339 275.908L850.36 275.896L850.381 275.885L846.517 268.88ZM858.517 258.92L852.443 253.714L852.391 253.774L852.341 253.834L858.517 258.92ZM823.957 245L817.111 240.861L817.075 240.92L817.041 240.979L823.957 245ZM820.957 257.72H812.957V267.84L822.804 265.504L820.957 257.72ZM832.117 252.68L827.031 246.505L827.031 246.505L832.117 252.68ZM834.877 241.28L828.731 246.401L828.963 246.68L829.22 246.937L834.877 241.28ZM861.757 265.24C860.997 265.24 860.003 265.049 859.021 264.46C858.064 263.886 857.515 263.172 857.246 262.711L871.067 254.649C869.193 251.437 865.872 249.24 861.757 249.24V265.24ZM857.5 263.118C857.218 262.694 857.124 262.367 857.102 262.275C857.082 262.193 857.117 262.292 857.117 262.64H873.117C873.117 260.064 872.644 256.989 870.813 254.242L857.5 263.118ZM857.117 262.64C857.117 264.642 856.644 265.01 856.782 264.851L868.891 275.309C872.069 271.63 873.117 267.038 873.117 262.64H857.117ZM856.657 264.999C854.505 267.617 851.179 270.349 846.334 273.056L854.139 287.024C860.174 283.651 865.248 279.743 869.016 275.161L856.657 264.999ZM846.29 273.081C842.133 275.439 837.733 276.6 832.957 276.6V292.6C840.501 292.6 847.62 290.721 854.183 286.999L846.29 273.081ZM832.957 276.6C826.018 276.6 821.748 274.751 819.004 272.054L807.789 283.466C814.325 289.889 823.095 292.6 832.957 292.6V276.6ZM819.004 272.054C816.217 269.315 814.437 265.313 814.437 259.04H798.437C798.437 268.607 801.296 277.085 807.789 283.466L819.004 272.054ZM814.437 259.04C814.437 254.681 815.343 250.776 817.096 247.209L802.737 240.151C799.85 246.024 798.437 252.359 798.437 259.04H814.437ZM817.119 247.161C818.882 243.515 821.199 240.828 824.043 238.876L814.99 225.684C809.674 229.332 805.591 234.245 802.714 240.199L817.119 247.161ZM823.984 238.917C826.773 237.04 829.886 236.08 833.557 236.08V220.08C826.827 220.08 820.581 221.92 815.05 225.643L823.984 238.917ZM833.557 236.08C836.468 236.08 838.017 236.894 839.06 237.937L850.373 226.623C845.816 222.066 839.925 220.08 833.557 220.08V236.08ZM839.142 238.018C840.075 238.924 840.917 240.397 840.917 243.44H856.917C856.917 237.043 854.958 231.076 850.291 226.542L839.142 238.018ZM840.917 243.44C840.917 246.78 839.801 249.522 837.26 252.063L848.573 263.377C854.032 257.918 856.917 251.14 856.917 243.44H840.917ZM837.26 252.063C834.888 254.435 829.92 257.111 820.967 259.311L824.786 274.849C834.713 272.409 843.106 268.845 848.573 263.377L837.26 252.063ZM815.848 270.9C819.718 278.021 826.881 280.6 834.277 280.6V264.6C832.308 264.6 831.232 264.271 830.713 264.02C830.305 263.822 830.1 263.618 829.906 263.26L815.848 270.9ZM834.277 280.6C839.672 280.6 845.091 278.762 850.339 275.908L842.694 261.852C838.823 263.958 836.081 264.6 834.277 264.6V280.6ZM850.381 275.885C855.903 272.838 860.688 268.868 864.692 264.006L852.341 253.834C849.625 257.132 846.41 259.802 842.652 261.875L850.381 275.885ZM864.591 264.126C864.541 264.184 864.272 264.481 863.729 264.762C863.148 265.064 862.457 265.24 861.757 265.24V249.24C857.695 249.24 854.543 251.263 852.443 253.714L864.591 264.126ZM831.517 231.84C824.79 231.84 820.058 235.986 817.111 240.861L830.802 249.139C831.429 248.103 831.853 247.781 831.917 247.738C831.937 247.724 831.887 247.76 831.775 247.795C831.661 247.831 831.564 247.84 831.517 247.84V231.84ZM817.041 240.979C814.186 245.889 812.957 251.506 812.957 257.48H828.957C828.957 253.694 829.727 250.991 830.873 249.021L817.041 240.979ZM812.957 257.48V257.72H828.957V257.48H812.957ZM822.804 265.504C828.289 264.202 833.254 262.107 837.202 258.855L827.031 246.505C825.54 247.733 823.064 248.998 819.11 249.936L822.804 265.504ZM837.202 258.855C841.378 255.416 844.197 250.693 844.197 244.88H828.197C828.197 245.08 828.164 245.197 828.088 245.342C827.993 245.524 827.727 245.931 827.031 246.505L837.202 258.855ZM844.197 244.88C844.197 241.738 843.234 238.323 840.533 235.623L829.22 246.937C828.816 246.533 828.524 246.054 828.356 245.594C828.197 245.163 828.197 244.886 828.197 244.88H844.197ZM841.022 236.159C838.461 233.085 834.927 231.84 831.517 231.84V247.84C831.347 247.84 830.885 247.81 830.285 247.553C829.655 247.283 829.117 246.866 828.731 246.401L841.022 236.159ZM917.266 246.44L911.43 251.912L911.606 252.1L911.794 252.276L917.266 246.44ZM918.466 254.36L925.809 257.535L925.853 257.434L925.894 257.331L918.466 254.36ZM913.066 261.8L918.289 267.859L918.289 267.859L913.066 261.8ZM899.626 262.4L893.826 267.91L893.897 267.984L893.969 268.057L899.626 262.4ZM897.586 251L889.648 250.008L889.631 250.141L889.619 250.276L897.586 251ZM897.346 246.92L890.946 251.72L891.287 252.175L891.689 252.577L897.346 246.92ZM891.826 250.52L898.296 255.225L898.329 255.18L898.362 255.133L891.826 250.52ZM886.066 261.08L878.734 257.88L878.734 257.88L886.066 261.08ZM881.386 275L873.617 273.09L873.602 273.151L873.588 273.213L881.386 275ZM878.386 282.68L872.365 277.412L872.365 277.412L878.386 282.68ZM866.386 279.8L858.895 282.609L858.926 282.69L858.958 282.771L866.386 279.8ZM869.026 234.8L876.654 237.212L876.66 237.192L876.666 237.171L869.026 234.8ZM872.506 229.76L876.866 236.468L876.905 236.442L876.944 236.416L872.506 229.76ZM881.986 239.6L874.258 237.53L874.241 237.595L874.225 237.66L881.986 239.6ZM878.866 256.88L870.899 256.156L886.335 259.746L878.866 256.88ZM887.746 240.08L881.374 235.242L881.374 235.242L887.746 240.08ZM911.146 230.12L905.147 235.413L905.312 235.6L905.489 235.777L911.146 230.12ZM911.746 244.52L903.913 242.894L901.915 252.52H911.746V244.52ZM912.826 252.52C912.715 252.52 912.432 252.495 912.081 252.343C911.729 252.191 911.512 252 911.43 251.912L923.102 240.968C920.385 238.07 916.789 236.52 912.826 236.52V252.52ZM911.794 252.276C911.669 252.159 911.476 251.923 911.333 251.584C911.194 251.254 911.186 251.023 911.186 251H927.186C927.186 247.07 925.717 243.397 922.737 240.604L911.794 252.276ZM911.186 251C911.186 250.808 911.229 250.912 911.038 251.389L925.894 257.331C926.663 255.408 927.186 253.272 927.186 251H911.186ZM911.123 251.185C910.297 253.096 909.199 254.571 907.842 255.741L918.289 267.859C921.573 265.029 924.075 261.544 925.809 257.535L911.123 251.185ZM907.842 255.741C906.828 256.615 906.083 256.8 905.386 256.8V272.8C910.289 272.8 914.664 270.985 918.289 267.859L907.842 255.741ZM905.386 256.8C905.304 256.8 905.271 256.793 905.277 256.794C905.284 256.795 905.309 256.801 905.343 256.815C905.377 256.829 905.394 256.841 905.393 256.84C905.39 256.838 905.352 256.812 905.283 256.743L893.969 268.057C897.052 271.14 901 272.8 905.386 272.8V256.8ZM905.426 256.89C905.472 256.939 905.482 256.982 905.462 256.925C905.433 256.841 905.346 256.541 905.346 255.92H889.346C889.346 260.189 890.582 264.495 893.826 267.91L905.426 256.89ZM905.346 255.92C905.346 254.677 905.412 253.281 905.553 251.724L889.619 250.276C889.44 252.239 889.346 254.123 889.346 255.92H905.346ZM905.524 251.992C905.679 250.754 905.826 249.406 905.826 248.36H889.826C889.826 248.236 889.832 248.293 889.799 248.656C889.77 248.976 889.721 249.42 889.648 250.008L905.524 251.992ZM905.826 248.36C905.826 246.487 905.352 243.613 903.003 241.263L891.689 252.577C889.98 250.867 889.826 248.953 889.826 248.36H905.826ZM903.746 242.12C901.995 239.786 899.304 238.44 896.386 238.44V254.44C895.492 254.44 894.424 254.254 893.348 253.715C892.272 253.177 891.482 252.435 890.946 251.72L903.746 242.12ZM896.386 238.44C892.779 238.44 890.222 240.469 889.072 241.498C887.669 242.753 886.409 244.321 885.29 245.907L898.362 255.133C898.74 254.597 899.055 254.19 899.307 253.892C899.565 253.586 899.709 253.45 899.74 253.422C899.788 253.379 899.585 253.575 899.135 253.807C898.686 254.038 897.727 254.44 896.386 254.44V238.44ZM885.356 245.815C882.976 249.087 880.788 253.173 878.734 257.88L893.398 264.28C895.184 260.187 896.836 257.233 898.296 255.225L885.356 245.815ZM878.734 257.88C876.624 262.716 874.921 267.789 873.617 273.09L889.155 276.91C890.251 272.451 891.668 268.244 893.398 264.28L878.734 257.88ZM873.588 273.213C873.202 274.899 872.835 276.094 872.524 276.889C872.18 277.771 872.056 277.765 872.365 277.412L884.407 287.948C886.976 285.012 888.301 280.639 889.184 276.787L873.588 273.213ZM872.365 277.412C872.59 277.156 872.831 276.955 873.057 276.808C873.279 276.664 873.453 276.593 873.538 276.564C873.681 276.514 873.516 276.6 872.866 276.6V292.6C876.558 292.6 881.135 291.687 884.407 287.948L872.365 277.412ZM872.866 276.6C872.811 276.6 872.908 276.594 873.104 276.654C873.309 276.717 873.531 276.826 873.728 276.972C874.133 277.272 874.056 277.435 873.814 276.829L858.958 282.771C859.996 285.365 861.639 287.928 864.204 289.828C866.839 291.78 869.866 292.6 872.866 292.6V276.6ZM873.877 276.991C873.211 275.215 872.586 271.318 872.586 264.44H856.586C856.586 271.642 857.161 277.985 858.895 282.609L873.877 276.991ZM872.586 264.44C872.586 254.81 873.955 245.747 876.654 237.212L861.398 232.388C858.177 242.573 856.586 253.27 856.586 264.44H872.586ZM876.666 237.171C876.83 236.643 876.977 236.406 877.019 236.346C877.048 236.304 877.001 236.38 876.866 236.468L868.146 223.052C864.592 225.362 862.505 228.822 861.385 232.429L876.666 237.171ZM876.944 236.416C876.83 236.492 877.389 236.08 879.466 236.08V220.08C875.623 220.08 871.542 220.788 868.068 223.104L876.944 236.416ZM879.466 236.08C879.968 236.08 880.148 236.114 880.1 236.105C880.065 236.099 879.912 236.07 879.675 235.99C879.442 235.91 879.05 235.754 878.586 235.464L887.066 221.896C884.363 220.207 881.225 220.08 879.466 220.08V236.08ZM878.586 235.464C877.377 234.708 876.591 233.647 876.173 232.654C875.799 231.768 875.786 231.107 875.786 230.96H891.786C891.786 228.518 891.047 224.384 887.066 221.896L878.586 235.464ZM875.786 230.96C875.786 230.703 875.798 231.036 875.504 232.448C875.247 233.683 874.839 235.363 874.258 237.53L889.714 241.67C890.333 239.357 890.825 237.357 891.168 235.712C891.474 234.244 891.786 232.497 891.786 230.96H875.786ZM874.225 237.66C873.404 240.944 872.733 243.872 872.221 246.431L887.911 249.569C888.359 247.327 888.968 244.656 889.747 241.54L874.225 237.66ZM872.221 246.431C871.667 249.203 871.234 252.465 870.899 256.156L886.833 257.604C887.138 254.255 887.505 251.597 887.911 249.569L872.221 246.431ZM886.335 259.746C888.794 253.337 891.425 248.464 894.118 244.918L881.374 235.242C877.507 240.336 874.218 246.663 871.397 254.014L886.335 259.746ZM894.118 244.918C897.052 241.053 899.515 238.848 901.41 237.731L893.282 223.949C888.937 226.512 885 230.467 881.374 235.242L894.118 244.918ZM901.41 237.731C903.783 236.331 905.209 236.08 905.866 236.08V220.08C901.403 220.08 897.149 221.669 893.282 223.949L901.41 237.731ZM905.866 236.08C906.259 236.08 906.267 236.139 906.043 236.052C905.927 236.008 905.772 235.932 905.601 235.815C905.429 235.696 905.275 235.558 905.147 235.413L917.145 224.827C914.025 221.291 909.796 220.08 905.866 220.08V236.08ZM905.489 235.777C905.333 235.62 905.212 235.46 905.126 235.316C905.042 235.175 905.006 235.077 904.996 235.05C904.988 235.025 905.006 235.072 905.026 235.211C905.046 235.352 905.066 235.57 905.066 235.88H921.066C921.066 232.087 920.112 227.773 916.803 224.463L905.489 235.777ZM905.066 235.88C905.066 235.879 905.066 235.892 905.065 235.921C905.064 235.949 905.062 235.989 905.059 236.041C905.053 236.148 905.042 236.293 905.023 236.479C904.985 236.856 904.923 237.349 904.828 237.972C904.637 239.223 904.336 240.853 903.913 242.894L919.579 246.146C920.437 242.012 921.066 238.348 921.066 235.88H905.066ZM911.746 252.52H912.826V236.52H911.746V252.52Z" fill="white"/>
<path d="M579.078 289.6C571.238 289.6 565.118 287.4 560.718 283C556.398 278.52 554.238 272.64 554.238 265.36C554.238 258.88 555.518 253.2 558.078 248.32C560.638 243.44 563.958 239.68 568.038 237.04C572.118 234.4 576.398 233.08 580.878 233.08C585.278 233.08 588.678 234.4 591.078 237.04C593.558 239.6 594.798 242.92 594.798 247C594.798 250.36 594.038 253.2 592.518 255.52C591.078 257.84 589.158 259 586.758 259C585.238 259 583.998 258.64 583.038 257.92C582.158 257.2 581.718 256.2 581.718 254.92C581.718 254.36 581.798 253.72 581.958 253C582.118 252.28 582.238 251.76 582.318 251.44C582.718 250.24 582.918 249.12 582.918 248.08C582.918 247.04 582.638 246.24 582.078 245.68C581.598 245.12 580.878 244.84 579.918 244.84C578.078 244.84 576.358 245.68 574.758 247.36C573.158 248.96 571.878 251.16 570.918 253.96C569.958 256.76 569.478 259.84 569.478 263.2C569.478 272.48 573.518 277.12 581.598 277.12C584.878 277.12 588.398 276.04 592.158 273.88C595.998 271.64 599.758 268.32 603.438 263.92C604.398 262.8 605.478 262.24 606.678 262.24C607.718 262.24 608.518 262.72 609.078 263.68C609.718 264.64 610.038 265.96 610.038 267.64C610.038 270.68 609.278 273.16 607.758 275.08C603.998 279.72 599.478 283.32 594.198 285.88C588.998 288.36 583.958 289.6 579.078 289.6ZM654.818 262.24C655.858 262.24 656.658 262.72 657.218 263.68C657.858 264.64 658.178 265.96 658.178 267.64C658.178 270.84 657.418 273.32 655.898 275.08C652.458 279.32 648.698 282.8 644.618 285.52C640.618 288.24 636.058 289.6 630.938 289.6C623.898 289.6 618.658 286.4 615.218 280C611.858 273.6 610.178 265.32 610.178 255.16C610.178 245.4 611.418 234.28 613.898 221.8C616.458 209.32 620.178 198.6 625.058 189.64C630.018 180.68 635.898 176.2 642.698 176.2C646.538 176.2 649.538 178 651.698 181.6C653.938 185.12 655.058 190.2 655.058 196.84C655.058 206.36 652.418 217.4 647.138 229.96C641.858 242.52 634.698 254.96 625.658 267.28C626.218 270.56 627.138 272.92 628.418 274.36C629.698 275.72 631.378 276.4 633.458 276.4C636.738 276.4 639.618 275.48 642.098 273.64C644.578 271.72 647.738 268.48 651.578 263.92C652.538 262.8 653.618 262.24 654.818 262.24ZM640.058 188.08C638.218 188.08 636.138 191.4 633.818 198.04C631.498 204.68 629.458 212.92 627.698 222.76C625.938 232.6 624.978 242.04 624.818 251.08C630.498 241.72 635.018 232.36 638.378 223C641.738 213.56 643.418 204.96 643.418 197.2C643.418 191.12 642.298 188.08 640.058 188.08ZM673.199 225.16C669.839 225.16 667.319 224.4 665.639 222.88C663.959 221.28 663.119 219.08 663.119 216.28C663.119 213.48 664.199 211.16 666.359 209.32C668.599 207.4 671.359 206.44 674.639 206.44C677.599 206.44 679.999 207.16 681.839 208.6C683.679 210.04 684.599 212.08 684.599 214.72C684.599 217.92 683.559 220.48 681.479 222.4C679.399 224.24 676.639 225.16 673.199 225.16ZM672.239 289.6C667.039 289.6 663.239 287.76 660.839 284.08C658.519 280.4 657.359 275.52 657.359 269.44C657.359 265.84 657.799 261.24 658.679 255.64C659.639 249.96 660.839 244.68 662.279 239.8C662.999 237.24 663.959 235.48 665.159 234.52C666.359 233.56 668.279 233.08 670.919 233.08C674.999 233.08 677.039 234.44 677.039 237.16C677.039 239.16 676.279 243.8 674.759 251.08C672.839 259.88 671.879 265.84 671.879 268.96C671.879 271.36 672.199 273.2 672.839 274.48C673.479 275.76 674.559 276.4 676.079 276.4C677.519 276.4 679.319 275.4 681.479 273.4C683.639 271.4 686.519 268.24 690.119 263.92C691.079 262.8 692.159 262.24 693.359 262.24C694.399 262.24 695.199 262.72 695.759 263.68C696.399 264.64 696.719 265.96 696.719 267.64C696.719 270.84 695.959 273.32 694.439 275.08C686.519 284.76 679.119 289.6 672.239 289.6ZM718.93 289.6C711.09 289.6 704.97 287.4 700.57 283C696.25 278.52 694.09 272.64 694.09 265.36C694.09 258.88 695.37 253.2 697.93 248.32C700.49 243.44 703.81 239.68 707.89 237.04C711.97 234.4 716.25 233.08 720.73 233.08C725.13 233.08 728.53 234.4 730.93 237.04C733.41 239.6 734.65 242.92 734.65 247C734.65 250.36 733.89 253.2 732.37 255.52C730.93 257.84 729.01 259 726.61 259C725.09 259 723.85 258.64 722.89 257.92C722.01 257.2 721.57 256.2 721.57 254.92C721.57 254.36 721.65 253.72 721.81 253C721.97 252.28 722.09 251.76 722.17 251.44C722.57 250.24 722.77 249.12 722.77 248.08C722.77 247.04 722.49 246.24 721.93 245.68C721.45 245.12 720.73 244.84 719.77 244.84C717.93 244.84 716.21 245.68 714.61 247.36C713.01 248.96 711.73 251.16 710.77 253.96C709.81 256.76 709.33 259.84 709.33 263.2C709.33 272.48 713.37 277.12 721.45 277.12C724.73 277.12 728.25 276.04 732.01 273.88C735.85 271.64 739.61 268.32 743.29 263.92C744.25 262.8 745.33 262.24 746.53 262.24C747.57 262.24 748.37 262.72 748.93 263.68C749.57 264.64 749.89 265.96 749.89 267.64C749.89 270.68 749.13 273.16 747.61 275.08C743.85 279.72 739.33 283.32 734.05 285.88C728.85 288.36 723.81 289.6 718.93 289.6ZM818.55 262.24C819.59 262.24 820.39 262.72 820.95 263.68C821.59 264.64 821.91 265.96 821.91 267.64C821.91 270.84 821.15 273.32 819.63 275.08C816.03 279.48 812.39 283 808.71 285.64C805.03 288.28 800.67 289.6 795.63 289.6C789.47 289.6 784.51 287.84 780.75 284.32C776.99 280.8 775.11 276.12 775.11 270.28C775.11 267.16 776.71 264.92 779.91 263.56C783.43 262.04 785.95 260.44 787.47 258.76C788.99 257 789.75 254.88 789.75 252.4C789.75 250.96 789.43 249.88 788.79 249.16C788.23 248.44 787.51 248.08 786.63 248.08C784.47 248.08 782.07 249.64 779.43 252.76C776.87 255.88 774.47 259.92 772.23 264.88C769.99 269.76 768.23 274.8 766.95 280C766.07 283.76 765.03 286.32 763.83 287.68C762.71 288.96 760.91 289.6 758.43 289.6C755.95 289.6 754.11 288.72 752.91 286.96C751.79 285.12 751.03 282.32 750.63 278.56C750.23 274.8 750.03 269.28 750.03 262C750.03 249.68 751.27 236.84 753.75 223.48C756.31 210.12 760.03 198.92 764.91 189.88C769.87 180.76 775.79 176.2 782.67 176.2C786.35 176.2 789.31 177.8 791.55 181C793.87 184.12 795.03 188.2 795.03 193.24C795.03 201.32 792.67 209.72 787.95 218.44C783.23 227.08 775.55 237.2 764.91 248.8C764.67 252.96 764.55 257.24 764.55 261.64C768.39 251.64 772.79 244.4 777.75 239.92C782.71 235.36 787.35 233.08 791.67 233.08C795.67 233.08 798.87 234.44 801.27 237.16C803.75 239.88 804.99 243.24 804.99 247.24C804.99 251.64 803.87 255.68 801.63 259.36C799.39 263.04 795.55 266.32 790.11 269.2C790.43 271.36 791.39 273.12 792.99 274.48C794.67 275.76 796.67 276.4 798.99 276.4C801.47 276.4 803.87 275.44 806.19 273.52C808.51 271.6 811.55 268.4 815.31 263.92C816.27 262.8 817.35 262.24 818.55 262.24ZM780.15 188.08C778.71 188.08 777.11 190.16 775.35 194.32C773.59 198.4 771.87 203.96 770.19 211C768.59 217.96 767.27 225.56 766.23 233.8C771.19 227.96 775.27 221.6 778.47 214.72C781.75 207.84 783.39 201.6 783.39 196C783.39 193.44 783.11 191.48 782.55 190.12C781.99 188.76 781.19 188.08 780.15 188.08ZM874.757 262.24C875.797 262.24 876.597 262.72 877.157 263.68C877.797 264.64 878.117 265.96 878.117 267.64C878.117 270.84 877.357 273.32 875.837 275.08C872.877 278.68 868.677 282 863.237 285.04C857.877 288.08 852.117 289.6 845.957 289.6C837.557 289.6 831.037 287.32 826.397 282.76C821.757 278.2 819.437 271.96 819.437 264.04C819.437 258.52 820.597 253.4 822.917 248.68C825.237 243.88 828.437 240.08 832.517 237.28C836.677 234.48 841.357 233.08 846.557 233.08C851.197 233.08 854.917 234.48 857.717 237.28C860.517 240 861.917 243.72 861.917 248.44C861.917 253.96 859.917 258.72 855.917 262.72C851.997 266.64 845.317 269.76 835.877 272.08C837.877 275.76 841.677 277.6 847.277 277.6C850.877 277.6 854.957 276.36 859.517 273.88C864.157 271.32 868.157 268 871.517 263.92C872.477 262.8 873.557 262.24 874.757 262.24ZM844.517 244.84C841.557 244.84 839.037 246.56 836.957 250C834.957 253.44 833.957 257.6 833.957 262.48V262.72C838.677 261.6 842.397 259.92 845.117 257.68C847.837 255.44 849.197 252.84 849.197 249.88C849.197 248.36 848.757 247.16 847.877 246.28C847.077 245.32 845.957 244.84 844.517 244.84ZM925.826 249.52C927.586 249.52 929.066 250.16 930.266 251.44C931.546 252.64 932.186 254.16 932.186 256C932.186 257.04 931.946 258.16 931.466 259.36C930.186 262.32 928.386 264.8 926.066 266.8C923.746 268.8 921.186 269.8 918.386 269.8C916.146 269.8 914.226 269 912.626 267.4C911.106 265.8 910.346 263.64 910.346 260.92C910.346 259.4 910.426 257.76 910.586 256C910.746 254.72 910.826 253.84 910.826 253.36C910.826 252.72 910.666 252.24 910.346 251.92C910.106 251.6 909.786 251.44 909.386 251.44C908.266 251.44 906.746 252.8 904.826 255.52C902.906 258.16 900.986 261.68 899.066 266.08C897.146 270.48 895.586 275.12 894.386 280C893.506 283.84 892.506 286.4 891.386 287.68C890.266 288.96 888.426 289.6 885.866 289.6C882.826 289.6 880.666 288 879.386 284.8C878.186 281.6 877.586 276.48 877.586 269.44C877.586 259.04 879.066 249.16 882.026 239.8C882.746 237.48 883.906 235.8 885.506 234.76C887.186 233.64 889.506 233.08 892.466 233.08C894.066 233.08 895.186 233.28 895.826 233.68C896.466 234.08 896.786 234.84 896.786 235.96C896.786 237.24 896.186 240.12 894.986 244.6C894.186 247.8 893.546 250.6 893.066 253C892.586 255.4 892.186 258.36 891.866 261.88C894.506 255 897.466 249.4 900.746 245.08C904.026 240.76 907.226 237.68 910.346 235.84C913.466 234 916.306 233.08 918.866 233.08C921.186 233.08 922.946 233.76 924.146 235.12C925.426 236.4 926.066 238.32 926.066 240.88C926.066 242.4 925.626 245.28 924.746 249.52H925.826Z" fill="#483434"/>
</svg>
