<svg width="100" height="94" viewBox="0 0 100 94" fill="none" xmlns="http://www.w3.org/2000/svg">
<path d="M97.2716 2.72852H2.72827V82.4849H97.2716V2.72852Z" fill="#FFDA79"/>
<path d="M14.546 35.7743C8.01946 35.7743 2.72827 30.4832 2.72827 23.9566V2.72852H26.3642V23.9566C26.3642 30.4832 21.073 35.7743 14.546 35.7743Z" fill="#FF9392"/>
<path d="M38.182 35.7743C31.6551 35.7743 26.3643 30.4832 26.3643 23.9566V2.72852H50.0002V23.9566C49.9998 30.4832 44.709 35.7743 38.182 35.7743Z" fill="white"/>
<path d="M61.818 35.7743C55.2911 35.7743 50.0002 30.4832 50.0002 23.9566V2.72852H73.6362V23.9566C73.6358 30.4832 68.3446 35.7743 61.818 35.7743Z" fill="#FF9392"/>
<path d="M85.4535 35.7743C78.9266 35.7743 73.6357 30.4832 73.6357 23.9566V2.72852H97.2717V23.9566C97.2717 30.4832 91.9805 35.7743 85.4535 35.7743Z" fill="white"/>
<path d="M50.0002 45.6895H26.3643V82.4848H50.0002V45.6895Z" fill="white"/>
<path d="M49.9997 45.6895H26.3638V64.187H49.9997V45.6895Z" fill="#C7E9F4"/>
<path d="M85.454 45.6895H61.8181V64.187H85.454V45.6895Z" fill="#C7E9F4"/>
<path d="M97.2716 82.4849H2.72827V91.2483H97.2716V82.4849Z" fill="#F59D00"/>
<path d="M97.2716 0C95.7772 0 5.30683 0 2.72835 0C1.22158 0 0 1.22158 0 2.72835C0 11.2536 0 88.4467 0 91.2482C0 92.7549 1.22158 93.9765 2.72835 93.9765H97.2716C98.7788 93.9765 100 92.7549 100 91.2482C100 88.0574 100 11.0324 100 2.72835C100 1.22158 98.7784 0 97.2716 0ZM29.0926 66.9153H47.2718V79.756H29.0926V66.9153ZM47.2715 61.4585H29.0926V48.4177H47.2718V61.4585H47.2715ZM52.7282 45.6894C52.7282 44.1826 51.507 42.961 49.9998 42.961H26.3643C24.8575 42.961 23.6359 44.1826 23.6359 45.6894C23.6359 49.0987 23.6359 75.9894 23.6359 79.756H5.45671V35.3009C11.9586 40.5208 21.4834 39.2159 26.3643 32.4219C32.1902 40.5317 44.1811 40.5222 50.0002 32.4219C55.8261 40.5317 67.8171 40.5219 73.6361 32.4219C78.5184 39.2181 88.0436 40.5193 94.5437 35.3009V79.756H52.7282C52.7282 75.9905 52.7282 49.0984 52.7282 45.6894ZM94.5433 23.9564C94.5433 28.9682 90.4657 33.0458 85.4539 33.0458C80.4421 33.0458 76.3645 28.9682 76.3645 23.9564V5.45671H94.5437V23.9564H94.5433ZM70.9074 23.9564C70.9074 28.9682 66.8298 33.0458 61.818 33.0458C56.8062 33.0458 52.7285 28.9682 52.7285 23.9564V5.45671H70.9077V23.9564H70.9074ZM47.2715 23.9564C47.2715 28.9682 43.1938 33.0458 38.182 33.0458C33.1702 33.0458 29.0926 28.9682 29.0926 23.9564V5.45671H47.2718V23.9564H47.2715ZM5.45671 5.45671H23.6359V23.9564C23.6359 28.9682 19.5583 33.0458 14.5465 33.0458C9.53432 33.0458 5.45671 28.9682 5.45671 23.9564V5.45671ZM94.5433 88.5198H5.45671V85.213C8.96646 85.213 90.9033 85.213 94.5433 85.213V88.5198V88.5198Z" fill="black"/>
<path d="M85.4534 42.9609H61.8175C60.3103 42.9609 59.0891 44.1825 59.0891 45.6893V64.1868C59.0891 65.6936 60.3103 66.9152 61.8175 66.9152H85.4534C86.9605 66.9152 88.1817 65.6936 88.1817 64.1868V45.6893C88.1817 44.1825 86.9605 42.9609 85.4534 42.9609ZM82.725 61.4585H64.5458V48.4176H82.725V61.4585Z" fill="black"/>
</svg>
